<?xml version="1.0" encoding="utf-8" standalone="no"?>
<!DOCTYPE svg PUBLIC "-//W3C//DTD SVG 1.1//EN"
  "http://www.w3.org/Graphics/SVG/1.1/DTD/svg11.dtd">
<!-- Created with matplotlib (https://matplotlib.org/) -->
<svg height="1080pt" version="1.1" viewBox="0 0 1080 1080" width="1080pt" xmlns="http://www.w3.org/2000/svg" xmlns:xlink="http://www.w3.org/1999/xlink">
 <metadata>
  <rdf:RDF xmlns:cc="http://creativecommons.org/ns#" xmlns:dc="http://purl.org/dc/elements/1.1/" xmlns:rdf="http://www.w3.org/1999/02/22-rdf-syntax-ns#">
   <cc:Work>
    <dc:type rdf:resource="http://purl.org/dc/dcmitype/StillImage"/>
    <dc:date>2023-02-13T17:55:44.558854</dc:date>
    <dc:format>image/svg+xml</dc:format>
    <dc:creator>
     <cc:Agent>
      <dc:title>Matplotlib v3.3.4, https://matplotlib.org/</dc:title>
     </cc:Agent>
    </dc:creator>
   </cc:Work>
  </rdf:RDF>
 </metadata>
 <defs>
  <style type="text/css">*{stroke-linecap:butt;stroke-linejoin:round;}</style>
 </defs>
 <g id="figure_1">
  <g id="patch_1">
   <path d="M 0 1080 
L 1080 1080 
L 1080 0 
L 0 0 
z
" style="fill:none;"/>
  </g>
  <g id="axes_1">
   <g id="patch_2">
    <path d="M 135 945 
L 804.6 945 
L 804.6 129.6 
L 135 129.6 
z
" style="fill:#ffffff;"/>
   </g>
   <g id="PathCollection_1">
    <path clip-path="url(#p6dd84e2441)" d="M 152.621053 945 
L 159.669474 945 
L 173.766316 945 
L 194.911579 945 
L 223.105263 945 
L 268.92 945 
L 335.88 945 
L 434.557895 945 
L 582.574737 945 
L 804.6 945 
L 804.6 917.572493 
L 582.574737 916.969755 
L 434.557895 915.562625 
L 335.88 915.242651 
L 268.92 914.486025 
L 223.105263 914.352815 
L 194.911579 914.567998 
L 173.766316 912.602335 
L 159.669474 910.441939 
L 152.621053 908.245874 
L 141.354147 843.075 
L 140.033194 741.15 
L 139.290841 639.225 
L 138.760002 537.3 
L 138.413189 435.375 
L 138.267181 333.45 
L 138.156816 231.525 
L 138.082345 129.6 
L 138.023503 27.675 
L 137.976307 -74.25 
L 137.936232 -176.175 
L 137.898713 -278.1 
L 137.867068 -380.025 
L 137.850671 -481.95 
L 137.838279 -583.875 
L 137.826376 -685.8 
L 137.819368 -787.725 
L 135 -787.725 
L 135 -685.8 
L 135 -583.875 
L 135 -481.95 
L 135 -380.025 
L 135 -278.1 
L 135 -176.175 
L 135 -74.25 
L 135 27.675 
L 135 129.6 
L 135 231.525 
L 135 333.45 
L 135 435.375 
L 135 537.3 
L 135 639.225 
L 135 741.15 
L 135 843.075 
L 135 945 
z
" style="fill:#481d6f;"/>
   </g>
   <g id="PathCollection_2">
    <path clip-path="url(#p6dd84e2441)" d="M 152.621053 908.245874 
L 159.669474 910.441939 
L 173.766316 912.602335 
L 194.911579 914.567998 
L 223.105263 914.352815 
L 268.92 914.486025 
L 335.88 915.242651 
L 434.557895 915.562625 
L 582.574737 916.969755 
L 804.6 917.572493 
L 804.6 888.430767 
L 582.574737 887.18762 
L 434.557895 884.285414 
L 335.88 883.625467 
L 268.92 882.064927 
L 223.105263 881.79018 
L 194.911579 882.233996 
L 173.766316 878.179817 
L 159.669474 873.723998 
L 152.621053 869.194615 
L 148.105427 843.075 
L 145.380963 741.15 
L 143.84986 639.225 
L 142.755004 537.3 
L 142.039703 435.375 
L 141.738561 333.45 
L 141.510934 231.525 
L 141.357337 129.6 
L 141.235974 27.675 
L 141.138633 -74.25 
L 141.055978 -176.175 
L 140.978595 -278.1 
L 140.913328 -380.025 
L 140.879509 -481.95 
L 140.85395 -583.875 
L 140.829401 -685.8 
L 140.814947 -787.725 
L 137.819368 -787.725 
L 137.826376 -685.8 
L 137.838279 -583.875 
L 137.850671 -481.95 
L 137.867068 -380.025 
L 137.898713 -278.1 
L 137.936232 -176.175 
L 137.976307 -74.25 
L 138.023503 27.675 
L 138.082345 129.6 
L 138.156816 231.525 
L 138.267181 333.45 
L 138.413189 435.375 
L 138.760002 537.3 
L 139.290841 639.225 
L 140.033194 741.15 
L 141.354147 843.075 
z
" style="fill:#3c508b;"/>
   </g>
   <g id="PathCollection_3">
    <path clip-path="url(#p6dd84e2441)" d="M 152.621053 869.194615 
L 159.669474 873.723998 
L 173.766316 878.179817 
L 194.911579 882.233996 
L 223.105263 881.79018 
L 268.92 882.064927 
L 335.88 883.625467 
L 434.557895 884.285414 
L 582.574737 887.18762 
L 804.6 888.430767 
L 804.6 859.289041 
L 582.574737 857.405484 
L 434.557895 853.008204 
L 335.88 852.008283 
L 268.92 849.643829 
L 223.105263 849.227545 
L 194.911579 849.899993 
L 173.766316 843.757298 
L 172.256822 843.075 
L 159.669474 817.024698 
L 152.621053 793.801851 
L 150.728732 741.15 
L 148.408879 639.225 
L 146.750006 537.3 
L 145.666217 435.375 
L 145.209941 333.45 
L 144.865051 231.525 
L 144.632329 129.6 
L 144.448446 27.675 
L 144.300959 -74.25 
L 144.175725 -176.175 
L 144.058478 -278.1 
L 143.959588 -380.025 
L 143.908347 -481.95 
L 143.869621 -583.875 
L 143.832426 -685.8 
L 143.810526 -787.725 
L 140.814947 -787.725 
L 140.829401 -685.8 
L 140.85395 -583.875 
L 140.879509 -481.95 
L 140.913328 -380.025 
L 140.978595 -278.1 
L 141.055978 -176.175 
L 141.138633 -74.25 
L 141.235974 27.675 
L 141.357337 129.6 
L 141.510934 231.525 
L 141.738561 333.45 
L 142.039703 435.375 
L 142.755004 537.3 
L 143.84986 639.225 
L 145.380963 741.15 
L 148.105427 843.075 
z
" style="fill:#287c8e;"/>
   </g>
   <g id="PathCollection_4">
    <path clip-path="url(#p6dd84e2441)" d="M 173.766316 843.757298 
L 194.911579 849.899993 
L 223.105263 849.227545 
L 268.92 849.643829 
L 335.88 852.008283 
L 434.557895 853.008204 
L 582.574737 857.405484 
L 804.6 859.289041 
L 804.6 843.075 
L 804.6 804.409427 
L 582.574737 797.456267 
L 434.557895 788.990206 
L 335.88 785.323851 
L 268.92 776.44465 
L 223.105263 770.532502 
L 194.911579 754.51676 
L 183.326891 741.15 
L 173.766316 726.206024 
L 159.669474 661.524961 
L 153.453987 639.225 
L 152.621053 636.001936 
L 150.510008 537.3 
L 149.079406 435.375 
L 148.477122 333.45 
L 148.021868 231.525 
L 147.714674 129.6 
L 147.471948 27.675 
L 147.277266 -74.25 
L 147.111957 -176.175 
L 146.95719 -278.1 
L 146.826657 -380.025 
L 146.759018 -481.95 
L 146.7079 -583.875 
L 146.658802 -685.8 
L 146.629895 -787.725 
L 143.810526 -787.725 
L 143.832426 -685.8 
L 143.869621 -583.875 
L 143.908347 -481.95 
L 143.959588 -380.025 
L 144.058478 -278.1 
L 144.175725 -176.175 
L 144.300959 -74.25 
L 144.448446 27.675 
L 144.632329 129.6 
L 144.865051 231.525 
L 145.209941 333.45 
L 145.666217 435.375 
L 146.750006 537.3 
L 148.408879 639.225 
L 150.728732 741.15 
L 152.621053 793.801851 
L 159.669474 817.024698 
L 172.256822 843.075 
z
" style="fill:#20a386;"/>
   </g>
   <g id="PathCollection_5">
    <path clip-path="url(#p6dd84e2441)" d="M 194.911579 754.51676 
L 223.105263 770.532502 
L 268.92 776.44465 
L 335.88 785.323851 
L 434.557895 788.990206 
L 582.574737 797.456267 
L 804.6 804.409427 
L 804.6 741.15 
L 804.6 691.084101 
L 582.574737 682.195304 
L 434.557895 678.104089 
L 335.88 667.673437 
L 268.92 651.840355 
L 238.734056 639.225 
L 223.105263 626.012379 
L 194.911579 568.143725 
L 180.496553 537.3 
L 173.766316 518.96247 
L 160.192377 435.375 
L 159.669474 430.522682 
L 152.621053 424.390404 
L 151.948502 333.45 
L 151.375985 231.525 
L 150.989666 129.6 
L 150.68442 27.675 
L 150.439592 -74.25 
L 150.231703 -176.175 
L 150.037073 -278.1 
L 149.872917 -380.025 
L 149.787855 -481.95 
L 149.723571 -583.875 
L 149.661827 -685.8 
L 149.625474 -787.725 
L 146.629895 -787.725 
L 146.658802 -685.8 
L 146.7079 -583.875 
L 146.759018 -481.95 
L 146.826657 -380.025 
L 146.95719 -278.1 
L 147.111957 -176.175 
L 147.277266 -74.25 
L 147.471948 27.675 
L 147.714674 129.6 
L 148.021868 231.525 
L 148.477122 333.45 
L 149.079406 435.375 
L 150.510008 537.3 
L 152.621053 636.001936 
L 153.453987 639.225 
L 159.669474 661.524961 
L 173.766316 726.206024 
L 183.326891 741.15 
z
" style="fill:#5ac864;"/>
   </g>
   <g id="PathCollection_6">
    <path clip-path="url(#p6dd84e2441)" d="M 268.92 651.840355 
L 335.88 667.673437 
L 434.557895 678.104089 
L 582.574737 682.195304 
L 804.6 691.084101 
L 804.6 639.225 
L 804.6 537.3 
L 804.6 435.375 
L 804.6 333.45 
L 804.6 231.525 
L 804.6 129.6 
L 804.6 27.675 
L 804.6 -74.25 
L 804.6 -176.175 
L 804.6 -278.1 
L 804.6 -380.025 
L 804.6 -481.95 
L 804.6 -583.875 
L 804.6 -685.8 
L 804.6 -787.725 
L 582.574737 -787.725 
L 434.557895 -787.725 
L 335.88 -787.725 
L 268.92 -787.725 
L 223.105263 -787.725 
L 194.911579 -787.725 
L 173.766316 -787.725 
L 159.669474 -787.725 
L 152.621053 -787.725 
L 149.625474 -787.725 
L 149.661827 -685.8 
L 149.723571 -583.875 
L 149.787855 -481.95 
L 149.872917 -380.025 
L 150.037073 -278.1 
L 150.231703 -176.175 
L 150.439592 -74.25 
L 150.68442 27.675 
L 150.989666 129.6 
L 151.375985 231.525 
L 151.948502 333.45 
L 152.621053 424.390404 
L 159.669474 430.522682 
L 160.192377 435.375 
L 173.766316 518.96247 
L 180.496553 537.3 
L 194.911579 568.143725 
L 223.105263 626.012379 
L 238.734056 639.225 
z
" style="fill:#c8e020;"/>
   </g>
   <g id="matplotlib.axis_1">
    <g id="xtick_1">
     <g id="line2d_1">
      <defs>
       <path d="M 0 0 
L 0 3.5 
" id="mcf68bad19b" style="stroke:#000000;stroke-width:0.8;"/>
      </defs>
      <g>
       <use style="stroke:#000000;stroke-width:0.8;" x="135" xlink:href="#mcf68bad19b" y="945"/>
      </g>
     </g>
     <g id="text_1">
      <!-- 0 -->
      <g transform="translate(131.81875 959.598438)scale(0.1 -0.1)">
       <defs>
        <path d="M 31.78125 66.40625 
Q 24.171875 66.40625 20.328125 58.90625 
Q 16.5 51.421875 16.5 36.375 
Q 16.5 21.390625 20.328125 13.890625 
Q 24.171875 6.390625 31.78125 6.390625 
Q 39.453125 6.390625 43.28125 13.890625 
Q 47.125 21.390625 47.125 36.375 
Q 47.125 51.421875 43.28125 58.90625 
Q 39.453125 66.40625 31.78125 66.40625 
z
M 31.78125 74.21875 
Q 44.046875 74.21875 50.515625 64.515625 
Q 56.984375 54.828125 56.984375 36.375 
Q 56.984375 17.96875 50.515625 8.265625 
Q 44.046875 -1.421875 31.78125 -1.421875 
Q 19.53125 -1.421875 13.0625 8.265625 
Q 6.59375 17.96875 6.59375 36.375 
Q 6.59375 54.828125 13.0625 64.515625 
Q 19.53125 74.21875 31.78125 74.21875 
z
" id="DejaVuSans-48"/>
       </defs>
       <use xlink:href="#DejaVuSans-48"/>
      </g>
     </g>
    </g>
    <g id="xtick_2">
     <g id="line2d_2">
      <g>
       <use style="stroke:#000000;stroke-width:0.8;" x="223.105263" xlink:href="#mcf68bad19b" y="945"/>
      </g>
     </g>
     <g id="text_2">
      <!-- 25 -->
      <g transform="translate(216.742763 959.598438)scale(0.1 -0.1)">
       <defs>
        <path d="M 19.1875 8.296875 
L 53.609375 8.296875 
L 53.609375 0 
L 7.328125 0 
L 7.328125 8.296875 
Q 12.9375 14.109375 22.625 23.890625 
Q 32.328125 33.6875 34.8125 36.53125 
Q 39.546875 41.84375 41.421875 45.53125 
Q 43.3125 49.21875 43.3125 52.78125 
Q 43.3125 58.59375 39.234375 62.25 
Q 35.15625 65.921875 28.609375 65.921875 
Q 23.96875 65.921875 18.8125 64.3125 
Q 13.671875 62.703125 7.8125 59.421875 
L 7.8125 69.390625 
Q 13.765625 71.78125 18.9375 73 
Q 24.125 74.21875 28.421875 74.21875 
Q 39.75 74.21875 46.484375 68.546875 
Q 53.21875 62.890625 53.21875 53.421875 
Q 53.21875 48.921875 51.53125 44.890625 
Q 49.859375 40.875 45.40625 35.40625 
Q 44.1875 33.984375 37.640625 27.21875 
Q 31.109375 20.453125 19.1875 8.296875 
z
" id="DejaVuSans-50"/>
        <path d="M 10.796875 72.90625 
L 49.515625 72.90625 
L 49.515625 64.59375 
L 19.828125 64.59375 
L 19.828125 46.734375 
Q 21.96875 47.46875 24.109375 47.828125 
Q 26.265625 48.1875 28.421875 48.1875 
Q 40.625 48.1875 47.75 41.5 
Q 54.890625 34.8125 54.890625 23.390625 
Q 54.890625 11.625 47.5625 5.09375 
Q 40.234375 -1.421875 26.90625 -1.421875 
Q 22.3125 -1.421875 17.546875 -0.640625 
Q 12.796875 0.140625 7.71875 1.703125 
L 7.71875 11.625 
Q 12.109375 9.234375 16.796875 8.0625 
Q 21.484375 6.890625 26.703125 6.890625 
Q 35.15625 6.890625 40.078125 11.328125 
Q 45.015625 15.765625 45.015625 23.390625 
Q 45.015625 31 40.078125 35.4375 
Q 35.15625 39.890625 26.703125 39.890625 
Q 22.75 39.890625 18.8125 39.015625 
Q 14.890625 38.140625 10.796875 36.28125 
z
" id="DejaVuSans-53"/>
       </defs>
       <use xlink:href="#DejaVuSans-50"/>
       <use x="63.623047" xlink:href="#DejaVuSans-53"/>
      </g>
     </g>
    </g>
    <g id="xtick_3">
     <g id="line2d_3">
      <g>
       <use style="stroke:#000000;stroke-width:0.8;" x="311.210526" xlink:href="#mcf68bad19b" y="945"/>
      </g>
     </g>
     <g id="text_3">
      <!-- 50 -->
      <g transform="translate(304.848026 959.598438)scale(0.1 -0.1)">
       <use xlink:href="#DejaVuSans-53"/>
       <use x="63.623047" xlink:href="#DejaVuSans-48"/>
      </g>
     </g>
    </g>
    <g id="xtick_4">
     <g id="line2d_4">
      <g>
       <use style="stroke:#000000;stroke-width:0.8;" x="399.315789" xlink:href="#mcf68bad19b" y="945"/>
      </g>
     </g>
     <g id="text_4">
      <!-- 75 -->
      <g transform="translate(392.953289 959.598438)scale(0.1 -0.1)">
       <defs>
        <path d="M 8.203125 72.90625 
L 55.078125 72.90625 
L 55.078125 68.703125 
L 28.609375 0 
L 18.3125 0 
L 43.21875 64.59375 
L 8.203125 64.59375 
z
" id="DejaVuSans-55"/>
       </defs>
       <use xlink:href="#DejaVuSans-55"/>
       <use x="63.623047" xlink:href="#DejaVuSans-53"/>
      </g>
     </g>
    </g>
    <g id="xtick_5">
     <g id="line2d_5">
      <g>
       <use style="stroke:#000000;stroke-width:0.8;" x="487.421053" xlink:href="#mcf68bad19b" y="945"/>
      </g>
     </g>
     <g id="text_5">
      <!-- 100 -->
      <g transform="translate(477.877303 959.598438)scale(0.1 -0.1)">
       <defs>
        <path d="M 12.40625 8.296875 
L 28.515625 8.296875 
L 28.515625 63.921875 
L 10.984375 60.40625 
L 10.984375 69.390625 
L 28.421875 72.90625 
L 38.28125 72.90625 
L 38.28125 8.296875 
L 54.390625 8.296875 
L 54.390625 0 
L 12.40625 0 
z
" id="DejaVuSans-49"/>
       </defs>
       <use xlink:href="#DejaVuSans-49"/>
       <use x="63.623047" xlink:href="#DejaVuSans-48"/>
       <use x="127.246094" xlink:href="#DejaVuSans-48"/>
      </g>
     </g>
    </g>
    <g id="xtick_6">
     <g id="line2d_6">
      <g>
       <use style="stroke:#000000;stroke-width:0.8;" x="575.526316" xlink:href="#mcf68bad19b" y="945"/>
      </g>
     </g>
     <g id="text_6">
      <!-- 125 -->
      <g transform="translate(565.982566 959.598438)scale(0.1 -0.1)">
       <use xlink:href="#DejaVuSans-49"/>
       <use x="63.623047" xlink:href="#DejaVuSans-50"/>
       <use x="127.246094" xlink:href="#DejaVuSans-53"/>
      </g>
     </g>
    </g>
    <g id="xtick_7">
     <g id="line2d_7">
      <g>
       <use style="stroke:#000000;stroke-width:0.8;" x="663.631579" xlink:href="#mcf68bad19b" y="945"/>
      </g>
     </g>
     <g id="text_7">
      <!-- 150 -->
      <g transform="translate(654.087829 959.598438)scale(0.1 -0.1)">
       <use xlink:href="#DejaVuSans-49"/>
       <use x="63.623047" xlink:href="#DejaVuSans-53"/>
       <use x="127.246094" xlink:href="#DejaVuSans-48"/>
      </g>
     </g>
    </g>
    <g id="xtick_8">
     <g id="line2d_8">
      <g>
       <use style="stroke:#000000;stroke-width:0.8;" x="751.736842" xlink:href="#mcf68bad19b" y="945"/>
      </g>
     </g>
     <g id="text_8">
      <!-- 175 -->
      <g transform="translate(742.193092 959.598438)scale(0.1 -0.1)">
       <use xlink:href="#DejaVuSans-49"/>
       <use x="63.623047" xlink:href="#DejaVuSans-55"/>
       <use x="127.246094" xlink:href="#DejaVuSans-53"/>
      </g>
     </g>
    </g>
    <g id="text_9">
     <!-- radius in micrometers -->
     <g transform="translate(414.953125 973.276562)scale(0.1 -0.1)">
      <defs>
       <path d="M 41.109375 46.296875 
Q 39.59375 47.171875 37.8125 47.578125 
Q 36.03125 48 33.890625 48 
Q 26.265625 48 22.1875 43.046875 
Q 18.109375 38.09375 18.109375 28.8125 
L 18.109375 0 
L 9.078125 0 
L 9.078125 54.6875 
L 18.109375 54.6875 
L 18.109375 46.1875 
Q 20.953125 51.171875 25.484375 53.578125 
Q 30.03125 56 36.53125 56 
Q 37.453125 56 38.578125 55.875 
Q 39.703125 55.765625 41.0625 55.515625 
z
" id="DejaVuSans-114"/>
       <path d="M 34.28125 27.484375 
Q 23.390625 27.484375 19.1875 25 
Q 14.984375 22.515625 14.984375 16.5 
Q 14.984375 11.71875 18.140625 8.90625 
Q 21.296875 6.109375 26.703125 6.109375 
Q 34.1875 6.109375 38.703125 11.40625 
Q 43.21875 16.703125 43.21875 25.484375 
L 43.21875 27.484375 
z
M 52.203125 31.203125 
L 52.203125 0 
L 43.21875 0 
L 43.21875 8.296875 
Q 40.140625 3.328125 35.546875 0.953125 
Q 30.953125 -1.421875 24.3125 -1.421875 
Q 15.921875 -1.421875 10.953125 3.296875 
Q 6 8.015625 6 15.921875 
Q 6 25.140625 12.171875 29.828125 
Q 18.359375 34.515625 30.609375 34.515625 
L 43.21875 34.515625 
L 43.21875 35.40625 
Q 43.21875 41.609375 39.140625 45 
Q 35.0625 48.390625 27.6875 48.390625 
Q 23 48.390625 18.546875 47.265625 
Q 14.109375 46.140625 10.015625 43.890625 
L 10.015625 52.203125 
Q 14.9375 54.109375 19.578125 55.046875 
Q 24.21875 56 28.609375 56 
Q 40.484375 56 46.34375 49.84375 
Q 52.203125 43.703125 52.203125 31.203125 
z
" id="DejaVuSans-97"/>
       <path d="M 45.40625 46.390625 
L 45.40625 75.984375 
L 54.390625 75.984375 
L 54.390625 0 
L 45.40625 0 
L 45.40625 8.203125 
Q 42.578125 3.328125 38.25 0.953125 
Q 33.9375 -1.421875 27.875 -1.421875 
Q 17.96875 -1.421875 11.734375 6.484375 
Q 5.515625 14.40625 5.515625 27.296875 
Q 5.515625 40.1875 11.734375 48.09375 
Q 17.96875 56 27.875 56 
Q 33.9375 56 38.25 53.625 
Q 42.578125 51.265625 45.40625 46.390625 
z
M 14.796875 27.296875 
Q 14.796875 17.390625 18.875 11.75 
Q 22.953125 6.109375 30.078125 6.109375 
Q 37.203125 6.109375 41.296875 11.75 
Q 45.40625 17.390625 45.40625 27.296875 
Q 45.40625 37.203125 41.296875 42.84375 
Q 37.203125 48.484375 30.078125 48.484375 
Q 22.953125 48.484375 18.875 42.84375 
Q 14.796875 37.203125 14.796875 27.296875 
z
" id="DejaVuSans-100"/>
       <path d="M 9.421875 54.6875 
L 18.40625 54.6875 
L 18.40625 0 
L 9.421875 0 
z
M 9.421875 75.984375 
L 18.40625 75.984375 
L 18.40625 64.59375 
L 9.421875 64.59375 
z
" id="DejaVuSans-105"/>
       <path d="M 8.5 21.578125 
L 8.5 54.6875 
L 17.484375 54.6875 
L 17.484375 21.921875 
Q 17.484375 14.15625 20.5 10.265625 
Q 23.53125 6.390625 29.59375 6.390625 
Q 36.859375 6.390625 41.078125 11.03125 
Q 45.3125 15.671875 45.3125 23.6875 
L 45.3125 54.6875 
L 54.296875 54.6875 
L 54.296875 0 
L 45.3125 0 
L 45.3125 8.40625 
Q 42.046875 3.421875 37.71875 1 
Q 33.40625 -1.421875 27.6875 -1.421875 
Q 18.265625 -1.421875 13.375 4.4375 
Q 8.5 10.296875 8.5 21.578125 
z
M 31.109375 56 
z
" id="DejaVuSans-117"/>
       <path d="M 44.28125 53.078125 
L 44.28125 44.578125 
Q 40.484375 46.53125 36.375 47.5 
Q 32.28125 48.484375 27.875 48.484375 
Q 21.1875 48.484375 17.84375 46.4375 
Q 14.5 44.390625 14.5 40.28125 
Q 14.5 37.15625 16.890625 35.375 
Q 19.28125 33.59375 26.515625 31.984375 
L 29.59375 31.296875 
Q 39.15625 29.25 43.1875 25.515625 
Q 47.21875 21.78125 47.21875 15.09375 
Q 47.21875 7.46875 41.1875 3.015625 
Q 35.15625 -1.421875 24.609375 -1.421875 
Q 20.21875 -1.421875 15.453125 -0.5625 
Q 10.6875 0.296875 5.421875 2 
L 5.421875 11.28125 
Q 10.40625 8.6875 15.234375 7.390625 
Q 20.0625 6.109375 24.8125 6.109375 
Q 31.15625 6.109375 34.5625 8.28125 
Q 37.984375 10.453125 37.984375 14.40625 
Q 37.984375 18.0625 35.515625 20.015625 
Q 33.0625 21.96875 24.703125 23.78125 
L 21.578125 24.515625 
Q 13.234375 26.265625 9.515625 29.90625 
Q 5.8125 33.546875 5.8125 39.890625 
Q 5.8125 47.609375 11.28125 51.796875 
Q 16.75 56 26.8125 56 
Q 31.78125 56 36.171875 55.265625 
Q 40.578125 54.546875 44.28125 53.078125 
z
" id="DejaVuSans-115"/>
       <path id="DejaVuSans-32"/>
       <path d="M 54.890625 33.015625 
L 54.890625 0 
L 45.90625 0 
L 45.90625 32.71875 
Q 45.90625 40.484375 42.875 44.328125 
Q 39.84375 48.1875 33.796875 48.1875 
Q 26.515625 48.1875 22.3125 43.546875 
Q 18.109375 38.921875 18.109375 30.90625 
L 18.109375 0 
L 9.078125 0 
L 9.078125 54.6875 
L 18.109375 54.6875 
L 18.109375 46.1875 
Q 21.34375 51.125 25.703125 53.5625 
Q 30.078125 56 35.796875 56 
Q 45.21875 56 50.046875 50.171875 
Q 54.890625 44.34375 54.890625 33.015625 
z
" id="DejaVuSans-110"/>
       <path d="M 52 44.1875 
Q 55.375 50.25 60.0625 53.125 
Q 64.75 56 71.09375 56 
Q 79.640625 56 84.28125 50.015625 
Q 88.921875 44.046875 88.921875 33.015625 
L 88.921875 0 
L 79.890625 0 
L 79.890625 32.71875 
Q 79.890625 40.578125 77.09375 44.375 
Q 74.3125 48.1875 68.609375 48.1875 
Q 61.625 48.1875 57.5625 43.546875 
Q 53.515625 38.921875 53.515625 30.90625 
L 53.515625 0 
L 44.484375 0 
L 44.484375 32.71875 
Q 44.484375 40.625 41.703125 44.40625 
Q 38.921875 48.1875 33.109375 48.1875 
Q 26.21875 48.1875 22.15625 43.53125 
Q 18.109375 38.875 18.109375 30.90625 
L 18.109375 0 
L 9.078125 0 
L 9.078125 54.6875 
L 18.109375 54.6875 
L 18.109375 46.1875 
Q 21.1875 51.21875 25.484375 53.609375 
Q 29.78125 56 35.6875 56 
Q 41.65625 56 45.828125 52.96875 
Q 50 49.953125 52 44.1875 
z
" id="DejaVuSans-109"/>
       <path d="M 48.78125 52.59375 
L 48.78125 44.1875 
Q 44.96875 46.296875 41.140625 47.34375 
Q 37.3125 48.390625 33.40625 48.390625 
Q 24.65625 48.390625 19.8125 42.84375 
Q 14.984375 37.3125 14.984375 27.296875 
Q 14.984375 17.28125 19.8125 11.734375 
Q 24.65625 6.203125 33.40625 6.203125 
Q 37.3125 6.203125 41.140625 7.25 
Q 44.96875 8.296875 48.78125 10.40625 
L 48.78125 2.09375 
Q 45.015625 0.34375 40.984375 -0.53125 
Q 36.96875 -1.421875 32.421875 -1.421875 
Q 20.0625 -1.421875 12.78125 6.34375 
Q 5.515625 14.109375 5.515625 27.296875 
Q 5.515625 40.671875 12.859375 48.328125 
Q 20.21875 56 33.015625 56 
Q 37.15625 56 41.109375 55.140625 
Q 45.0625 54.296875 48.78125 52.59375 
z
" id="DejaVuSans-99"/>
       <path d="M 30.609375 48.390625 
Q 23.390625 48.390625 19.1875 42.75 
Q 14.984375 37.109375 14.984375 27.296875 
Q 14.984375 17.484375 19.15625 11.84375 
Q 23.34375 6.203125 30.609375 6.203125 
Q 37.796875 6.203125 41.984375 11.859375 
Q 46.1875 17.53125 46.1875 27.296875 
Q 46.1875 37.015625 41.984375 42.703125 
Q 37.796875 48.390625 30.609375 48.390625 
z
M 30.609375 56 
Q 42.328125 56 49.015625 48.375 
Q 55.71875 40.765625 55.71875 27.296875 
Q 55.71875 13.875 49.015625 6.21875 
Q 42.328125 -1.421875 30.609375 -1.421875 
Q 18.84375 -1.421875 12.171875 6.21875 
Q 5.515625 13.875 5.515625 27.296875 
Q 5.515625 40.765625 12.171875 48.375 
Q 18.84375 56 30.609375 56 
z
" id="DejaVuSans-111"/>
       <path d="M 56.203125 29.59375 
L 56.203125 25.203125 
L 14.890625 25.203125 
Q 15.484375 15.921875 20.484375 11.0625 
Q 25.484375 6.203125 34.421875 6.203125 
Q 39.59375 6.203125 44.453125 7.46875 
Q 49.3125 8.734375 54.109375 11.28125 
L 54.109375 2.78125 
Q 49.265625 0.734375 44.1875 -0.34375 
Q 39.109375 -1.421875 33.890625 -1.421875 
Q 20.796875 -1.421875 13.15625 6.1875 
Q 5.515625 13.8125 5.515625 26.8125 
Q 5.515625 40.234375 12.765625 48.109375 
Q 20.015625 56 32.328125 56 
Q 43.359375 56 49.78125 48.890625 
Q 56.203125 41.796875 56.203125 29.59375 
z
M 47.21875 32.234375 
Q 47.125 39.59375 43.09375 43.984375 
Q 39.0625 48.390625 32.421875 48.390625 
Q 24.90625 48.390625 20.390625 44.140625 
Q 15.875 39.890625 15.1875 32.171875 
z
" id="DejaVuSans-101"/>
       <path d="M 18.3125 70.21875 
L 18.3125 54.6875 
L 36.8125 54.6875 
L 36.8125 47.703125 
L 18.3125 47.703125 
L 18.3125 18.015625 
Q 18.3125 11.328125 20.140625 9.421875 
Q 21.96875 7.515625 27.59375 7.515625 
L 36.8125 7.515625 
L 36.8125 0 
L 27.59375 0 
Q 17.1875 0 13.234375 3.875 
Q 9.28125 7.765625 9.28125 18.015625 
L 9.28125 47.703125 
L 2.6875 47.703125 
L 2.6875 54.6875 
L 9.28125 54.6875 
L 9.28125 70.21875 
z
" id="DejaVuSans-116"/>
      </defs>
      <use xlink:href="#DejaVuSans-114"/>
      <use x="41.113281" xlink:href="#DejaVuSans-97"/>
      <use x="102.392578" xlink:href="#DejaVuSans-100"/>
      <use x="165.869141" xlink:href="#DejaVuSans-105"/>
      <use x="193.652344" xlink:href="#DejaVuSans-117"/>
      <use x="257.03125" xlink:href="#DejaVuSans-115"/>
      <use x="309.130859" xlink:href="#DejaVuSans-32"/>
      <use x="340.917969" xlink:href="#DejaVuSans-105"/>
      <use x="368.701172" xlink:href="#DejaVuSans-110"/>
      <use x="432.080078" xlink:href="#DejaVuSans-32"/>
      <use x="463.867188" xlink:href="#DejaVuSans-109"/>
      <use x="561.279297" xlink:href="#DejaVuSans-105"/>
      <use x="589.0625" xlink:href="#DejaVuSans-99"/>
      <use x="644.042969" xlink:href="#DejaVuSans-114"/>
      <use x="682.90625" xlink:href="#DejaVuSans-111"/>
      <use x="744.087891" xlink:href="#DejaVuSans-109"/>
      <use x="841.5" xlink:href="#DejaVuSans-101"/>
      <use x="903.023438" xlink:href="#DejaVuSans-116"/>
      <use x="942.232422" xlink:href="#DejaVuSans-101"/>
      <use x="1003.755859" xlink:href="#DejaVuSans-114"/>
      <use x="1044.869141" xlink:href="#DejaVuSans-115"/>
     </g>
    </g>
   </g>
   <g id="matplotlib.axis_2">
    <g id="ytick_1">
     <g id="line2d_9">
      <defs>
       <path d="M 0 0 
L -3.5 0 
" id="mfc7045ae71" style="stroke:#000000;stroke-width:0.8;"/>
      </defs>
      <g>
       <use style="stroke:#000000;stroke-width:0.8;" x="135" xlink:href="#mfc7045ae71" y="945"/>
      </g>
     </g>
     <g id="text_10">
      <!-- 0 -->
      <g transform="translate(121.6375 948.799219)scale(0.1 -0.1)">
       <use xlink:href="#DejaVuSans-48"/>
      </g>
     </g>
    </g>
    <g id="ytick_2">
     <g id="line2d_10">
      <g>
       <use style="stroke:#000000;stroke-width:0.8;" x="135" xlink:href="#mfc7045ae71" y="843.075"/>
      </g>
     </g>
     <g id="text_11">
      <!-- 1 -->
      <g transform="translate(121.6375 846.874219)scale(0.1 -0.1)">
       <use xlink:href="#DejaVuSans-49"/>
      </g>
     </g>
    </g>
    <g id="ytick_3">
     <g id="line2d_11">
      <g>
       <use style="stroke:#000000;stroke-width:0.8;" x="135" xlink:href="#mfc7045ae71" y="741.15"/>
      </g>
     </g>
     <g id="text_12">
      <!-- 2 -->
      <g transform="translate(121.6375 744.949219)scale(0.1 -0.1)">
       <use xlink:href="#DejaVuSans-50"/>
      </g>
     </g>
    </g>
    <g id="ytick_4">
     <g id="line2d_12">
      <g>
       <use style="stroke:#000000;stroke-width:0.8;" x="135" xlink:href="#mfc7045ae71" y="639.225"/>
      </g>
     </g>
     <g id="text_13">
      <!-- 3 -->
      <g transform="translate(121.6375 643.024219)scale(0.1 -0.1)">
       <defs>
        <path d="M 40.578125 39.3125 
Q 47.65625 37.796875 51.625 33 
Q 55.609375 28.21875 55.609375 21.1875 
Q 55.609375 10.40625 48.1875 4.484375 
Q 40.765625 -1.421875 27.09375 -1.421875 
Q 22.515625 -1.421875 17.65625 -0.515625 
Q 12.796875 0.390625 7.625 2.203125 
L 7.625 11.71875 
Q 11.71875 9.328125 16.59375 8.109375 
Q 21.484375 6.890625 26.8125 6.890625 
Q 36.078125 6.890625 40.9375 10.546875 
Q 45.796875 14.203125 45.796875 21.1875 
Q 45.796875 27.640625 41.28125 31.265625 
Q 36.765625 34.90625 28.71875 34.90625 
L 20.21875 34.90625 
L 20.21875 43.015625 
L 29.109375 43.015625 
Q 36.375 43.015625 40.234375 45.921875 
Q 44.09375 48.828125 44.09375 54.296875 
Q 44.09375 59.90625 40.109375 62.90625 
Q 36.140625 65.921875 28.71875 65.921875 
Q 24.65625 65.921875 20.015625 65.03125 
Q 15.375 64.15625 9.8125 62.3125 
L 9.8125 71.09375 
Q 15.4375 72.65625 20.34375 73.4375 
Q 25.25 74.21875 29.59375 74.21875 
Q 40.828125 74.21875 47.359375 69.109375 
Q 53.90625 64.015625 53.90625 55.328125 
Q 53.90625 49.265625 50.4375 45.09375 
Q 46.96875 40.921875 40.578125 39.3125 
z
" id="DejaVuSans-51"/>
       </defs>
       <use xlink:href="#DejaVuSans-51"/>
      </g>
     </g>
    </g>
    <g id="ytick_5">
     <g id="line2d_13">
      <g>
       <use style="stroke:#000000;stroke-width:0.8;" x="135" xlink:href="#mfc7045ae71" y="537.3"/>
      </g>
     </g>
     <g id="text_14">
      <!-- 4 -->
      <g transform="translate(121.6375 541.099219)scale(0.1 -0.1)">
       <defs>
        <path d="M 37.796875 64.3125 
L 12.890625 25.390625 
L 37.796875 25.390625 
z
M 35.203125 72.90625 
L 47.609375 72.90625 
L 47.609375 25.390625 
L 58.015625 25.390625 
L 58.015625 17.1875 
L 47.609375 17.1875 
L 47.609375 0 
L 37.796875 0 
L 37.796875 17.1875 
L 4.890625 17.1875 
L 4.890625 26.703125 
z
" id="DejaVuSans-52"/>
       </defs>
       <use xlink:href="#DejaVuSans-52"/>
      </g>
     </g>
    </g>
    <g id="ytick_6">
     <g id="line2d_14">
      <g>
       <use style="stroke:#000000;stroke-width:0.8;" x="135" xlink:href="#mfc7045ae71" y="435.375"/>
      </g>
     </g>
     <g id="text_15">
      <!-- 5 -->
      <g transform="translate(121.6375 439.174219)scale(0.1 -0.1)">
       <use xlink:href="#DejaVuSans-53"/>
      </g>
     </g>
    </g>
    <g id="ytick_7">
     <g id="line2d_15">
      <g>
       <use style="stroke:#000000;stroke-width:0.8;" x="135" xlink:href="#mfc7045ae71" y="333.45"/>
      </g>
     </g>
     <g id="text_16">
      <!-- 6 -->
      <g transform="translate(121.6375 337.249219)scale(0.1 -0.1)">
       <defs>
        <path d="M 33.015625 40.375 
Q 26.375 40.375 22.484375 35.828125 
Q 18.609375 31.296875 18.609375 23.390625 
Q 18.609375 15.53125 22.484375 10.953125 
Q 26.375 6.390625 33.015625 6.390625 
Q 39.65625 6.390625 43.53125 10.953125 
Q 47.40625 15.53125 47.40625 23.390625 
Q 47.40625 31.296875 43.53125 35.828125 
Q 39.65625 40.375 33.015625 40.375 
z
M 52.59375 71.296875 
L 52.59375 62.3125 
Q 48.875 64.0625 45.09375 64.984375 
Q 41.3125 65.921875 37.59375 65.921875 
Q 27.828125 65.921875 22.671875 59.328125 
Q 17.53125 52.734375 16.796875 39.40625 
Q 19.671875 43.65625 24.015625 45.921875 
Q 28.375 48.1875 33.59375 48.1875 
Q 44.578125 48.1875 50.953125 41.515625 
Q 57.328125 34.859375 57.328125 23.390625 
Q 57.328125 12.15625 50.6875 5.359375 
Q 44.046875 -1.421875 33.015625 -1.421875 
Q 20.359375 -1.421875 13.671875 8.265625 
Q 6.984375 17.96875 6.984375 36.375 
Q 6.984375 53.65625 15.1875 63.9375 
Q 23.390625 74.21875 37.203125 74.21875 
Q 40.921875 74.21875 44.703125 73.484375 
Q 48.484375 72.75 52.59375 71.296875 
z
" id="DejaVuSans-54"/>
       </defs>
       <use xlink:href="#DejaVuSans-54"/>
      </g>
     </g>
    </g>
    <g id="ytick_8">
     <g id="line2d_16">
      <g>
       <use style="stroke:#000000;stroke-width:0.8;" x="135" xlink:href="#mfc7045ae71" y="231.525"/>
      </g>
     </g>
     <g id="text_17">
      <!-- 7 -->
      <g transform="translate(121.6375 235.324219)scale(0.1 -0.1)">
       <use xlink:href="#DejaVuSans-55"/>
      </g>
     </g>
    </g>
    <g id="ytick_9">
     <g id="line2d_17">
      <g>
       <use style="stroke:#000000;stroke-width:0.8;" x="135" xlink:href="#mfc7045ae71" y="129.6"/>
      </g>
     </g>
     <g id="text_18">
      <!-- 8 -->
      <g transform="translate(121.6375 133.399219)scale(0.1 -0.1)">
       <defs>
        <path d="M 31.78125 34.625 
Q 24.75 34.625 20.71875 30.859375 
Q 16.703125 27.09375 16.703125 20.515625 
Q 16.703125 13.921875 20.71875 10.15625 
Q 24.75 6.390625 31.78125 6.390625 
Q 38.8125 6.390625 42.859375 10.171875 
Q 46.921875 13.96875 46.921875 20.515625 
Q 46.921875 27.09375 42.890625 30.859375 
Q 38.875 34.625 31.78125 34.625 
z
M 21.921875 38.8125 
Q 15.578125 40.375 12.03125 44.71875 
Q 8.5 49.078125 8.5 55.328125 
Q 8.5 64.0625 14.71875 69.140625 
Q 20.953125 74.21875 31.78125 74.21875 
Q 42.671875 74.21875 48.875 69.140625 
Q 55.078125 64.0625 55.078125 55.328125 
Q 55.078125 49.078125 51.53125 44.71875 
Q 48 40.375 41.703125 38.8125 
Q 48.828125 37.15625 52.796875 32.3125 
Q 56.78125 27.484375 56.78125 20.515625 
Q 56.78125 9.90625 50.3125 4.234375 
Q 43.84375 -1.421875 31.78125 -1.421875 
Q 19.734375 -1.421875 13.25 4.234375 
Q 6.78125 9.90625 6.78125 20.515625 
Q 6.78125 27.484375 10.78125 32.3125 
Q 14.796875 37.15625 21.921875 38.8125 
z
M 18.3125 54.390625 
Q 18.3125 48.734375 21.84375 45.5625 
Q 25.390625 42.390625 31.78125 42.390625 
Q 38.140625 42.390625 41.71875 45.5625 
Q 45.3125 48.734375 45.3125 54.390625 
Q 45.3125 60.0625 41.71875 63.234375 
Q 38.140625 66.40625 31.78125 66.40625 
Q 25.390625 66.40625 21.84375 63.234375 
Q 18.3125 60.0625 18.3125 54.390625 
z
" id="DejaVuSans-56"/>
       </defs>
       <use xlink:href="#DejaVuSans-56"/>
      </g>
     </g>
    </g>
    <g id="text_19">
     <!-- number of principal components -->
     <g transform="translate(115.557812 618.845312)rotate(-90)scale(0.1 -0.1)">
      <defs>
       <path d="M 48.6875 27.296875 
Q 48.6875 37.203125 44.609375 42.84375 
Q 40.53125 48.484375 33.40625 48.484375 
Q 26.265625 48.484375 22.1875 42.84375 
Q 18.109375 37.203125 18.109375 27.296875 
Q 18.109375 17.390625 22.1875 11.75 
Q 26.265625 6.109375 33.40625 6.109375 
Q 40.53125 6.109375 44.609375 11.75 
Q 48.6875 17.390625 48.6875 27.296875 
z
M 18.109375 46.390625 
Q 20.953125 51.265625 25.265625 53.625 
Q 29.59375 56 35.59375 56 
Q 45.5625 56 51.78125 48.09375 
Q 58.015625 40.1875 58.015625 27.296875 
Q 58.015625 14.40625 51.78125 6.484375 
Q 45.5625 -1.421875 35.59375 -1.421875 
Q 29.59375 -1.421875 25.265625 0.953125 
Q 20.953125 3.328125 18.109375 8.203125 
L 18.109375 0 
L 9.078125 0 
L 9.078125 75.984375 
L 18.109375 75.984375 
z
" id="DejaVuSans-98"/>
       <path d="M 37.109375 75.984375 
L 37.109375 68.5 
L 28.515625 68.5 
Q 23.6875 68.5 21.796875 66.546875 
Q 19.921875 64.59375 19.921875 59.515625 
L 19.921875 54.6875 
L 34.71875 54.6875 
L 34.71875 47.703125 
L 19.921875 47.703125 
L 19.921875 0 
L 10.890625 0 
L 10.890625 47.703125 
L 2.296875 47.703125 
L 2.296875 54.6875 
L 10.890625 54.6875 
L 10.890625 58.5 
Q 10.890625 67.625 15.140625 71.796875 
Q 19.390625 75.984375 28.609375 75.984375 
z
" id="DejaVuSans-102"/>
       <path d="M 18.109375 8.203125 
L 18.109375 -20.796875 
L 9.078125 -20.796875 
L 9.078125 54.6875 
L 18.109375 54.6875 
L 18.109375 46.390625 
Q 20.953125 51.265625 25.265625 53.625 
Q 29.59375 56 35.59375 56 
Q 45.5625 56 51.78125 48.09375 
Q 58.015625 40.1875 58.015625 27.296875 
Q 58.015625 14.40625 51.78125 6.484375 
Q 45.5625 -1.421875 35.59375 -1.421875 
Q 29.59375 -1.421875 25.265625 0.953125 
Q 20.953125 3.328125 18.109375 8.203125 
z
M 48.6875 27.296875 
Q 48.6875 37.203125 44.609375 42.84375 
Q 40.53125 48.484375 33.40625 48.484375 
Q 26.265625 48.484375 22.1875 42.84375 
Q 18.109375 37.203125 18.109375 27.296875 
Q 18.109375 17.390625 22.1875 11.75 
Q 26.265625 6.109375 33.40625 6.109375 
Q 40.53125 6.109375 44.609375 11.75 
Q 48.6875 17.390625 48.6875 27.296875 
z
" id="DejaVuSans-112"/>
       <path d="M 9.421875 75.984375 
L 18.40625 75.984375 
L 18.40625 0 
L 9.421875 0 
z
" id="DejaVuSans-108"/>
      </defs>
      <use xlink:href="#DejaVuSans-110"/>
      <use x="63.378906" xlink:href="#DejaVuSans-117"/>
      <use x="126.757812" xlink:href="#DejaVuSans-109"/>
      <use x="224.169922" xlink:href="#DejaVuSans-98"/>
      <use x="287.646484" xlink:href="#DejaVuSans-101"/>
      <use x="349.169922" xlink:href="#DejaVuSans-114"/>
      <use x="390.283203" xlink:href="#DejaVuSans-32"/>
      <use x="422.070312" xlink:href="#DejaVuSans-111"/>
      <use x="483.251953" xlink:href="#DejaVuSans-102"/>
      <use x="518.457031" xlink:href="#DejaVuSans-32"/>
      <use x="550.244141" xlink:href="#DejaVuSans-112"/>
      <use x="613.720703" xlink:href="#DejaVuSans-114"/>
      <use x="654.833984" xlink:href="#DejaVuSans-105"/>
      <use x="682.617188" xlink:href="#DejaVuSans-110"/>
      <use x="745.996094" xlink:href="#DejaVuSans-99"/>
      <use x="800.976562" xlink:href="#DejaVuSans-105"/>
      <use x="828.759766" xlink:href="#DejaVuSans-112"/>
      <use x="892.236328" xlink:href="#DejaVuSans-97"/>
      <use x="953.515625" xlink:href="#DejaVuSans-108"/>
      <use x="981.298828" xlink:href="#DejaVuSans-32"/>
      <use x="1013.085938" xlink:href="#DejaVuSans-99"/>
      <use x="1068.066406" xlink:href="#DejaVuSans-111"/>
      <use x="1129.248047" xlink:href="#DejaVuSans-109"/>
      <use x="1226.660156" xlink:href="#DejaVuSans-112"/>
      <use x="1290.136719" xlink:href="#DejaVuSans-111"/>
      <use x="1351.318359" xlink:href="#DejaVuSans-110"/>
      <use x="1414.697266" xlink:href="#DejaVuSans-101"/>
      <use x="1476.220703" xlink:href="#DejaVuSans-110"/>
      <use x="1539.599609" xlink:href="#DejaVuSans-116"/>
      <use x="1578.808594" xlink:href="#DejaVuSans-115"/>
     </g>
    </g>
   </g>
   <g id="line2d_18">
    <path clip-path="url(#p6dd84e2441)" d="M 223.105263 945 
L 223.105263 129.6 
" style="fill:none;stroke:#ff0000;stroke-dasharray:5.55,2.4;stroke-dashoffset:0;stroke-width:1.5;"/>
   </g>
   <g id="line2d_19">
    <path clip-path="url(#p6dd84e2441)" d="M 135 639.225 
L 804.6 639.225 
" style="fill:none;stroke:#ff0000;stroke-dasharray:5.55,2.4;stroke-dashoffset:0;stroke-width:1.5;"/>
   </g>
   <g id="patch_3">
    <path d="M 135 945 
L 135 129.6 
" style="fill:none;stroke:#000000;stroke-linecap:square;stroke-linejoin:miter;stroke-width:0.8;"/>
   </g>
   <g id="patch_4">
    <path d="M 804.6 945 
L 804.6 129.6 
" style="fill:none;stroke:#000000;stroke-linecap:square;stroke-linejoin:miter;stroke-width:0.8;"/>
   </g>
   <g id="patch_5">
    <path d="M 135 945 
L 804.6 945 
" style="fill:none;stroke:#000000;stroke-linecap:square;stroke-linejoin:miter;stroke-width:0.8;"/>
   </g>
   <g id="patch_6">
    <path d="M 135 129.6 
L 804.6 129.6 
" style="fill:none;stroke:#000000;stroke-linecap:square;stroke-linejoin:miter;stroke-width:0.8;"/>
   </g>
  </g>
  <g id="axes_2">
   <g id="patch_7">
    <path clip-path="url(#p082b1a6d08)" d="M 846.45 945 
L 846.45 809.1 
L 846.45 265.5 
L 846.45 129.6 
L 887.22 129.6 
L 887.22 265.5 
L 887.22 809.1 
L 887.22 945 
z
" style="fill:#ffffff;stroke:#ffffff;stroke-linejoin:miter;stroke-width:0.01;"/>
   </g>
   <g id="QuadMesh_1">
    <path clip-path="url(#p082b1a6d08)" d="M 846.45 945 
L 887.22 945 
L 887.22 809.1 
L 846.45 809.1 
L 846.45 945 
" style="fill:#481d6f;"/>
    <path clip-path="url(#p082b1a6d08)" d="M 846.45 809.1 
L 887.22 809.1 
L 887.22 673.2 
L 846.45 673.2 
L 846.45 809.1 
" style="fill:#3c508b;"/>
    <path clip-path="url(#p082b1a6d08)" d="M 846.45 673.2 
L 887.22 673.2 
L 887.22 537.3 
L 846.45 537.3 
L 846.45 673.2 
" style="fill:#287c8e;"/>
    <path clip-path="url(#p082b1a6d08)" d="M 846.45 537.3 
L 887.22 537.3 
L 887.22 401.4 
L 846.45 401.4 
L 846.45 537.3 
" style="fill:#20a386;"/>
    <path clip-path="url(#p082b1a6d08)" d="M 846.45 401.4 
L 887.22 401.4 
L 887.22 265.5 
L 846.45 265.5 
L 846.45 401.4 
" style="fill:#5ac864;"/>
    <path clip-path="url(#p082b1a6d08)" d="M 846.45 265.5 
L 887.22 265.5 
L 887.22 129.6 
L 846.45 129.6 
L 846.45 265.5 
" style="fill:#c8e020;"/>
   </g>
   <g id="matplotlib.axis_3"/>
   <g id="matplotlib.axis_4">
    <g id="ytick_10">
     <g id="line2d_20">
      <defs>
       <path d="M 0 0 
L 3.5 0 
" id="mc33c62e076" style="stroke:#000000;stroke-width:0.8;"/>
      </defs>
      <g>
       <use style="stroke:#000000;stroke-width:0.8;" x="887.22" xlink:href="#mc33c62e076" y="945"/>
      </g>
     </g>
     <g id="text_20">
      <!-- 0 -->
      <g transform="translate(894.22 948.799219)scale(0.1 -0.1)">
       <use xlink:href="#DejaVuSans-48"/>
      </g>
     </g>
    </g>
    <g id="ytick_11">
     <g id="line2d_21">
      <g>
       <use style="stroke:#000000;stroke-width:0.8;" x="887.22" xlink:href="#mc33c62e076" y="809.1"/>
      </g>
     </g>
     <g id="text_21">
      <!-- 16 -->
      <g transform="translate(894.22 812.899219)scale(0.1 -0.1)">
       <use xlink:href="#DejaVuSans-49"/>
       <use x="63.623047" xlink:href="#DejaVuSans-54"/>
      </g>
     </g>
    </g>
    <g id="ytick_12">
     <g id="line2d_22">
      <g>
       <use style="stroke:#000000;stroke-width:0.8;" x="887.22" xlink:href="#mc33c62e076" y="673.2"/>
      </g>
     </g>
     <g id="text_22">
      <!-- 33 -->
      <g transform="translate(894.22 676.999219)scale(0.1 -0.1)">
       <use xlink:href="#DejaVuSans-51"/>
       <use x="63.623047" xlink:href="#DejaVuSans-51"/>
      </g>
     </g>
    </g>
    <g id="ytick_13">
     <g id="line2d_23">
      <g>
       <use style="stroke:#000000;stroke-width:0.8;" x="887.22" xlink:href="#mc33c62e076" y="537.3"/>
      </g>
     </g>
     <g id="text_23">
      <!-- 50 -->
      <g transform="translate(894.22 541.099219)scale(0.1 -0.1)">
       <use xlink:href="#DejaVuSans-53"/>
       <use x="63.623047" xlink:href="#DejaVuSans-48"/>
      </g>
     </g>
    </g>
    <g id="ytick_14">
     <g id="line2d_24">
      <g>
       <use style="stroke:#000000;stroke-width:0.8;" x="887.22" xlink:href="#mc33c62e076" y="401.4"/>
      </g>
     </g>
     <g id="text_24">
      <!-- 66 -->
      <g transform="translate(894.22 405.199219)scale(0.1 -0.1)">
       <use xlink:href="#DejaVuSans-54"/>
       <use x="63.623047" xlink:href="#DejaVuSans-54"/>
      </g>
     </g>
    </g>
    <g id="ytick_15">
     <g id="line2d_25">
      <g>
       <use style="stroke:#000000;stroke-width:0.8;" x="887.22" xlink:href="#mc33c62e076" y="265.5"/>
      </g>
     </g>
     <g id="text_25">
      <!-- 83 -->
      <g transform="translate(894.22 269.299219)scale(0.1 -0.1)">
       <use xlink:href="#DejaVuSans-56"/>
       <use x="63.623047" xlink:href="#DejaVuSans-51"/>
      </g>
     </g>
    </g>
    <g id="ytick_16">
     <g id="line2d_26">
      <g>
       <use style="stroke:#000000;stroke-width:0.8;" x="887.22" xlink:href="#mc33c62e076" y="129.6"/>
      </g>
     </g>
     <g id="text_26">
      <!-- 100 -->
      <g transform="translate(894.22 133.399219)scale(0.1 -0.1)">
       <use xlink:href="#DejaVuSans-49"/>
       <use x="63.623047" xlink:href="#DejaVuSans-48"/>
       <use x="127.246094" xlink:href="#DejaVuSans-48"/>
      </g>
     </g>
    </g>
   </g>
   <g id="patch_8">
    <path d="M 846.45 945 
L 846.45 809.1 
L 846.45 265.5 
L 846.45 129.6 
L 887.22 129.6 
L 887.22 265.5 
L 887.22 809.1 
L 887.22 945 
z
" style="fill:none;stroke:#000000;stroke-linejoin:miter;stroke-width:0.8;"/>
   </g>
  </g>
 </g>
 <defs>
  <clipPath id="p6dd84e2441">
   <rect height="815.4" width="669.6" x="135" y="129.6"/>
  </clipPath>
  <clipPath id="p082b1a6d08">
   <rect height="815.4" width="40.77" x="846.45" y="129.6"/>
  </clipPath>
 </defs>
</svg>
