<?xml version="1.0" encoding="utf-8" standalone="no"?>
<!DOCTYPE svg PUBLIC "-//W3C//DTD SVG 1.1//EN"
  "http://www.w3.org/Graphics/SVG/1.1/DTD/svg11.dtd">
<svg xmlns:xlink="http://www.w3.org/1999/xlink" width="1080pt" height="1080pt" viewBox="0 0 1080 1080" xmlns="http://www.w3.org/2000/svg" version="1.1">
 <metadata>
  <rdf:RDF xmlns:dc="http://purl.org/dc/elements/1.1/" xmlns:cc="http://creativecommons.org/ns#" xmlns:rdf="http://www.w3.org/1999/02/22-rdf-syntax-ns#">
   <cc:Work>
    <dc:type rdf:resource="http://purl.org/dc/dcmitype/StillImage"/>
    <dc:date>2023-01-23T15:13:14.999291</dc:date>
    <dc:format>image/svg+xml</dc:format>
    <dc:creator>
     <cc:Agent>
      <dc:title>Matplotlib v3.5.3, https://matplotlib.org/</dc:title>
     </cc:Agent>
    </dc:creator>
   </cc:Work>
  </rdf:RDF>
 </metadata>
 <defs>
  <style type="text/css">*{stroke-linejoin: round; stroke-linecap: butt}</style>
 </defs>
 <g id="figure_1">
  <g id="patch_1">
   <path d="M 0 1080 
L 1080 1080 
L 1080 0 
L 0 0 
L 0 1080 
z
" style="fill: none"/>
  </g>
  <g id="axes_1">
   <g id="patch_2">
    <path d="M 135 945 
L 804.6 945 
L 804.6 129.6 
L 135 129.6 
z
" style="fill: #ffffff"/>
   </g>
   <g id="PathCollection_1">
    <path d="M 168.48 945 
L 175.176 945 
L 188.568 945 
L 201.96 945 
L 215.352 945 
L 235.44 945 
L 255.528 945 
L 282.312 945 
L 322.488 945 
L 362.664 945 
L 416.232 945 
L 489.888 945 
L 570.24 945 
L 677.376 945 
L 804.6 945 
L 804.6 922.702914 
L 677.376 920.529212 
L 570.24 918.216584 
L 489.888 915.254922 
L 416.232 911.36238 
L 362.664 907.347017 
L 322.488 903.01292 
L 282.312 902.091013 
L 255.528 900.82757 
L 235.44 898.729478 
L 215.352 896.872537 
L 201.96 893.762125 
L 188.568 889.392776 
L 175.176 886.854023 
L 168.48 888.985798 
L 153.399367 843.075 
L 146.911286 741.15 
L 144.023675 639.225 
L 142.518749 537.3 
L 141.781807 435.375 
L 141.321143 333.45 
L 141.083194 231.525 
L 140.912354 129.6 
L 140.777299 27.675 
L 140.662089 -74.25 
L 140.5666 -176.175 
L 140.495598 -278.1 
L 140.440144 -380.025 
L 140.421034 -481.95 
L 140.405032 -583.875 
L 140.392486 -685.8 
L 140.382237 -787.725 
L 140.375697 -889.65 
L 140.370504 -991.575 
L 140.366284 -1093.5 
L 140.363417 -1195.425 
L 140.360719 -1297.35 
L 140.359123 -1399.275 
L 140.358024 -1501.2 
L 140.357458 -1603.125 
L 140.357091 -1705.05 
L 140.356917 -1806.975 
L 140.3568 -1908.9 
L 140.3568 -2010.825 
L 140.3568 -2112.75 
L 140.3568 -2214.675 
L 140.3568 -2316.6 
L 140.3568 -2418.525 
L 140.3568 -2520.45 
L 135 -2520.45 
L 135 -2418.525 
L 135 -2316.6 
L 135 -2214.675 
L 135 -2112.75 
L 135 -2010.825 
L 135 -1908.9 
L 135 -1806.975 
L 135 -1705.05 
L 135 -1603.125 
L 135 -1501.2 
L 135 -1399.275 
L 135 -1297.35 
L 135 -1195.425 
L 135 -1093.5 
L 135 -991.575 
L 135 -889.65 
L 135 -787.725 
L 135 -685.8 
L 135 -583.875 
L 135 -481.95 
L 135 -380.025 
L 135 -278.1 
L 135 -176.175 
L 135 -74.25 
L 135 27.675 
L 135 129.6 
L 135 231.525 
L 135 333.45 
L 135 435.375 
L 135 537.3 
L 135 639.225 
L 135 741.15 
L 135 843.075 
L 135 945 
z
" clip-path="url(#pe45271b257)" style="fill: #481d6f"/>
   </g>
   <g id="PathCollection_2">
    <path d="M 168.48 888.985798 
L 175.176 886.854023 
L 188.568 889.392776 
L 201.96 893.762125 
L 215.352 896.872537 
L 235.44 898.729478 
L 255.528 900.82757 
L 282.312 902.091013 
L 322.488 903.01292 
L 362.664 907.347017 
L 416.232 911.36238 
L 489.888 915.254922 
L 570.24 918.216584 
L 677.376 920.529212 
L 804.6 922.702914 
L 804.6 899.01226 
L 677.376 894.528999 
L 570.24 889.759205 
L 489.888 883.650776 
L 416.232 875.622409 
L 362.664 867.340723 
L 322.488 858.401648 
L 282.312 856.500214 
L 255.528 853.894362 
L 235.44 849.567048 
L 215.352 845.737108 
L 209.590129 843.075 
L 201.96 836.377697 
L 188.568 823.726557 
L 175.176 815.033531 
L 168.48 818.099262 
L 159.567028 741.15 
L 153.611329 639.225 
L 150.507419 537.3 
L 148.987476 435.375 
L 148.037357 333.45 
L 147.546587 231.525 
L 147.194231 129.6 
L 146.91568 27.675 
L 146.678059 -74.25 
L 146.481112 -176.175 
L 146.334671 -278.1 
L 146.220297 -380.025 
L 146.180883 -481.95 
L 146.147878 -583.875 
L 146.122003 -685.8 
L 146.100864 -787.725 
L 146.087375 -889.65 
L 146.076665 -991.575 
L 146.067961 -1093.5 
L 146.062048 -1195.425 
L 146.056483 -1297.35 
L 146.05319 -1399.275 
L 146.050925 -1501.2 
L 146.049758 -1603.125 
L 146.048999 -1705.05 
L 146.048641 -1806.975 
L 146.0484 -1908.9 
L 146.0484 -2010.825 
L 146.0484 -2112.75 
L 146.0484 -2214.675 
L 146.0484 -2316.6 
L 146.0484 -2418.525 
L 146.0484 -2520.45 
L 140.3568 -2520.45 
L 140.3568 -2418.525 
L 140.3568 -2316.6 
L 140.3568 -2214.675 
L 140.3568 -2112.75 
L 140.3568 -2010.825 
L 140.3568 -1908.9 
L 140.356917 -1806.975 
L 140.357091 -1705.05 
L 140.357458 -1603.125 
L 140.358024 -1501.2 
L 140.359123 -1399.275 
L 140.360719 -1297.35 
L 140.363417 -1195.425 
L 140.366284 -1093.5 
L 140.370504 -991.575 
L 140.375697 -889.65 
L 140.382237 -787.725 
L 140.392486 -685.8 
L 140.405032 -583.875 
L 140.421034 -481.95 
L 140.440144 -380.025 
L 140.495598 -278.1 
L 140.5666 -176.175 
L 140.662089 -74.25 
L 140.777299 27.675 
L 140.912354 129.6 
L 141.083194 231.525 
L 141.321143 333.45 
L 141.781807 435.375 
L 142.518749 537.3 
L 144.023675 639.225 
L 146.911286 741.15 
L 153.399367 843.075 
z
" clip-path="url(#pe45271b257)" style="fill: #3c508b"/>
   </g>
   <g id="PathCollection_3">
    <path d="M 215.352 845.737108 
L 235.44 849.567048 
L 255.528 853.894362 
L 282.312 856.500214 
L 322.488 858.401648 
L 362.664 867.340723 
L 416.232 875.622409 
L 489.888 883.650776 
L 570.24 889.759205 
L 677.376 894.528999 
L 804.6 899.01226 
L 804.6 875.321606 
L 677.376 868.528787 
L 570.24 861.301825 
L 489.888 852.04663 
L 433.861848 843.075 
L 416.232 837.014068 
L 362.664 819.511375 
L 322.488 805.290544 
L 282.312 798.974497 
L 255.528 790.778973 
L 235.44 776.036894 
L 215.352 763.499147 
L 202.884991 741.15 
L 201.96 739.027074 
L 188.568 733.05674 
L 175.176 715.419745 
L 168.48 705.543196 
L 163.198983 639.225 
L 158.49609 537.3 
L 156.193146 435.375 
L 154.753572 333.45 
L 154.00998 231.525 
L 153.476107 129.6 
L 153.05406 27.675 
L 152.694028 -74.25 
L 152.395625 -176.175 
L 152.173744 -278.1 
L 152.00045 -380.025 
L 151.940731 -481.95 
L 151.890725 -583.875 
L 151.85152 -685.8 
L 151.81949 -787.725 
L 151.799053 -889.65 
L 151.782826 -991.575 
L 151.769637 -1093.5 
L 151.760679 -1195.425 
L 151.752247 -1297.35 
L 151.747258 -1399.275 
L 151.743826 -1501.2 
L 151.742057 -1603.125 
L 151.740908 -1705.05 
L 151.740365 -1806.975 
L 151.74 -1908.9 
L 151.74 -2010.825 
L 151.74 -2112.75 
L 151.74 -2214.675 
L 151.74 -2316.6 
L 151.74 -2418.525 
L 151.74 -2520.45 
L 146.0484 -2520.45 
L 146.0484 -2418.525 
L 146.0484 -2316.6 
L 146.0484 -2214.675 
L 146.0484 -2112.75 
L 146.0484 -2010.825 
L 146.0484 -1908.9 
L 146.048641 -1806.975 
L 146.048999 -1705.05 
L 146.049758 -1603.125 
L 146.050925 -1501.2 
L 146.05319 -1399.275 
L 146.056483 -1297.35 
L 146.062048 -1195.425 
L 146.067961 -1093.5 
L 146.076665 -991.575 
L 146.087375 -889.65 
L 146.100864 -787.725 
L 146.122003 -685.8 
L 146.147878 -583.875 
L 146.180883 -481.95 
L 146.220297 -380.025 
L 146.334671 -278.1 
L 146.481112 -176.175 
L 146.678059 -74.25 
L 146.91568 27.675 
L 147.194231 129.6 
L 147.546587 231.525 
L 148.037357 333.45 
L 148.987476 435.375 
L 150.507419 537.3 
L 153.611329 639.225 
L 159.567028 741.15 
L 168.48 818.099262 
L 175.176 815.033531 
L 188.568 823.726557 
L 201.96 836.377697 
L 209.590129 843.075 
z
" clip-path="url(#pe45271b257)" style="fill: #287c8e"/>
   </g>
   <g id="PathCollection_4">
    <path d="M 489.888 852.04663 
L 570.24 861.301825 
L 677.376 868.528787 
L 804.6 875.321606 
L 804.6 853.024519 
L 677.376 844.057999 
L 665.409481 843.075 
L 570.24 814.202151 
L 489.888 789.749499 
L 416.232 773.154588 
L 362.664 763.144887 
L 322.488 751.116757 
L 285.727747 741.15 
L 282.312 738.641037 
L 255.528 710.834594 
L 235.44 678.589679 
L 215.352 659.869988 
L 202.873621 639.225 
L 201.96 637.275034 
L 188.568 633.658902 
L 175.176 601.50674 
L 168.48 582.29963 
L 166.014839 537.3 
L 162.974952 435.375 
L 161.074715 333.45 
L 160.093174 231.525 
L 159.388462 129.6 
L 158.831359 27.675 
L 158.356117 -74.25 
L 157.962225 -176.175 
L 157.669342 -278.1 
L 157.440594 -380.025 
L 157.361765 -481.95 
L 157.295757 -583.875 
L 157.244007 -685.8 
L 157.201727 -787.725 
L 157.174749 -889.65 
L 157.15333 -991.575 
L 157.135921 -1093.5 
L 157.124097 -1195.425 
L 157.112967 -1297.35 
L 157.10638 -1399.275 
L 157.10185 -1501.2 
L 157.099516 -1603.125 
L 157.097998 -1705.05 
L 157.097282 -1806.975 
L 157.0968 -1908.9 
L 157.0968 -2010.825 
L 157.0968 -2112.75 
L 157.0968 -2214.675 
L 157.0968 -2316.6 
L 157.0968 -2418.525 
L 157.0968 -2520.45 
L 151.74 -2520.45 
L 151.74 -2418.525 
L 151.74 -2316.6 
L 151.74 -2214.675 
L 151.74 -2112.75 
L 151.74 -2010.825 
L 151.74 -1908.9 
L 151.740365 -1806.975 
L 151.740908 -1705.05 
L 151.742057 -1603.125 
L 151.743826 -1501.2 
L 151.747258 -1399.275 
L 151.752247 -1297.35 
L 151.760679 -1195.425 
L 151.769637 -1093.5 
L 151.782826 -991.575 
L 151.799053 -889.65 
L 151.81949 -787.725 
L 151.85152 -685.8 
L 151.890725 -583.875 
L 151.940731 -481.95 
L 152.00045 -380.025 
L 152.173744 -278.1 
L 152.395625 -176.175 
L 152.694028 -74.25 
L 153.05406 27.675 
L 153.476107 129.6 
L 154.00998 231.525 
L 154.753572 333.45 
L 156.193146 435.375 
L 158.49609 537.3 
L 163.198983 639.225 
L 168.48 705.543196 
L 175.176 715.419745 
L 188.568 733.05674 
L 201.96 739.027074 
L 202.884991 741.15 
L 215.352 763.499147 
L 235.44 776.036894 
L 255.528 790.778973 
L 282.312 798.974497 
L 322.488 805.290544 
L 362.664 819.511375 
L 416.232 837.014068 
L 433.861848 843.075 
z
" clip-path="url(#pe45271b257)" style="fill: #20a386"/>
   </g>
   <g id="PathCollection_5">
    <path d="M 677.376 844.057999 
L 804.6 853.024519 
L 804.6 843.075 
L 804.6 755.790346 
L 731.033364 741.15 
L 677.376 720.164308 
L 570.24 681.05071 
L 489.888 648.540899 
L 460.30683 639.225 
L 416.232 623.095429 
L 362.664 609.151188 
L 322.488 582.192665 
L 282.312 568.420357 
L 255.528 551.884426 
L 244.655235 537.3 
L 235.44 508.819402 
L 215.352 474.086473 
L 201.96 436.186176 
L 188.568 439.218506 
L 186.990624 435.375 
L 175.176 401.142876 
L 168.48 364.333068 
L 167.790929 333.45 
L 166.556567 231.525 
L 165.670338 129.6 
L 164.96974 27.675 
L 164.372087 -74.25 
L 163.876737 -176.175 
L 163.508415 -278.1 
L 163.220747 -380.025 
L 163.121614 -481.95 
L 163.038603 -583.875 
L 162.973524 -685.8 
L 162.920354 -787.725 
L 162.886427 -889.65 
L 162.859491 -991.575 
L 162.837598 -1093.5 
L 162.822728 -1195.425 
L 162.808731 -1297.35 
L 162.800448 -1399.275 
L 162.79475 -1501.2 
L 162.791815 -1603.125 
L 162.789907 -1705.05 
L 162.789006 -1806.975 
L 162.7884 -1908.9 
L 162.7884 -2010.825 
L 162.7884 -2112.75 
L 162.7884 -2214.675 
L 162.7884 -2316.6 
L 162.7884 -2418.525 
L 162.7884 -2520.45 
L 157.0968 -2520.45 
L 157.0968 -2418.525 
L 157.0968 -2316.6 
L 157.0968 -2214.675 
L 157.0968 -2112.75 
L 157.0968 -2010.825 
L 157.0968 -1908.9 
L 157.097282 -1806.975 
L 157.097998 -1705.05 
L 157.099516 -1603.125 
L 157.10185 -1501.2 
L 157.10638 -1399.275 
L 157.112967 -1297.35 
L 157.124097 -1195.425 
L 157.135921 -1093.5 
L 157.15333 -991.575 
L 157.174749 -889.65 
L 157.201727 -787.725 
L 157.244007 -685.8 
L 157.295757 -583.875 
L 157.361765 -481.95 
L 157.440594 -380.025 
L 157.669342 -278.1 
L 157.962225 -176.175 
L 158.356117 -74.25 
L 158.831359 27.675 
L 159.388462 129.6 
L 160.093174 231.525 
L 161.074715 333.45 
L 162.974952 435.375 
L 166.014839 537.3 
L 168.48 582.29963 
L 175.176 601.50674 
L 188.568 633.658902 
L 201.96 637.275034 
L 202.873621 639.225 
L 215.352 659.869988 
L 235.44 678.589679 
L 255.528 710.834594 
L 282.312 738.641037 
L 285.727747 741.15 
L 322.488 751.116757 
L 362.664 763.144887 
L 416.232 773.154588 
L 489.888 789.749499 
L 570.24 814.202151 
L 665.409481 843.075 
z
" clip-path="url(#pe45271b257)" style="fill: #5ac864"/>
   </g>
   <g id="PathCollection_6">
    <path d="M 804.6 755.790346 
L 804.6 741.15 
L 804.6 639.225 
L 804.6 537.3 
L 804.6 435.375 
L 804.6 333.45 
L 804.6 231.525 
L 804.6 129.6 
L 804.6 27.675 
L 804.6 -74.25 
L 804.6 -176.175 
L 804.6 -278.1 
L 804.6 -380.025 
L 804.6 -481.95 
L 804.6 -583.875 
L 804.6 -685.8 
L 804.6 -787.725 
L 804.6 -889.65 
L 804.6 -991.575 
L 804.6 -1093.5 
L 804.6 -1195.425 
L 804.6 -1297.35 
L 804.6 -1399.275 
L 804.6 -1501.2 
L 804.6 -1603.125 
L 804.6 -1705.05 
L 804.6 -1806.975 
L 804.6 -1908.9 
L 804.6 -2010.825 
L 804.6 -2112.75 
L 804.6 -2214.675 
L 804.6 -2316.6 
L 804.6 -2418.525 
L 804.6 -2520.45 
L 677.376 -2520.45 
L 677.376 -2418.525 
L 570.24 -2418.525 
L 489.888 -2418.525 
L 489.888 -2520.45 
L 489.888 -2418.525 
L 416.232 -2418.525 
L 362.664 -2418.525 
L 322.488 -2418.525 
L 282.312 -2418.525 
L 282.312 -2520.45 
L 255.528 -2520.45 
L 235.44 -2520.45 
L 228.744 -2520.45 
L 228.744 -2418.525 
L 215.352 -2316.6 
L 215.352 -2316.6 
L 201.96 -2316.6 
L 201.96 -2418.525 
L 201.96 -2520.45 
L 201.96 -2418.525 
L 201.96 -2316.6 
L 188.568 -2214.675 
L 188.568 -2112.75 
L 188.568 -2010.825 
L 188.568 -2010.825 
L 179.64 -2010.825 
L 179.64 -2112.75 
L 179.64 -2214.675 
L 179.64 -2316.6 
L 179.64 -2418.525 
L 179.64 -2520.45 
L 175.176 -2520.45 
L 168.48 -2520.45 
L 162.7884 -2520.45 
L 162.7884 -2418.525 
L 162.7884 -2316.6 
L 162.7884 -2214.675 
L 162.7884 -2112.75 
L 162.7884 -2010.825 
L 162.7884 -1908.9 
L 162.789006 -1806.975 
L 162.789907 -1705.05 
L 162.791815 -1603.125 
L 162.79475 -1501.2 
L 162.800448 -1399.275 
L 162.808731 -1297.35 
L 162.822728 -1195.425 
L 162.837598 -1093.5 
L 162.859491 -991.575 
L 162.886427 -889.65 
L 162.920354 -787.725 
L 162.973524 -685.8 
L 163.038603 -583.875 
L 163.121614 -481.95 
L 163.220747 -380.025 
L 163.508415 -278.1 
L 163.876737 -176.175 
L 164.372087 -74.25 
L 164.96974 27.675 
L 165.670338 129.6 
L 166.556567 231.525 
L 167.790929 333.45 
L 168.48 364.333068 
L 175.176 401.142876 
L 186.990624 435.375 
L 188.568 439.218506 
L 201.96 436.186176 
L 215.352 474.086473 
L 235.44 508.819402 
L 244.655235 537.3 
L 255.528 551.884426 
L 282.312 568.420357 
L 322.488 582.192665 
L 362.664 609.151188 
L 416.232 623.095429 
L 460.30683 639.225 
L 489.888 648.540899 
L 570.24 681.05071 
L 677.376 720.164308 
L 731.033364 741.15 
z
" clip-path="url(#pe45271b257)" style="fill: #c8e020"/>
   </g>
   <g id="matplotlib.axis_1">
    <g id="xtick_1">
     <g id="line2d_1">
      <defs>
       <path id="me538a8d6cb" d="M 0 0 
L 0 3.5 
" style="stroke: #000000; stroke-width: 0.8"/>
      </defs>
      <g>
       <use xlink:href="#me538a8d6cb" x="135" y="945" style="stroke: #000000; stroke-width: 0.8"/>
      </g>
     </g>
     <g id="text_1">
      <!-- 0 -->
      <g transform="translate(131.81875 959.598438)scale(0.1 -0.1)">
       <defs>
        <path id="DejaVuSans-30" d="M 2034 4250 
Q 1547 4250 1301 3770 
Q 1056 3291 1056 2328 
Q 1056 1369 1301 889 
Q 1547 409 2034 409 
Q 2525 409 2770 889 
Q 3016 1369 3016 2328 
Q 3016 3291 2770 3770 
Q 2525 4250 2034 4250 
z
M 2034 4750 
Q 2819 4750 3233 4129 
Q 3647 3509 3647 2328 
Q 3647 1150 3233 529 
Q 2819 -91 2034 -91 
Q 1250 -91 836 529 
Q 422 1150 422 2328 
Q 422 3509 836 4129 
Q 1250 4750 2034 4750 
z
" transform="scale(0.015625)"/>
       </defs>
       <use xlink:href="#DejaVuSans-30"/>
      </g>
     </g>
    </g>
    <g id="xtick_2">
     <g id="line2d_2">
      <g>
       <use xlink:href="#me538a8d6cb" x="268.92" y="945" style="stroke: #000000; stroke-width: 0.8"/>
      </g>
     </g>
     <g id="text_2">
      <!-- 20 -->
      <g transform="translate(262.5575 959.598438)scale(0.1 -0.1)">
       <defs>
        <path id="DejaVuSans-32" d="M 1228 531 
L 3431 531 
L 3431 0 
L 469 0 
L 469 531 
Q 828 903 1448 1529 
Q 2069 2156 2228 2338 
Q 2531 2678 2651 2914 
Q 2772 3150 2772 3378 
Q 2772 3750 2511 3984 
Q 2250 4219 1831 4219 
Q 1534 4219 1204 4116 
Q 875 4013 500 3803 
L 500 4441 
Q 881 4594 1212 4672 
Q 1544 4750 1819 4750 
Q 2544 4750 2975 4387 
Q 3406 4025 3406 3419 
Q 3406 3131 3298 2873 
Q 3191 2616 2906 2266 
Q 2828 2175 2409 1742 
Q 1991 1309 1228 531 
z
" transform="scale(0.015625)"/>
       </defs>
       <use xlink:href="#DejaVuSans-32"/>
       <use xlink:href="#DejaVuSans-30" x="63.623047"/>
      </g>
     </g>
    </g>
    <g id="xtick_3">
     <g id="line2d_3">
      <g>
       <use xlink:href="#me538a8d6cb" x="402.84" y="945" style="stroke: #000000; stroke-width: 0.8"/>
      </g>
     </g>
     <g id="text_3">
      <!-- 40 -->
      <g transform="translate(396.4775 959.598438)scale(0.1 -0.1)">
       <defs>
        <path id="DejaVuSans-34" d="M 2419 4116 
L 825 1625 
L 2419 1625 
L 2419 4116 
z
M 2253 4666 
L 3047 4666 
L 3047 1625 
L 3713 1625 
L 3713 1100 
L 3047 1100 
L 3047 0 
L 2419 0 
L 2419 1100 
L 313 1100 
L 313 1709 
L 2253 4666 
z
" transform="scale(0.015625)"/>
       </defs>
       <use xlink:href="#DejaVuSans-34"/>
       <use xlink:href="#DejaVuSans-30" x="63.623047"/>
      </g>
     </g>
    </g>
    <g id="xtick_4">
     <g id="line2d_4">
      <g>
       <use xlink:href="#me538a8d6cb" x="536.76" y="945" style="stroke: #000000; stroke-width: 0.8"/>
      </g>
     </g>
     <g id="text_4">
      <!-- 60 -->
      <g transform="translate(530.3975 959.598438)scale(0.1 -0.1)">
       <defs>
        <path id="DejaVuSans-36" d="M 2113 2584 
Q 1688 2584 1439 2293 
Q 1191 2003 1191 1497 
Q 1191 994 1439 701 
Q 1688 409 2113 409 
Q 2538 409 2786 701 
Q 3034 994 3034 1497 
Q 3034 2003 2786 2293 
Q 2538 2584 2113 2584 
z
M 3366 4563 
L 3366 3988 
Q 3128 4100 2886 4159 
Q 2644 4219 2406 4219 
Q 1781 4219 1451 3797 
Q 1122 3375 1075 2522 
Q 1259 2794 1537 2939 
Q 1816 3084 2150 3084 
Q 2853 3084 3261 2657 
Q 3669 2231 3669 1497 
Q 3669 778 3244 343 
Q 2819 -91 2113 -91 
Q 1303 -91 875 529 
Q 447 1150 447 2328 
Q 447 3434 972 4092 
Q 1497 4750 2381 4750 
Q 2619 4750 2861 4703 
Q 3103 4656 3366 4563 
z
" transform="scale(0.015625)"/>
       </defs>
       <use xlink:href="#DejaVuSans-36"/>
       <use xlink:href="#DejaVuSans-30" x="63.623047"/>
      </g>
     </g>
    </g>
    <g id="xtick_5">
     <g id="line2d_5">
      <g>
       <use xlink:href="#me538a8d6cb" x="670.68" y="945" style="stroke: #000000; stroke-width: 0.8"/>
      </g>
     </g>
     <g id="text_5">
      <!-- 80 -->
      <g transform="translate(664.3175 959.598438)scale(0.1 -0.1)">
       <defs>
        <path id="DejaVuSans-38" d="M 2034 2216 
Q 1584 2216 1326 1975 
Q 1069 1734 1069 1313 
Q 1069 891 1326 650 
Q 1584 409 2034 409 
Q 2484 409 2743 651 
Q 3003 894 3003 1313 
Q 3003 1734 2745 1975 
Q 2488 2216 2034 2216 
z
M 1403 2484 
Q 997 2584 770 2862 
Q 544 3141 544 3541 
Q 544 4100 942 4425 
Q 1341 4750 2034 4750 
Q 2731 4750 3128 4425 
Q 3525 4100 3525 3541 
Q 3525 3141 3298 2862 
Q 3072 2584 2669 2484 
Q 3125 2378 3379 2068 
Q 3634 1759 3634 1313 
Q 3634 634 3220 271 
Q 2806 -91 2034 -91 
Q 1263 -91 848 271 
Q 434 634 434 1313 
Q 434 1759 690 2068 
Q 947 2378 1403 2484 
z
M 1172 3481 
Q 1172 3119 1398 2916 
Q 1625 2713 2034 2713 
Q 2441 2713 2670 2916 
Q 2900 3119 2900 3481 
Q 2900 3844 2670 4047 
Q 2441 4250 2034 4250 
Q 1625 4250 1398 4047 
Q 1172 3844 1172 3481 
z
" transform="scale(0.015625)"/>
       </defs>
       <use xlink:href="#DejaVuSans-38"/>
       <use xlink:href="#DejaVuSans-30" x="63.623047"/>
      </g>
     </g>
    </g>
    <g id="xtick_6">
     <g id="line2d_6">
      <g>
       <use xlink:href="#me538a8d6cb" x="804.6" y="945" style="stroke: #000000; stroke-width: 0.8"/>
      </g>
     </g>
     <g id="text_6">
      <!-- 100 -->
      <g transform="translate(795.05625 959.598438)scale(0.1 -0.1)">
       <defs>
        <path id="DejaVuSans-31" d="M 794 531 
L 1825 531 
L 1825 4091 
L 703 3866 
L 703 4441 
L 1819 4666 
L 2450 4666 
L 2450 531 
L 3481 531 
L 3481 0 
L 794 0 
L 794 531 
z
" transform="scale(0.015625)"/>
       </defs>
       <use xlink:href="#DejaVuSans-31"/>
       <use xlink:href="#DejaVuSans-30" x="63.623047"/>
       <use xlink:href="#DejaVuSans-30" x="127.246094"/>
      </g>
     </g>
    </g>
    <g id="text_7">
     <!-- radius in micrometers -->
     <g transform="translate(414.953125 973.276562)scale(0.1 -0.1)">
      <defs>
       <path id="DejaVuSans-72" d="M 2631 2963 
Q 2534 3019 2420 3045 
Q 2306 3072 2169 3072 
Q 1681 3072 1420 2755 
Q 1159 2438 1159 1844 
L 1159 0 
L 581 0 
L 581 3500 
L 1159 3500 
L 1159 2956 
Q 1341 3275 1631 3429 
Q 1922 3584 2338 3584 
Q 2397 3584 2469 3576 
Q 2541 3569 2628 3553 
L 2631 2963 
z
" transform="scale(0.015625)"/>
       <path id="DejaVuSans-61" d="M 2194 1759 
Q 1497 1759 1228 1600 
Q 959 1441 959 1056 
Q 959 750 1161 570 
Q 1363 391 1709 391 
Q 2188 391 2477 730 
Q 2766 1069 2766 1631 
L 2766 1759 
L 2194 1759 
z
M 3341 1997 
L 3341 0 
L 2766 0 
L 2766 531 
Q 2569 213 2275 61 
Q 1981 -91 1556 -91 
Q 1019 -91 701 211 
Q 384 513 384 1019 
Q 384 1609 779 1909 
Q 1175 2209 1959 2209 
L 2766 2209 
L 2766 2266 
Q 2766 2663 2505 2880 
Q 2244 3097 1772 3097 
Q 1472 3097 1187 3025 
Q 903 2953 641 2809 
L 641 3341 
Q 956 3463 1253 3523 
Q 1550 3584 1831 3584 
Q 2591 3584 2966 3190 
Q 3341 2797 3341 1997 
z
" transform="scale(0.015625)"/>
       <path id="DejaVuSans-64" d="M 2906 2969 
L 2906 4863 
L 3481 4863 
L 3481 0 
L 2906 0 
L 2906 525 
Q 2725 213 2448 61 
Q 2172 -91 1784 -91 
Q 1150 -91 751 415 
Q 353 922 353 1747 
Q 353 2572 751 3078 
Q 1150 3584 1784 3584 
Q 2172 3584 2448 3432 
Q 2725 3281 2906 2969 
z
M 947 1747 
Q 947 1113 1208 752 
Q 1469 391 1925 391 
Q 2381 391 2643 752 
Q 2906 1113 2906 1747 
Q 2906 2381 2643 2742 
Q 2381 3103 1925 3103 
Q 1469 3103 1208 2742 
Q 947 2381 947 1747 
z
" transform="scale(0.015625)"/>
       <path id="DejaVuSans-69" d="M 603 3500 
L 1178 3500 
L 1178 0 
L 603 0 
L 603 3500 
z
M 603 4863 
L 1178 4863 
L 1178 4134 
L 603 4134 
L 603 4863 
z
" transform="scale(0.015625)"/>
       <path id="DejaVuSans-75" d="M 544 1381 
L 544 3500 
L 1119 3500 
L 1119 1403 
Q 1119 906 1312 657 
Q 1506 409 1894 409 
Q 2359 409 2629 706 
Q 2900 1003 2900 1516 
L 2900 3500 
L 3475 3500 
L 3475 0 
L 2900 0 
L 2900 538 
Q 2691 219 2414 64 
Q 2138 -91 1772 -91 
Q 1169 -91 856 284 
Q 544 659 544 1381 
z
M 1991 3584 
L 1991 3584 
z
" transform="scale(0.015625)"/>
       <path id="DejaVuSans-73" d="M 2834 3397 
L 2834 2853 
Q 2591 2978 2328 3040 
Q 2066 3103 1784 3103 
Q 1356 3103 1142 2972 
Q 928 2841 928 2578 
Q 928 2378 1081 2264 
Q 1234 2150 1697 2047 
L 1894 2003 
Q 2506 1872 2764 1633 
Q 3022 1394 3022 966 
Q 3022 478 2636 193 
Q 2250 -91 1575 -91 
Q 1294 -91 989 -36 
Q 684 19 347 128 
L 347 722 
Q 666 556 975 473 
Q 1284 391 1588 391 
Q 1994 391 2212 530 
Q 2431 669 2431 922 
Q 2431 1156 2273 1281 
Q 2116 1406 1581 1522 
L 1381 1569 
Q 847 1681 609 1914 
Q 372 2147 372 2553 
Q 372 3047 722 3315 
Q 1072 3584 1716 3584 
Q 2034 3584 2315 3537 
Q 2597 3491 2834 3397 
z
" transform="scale(0.015625)"/>
       <path id="DejaVuSans-20" transform="scale(0.015625)"/>
       <path id="DejaVuSans-6e" d="M 3513 2113 
L 3513 0 
L 2938 0 
L 2938 2094 
Q 2938 2591 2744 2837 
Q 2550 3084 2163 3084 
Q 1697 3084 1428 2787 
Q 1159 2491 1159 1978 
L 1159 0 
L 581 0 
L 581 3500 
L 1159 3500 
L 1159 2956 
Q 1366 3272 1645 3428 
Q 1925 3584 2291 3584 
Q 2894 3584 3203 3211 
Q 3513 2838 3513 2113 
z
" transform="scale(0.015625)"/>
       <path id="DejaVuSans-6d" d="M 3328 2828 
Q 3544 3216 3844 3400 
Q 4144 3584 4550 3584 
Q 5097 3584 5394 3201 
Q 5691 2819 5691 2113 
L 5691 0 
L 5113 0 
L 5113 2094 
Q 5113 2597 4934 2840 
Q 4756 3084 4391 3084 
Q 3944 3084 3684 2787 
Q 3425 2491 3425 1978 
L 3425 0 
L 2847 0 
L 2847 2094 
Q 2847 2600 2669 2842 
Q 2491 3084 2119 3084 
Q 1678 3084 1418 2786 
Q 1159 2488 1159 1978 
L 1159 0 
L 581 0 
L 581 3500 
L 1159 3500 
L 1159 2956 
Q 1356 3278 1631 3431 
Q 1906 3584 2284 3584 
Q 2666 3584 2933 3390 
Q 3200 3197 3328 2828 
z
" transform="scale(0.015625)"/>
       <path id="DejaVuSans-63" d="M 3122 3366 
L 3122 2828 
Q 2878 2963 2633 3030 
Q 2388 3097 2138 3097 
Q 1578 3097 1268 2742 
Q 959 2388 959 1747 
Q 959 1106 1268 751 
Q 1578 397 2138 397 
Q 2388 397 2633 464 
Q 2878 531 3122 666 
L 3122 134 
Q 2881 22 2623 -34 
Q 2366 -91 2075 -91 
Q 1284 -91 818 406 
Q 353 903 353 1747 
Q 353 2603 823 3093 
Q 1294 3584 2113 3584 
Q 2378 3584 2631 3529 
Q 2884 3475 3122 3366 
z
" transform="scale(0.015625)"/>
       <path id="DejaVuSans-6f" d="M 1959 3097 
Q 1497 3097 1228 2736 
Q 959 2375 959 1747 
Q 959 1119 1226 758 
Q 1494 397 1959 397 
Q 2419 397 2687 759 
Q 2956 1122 2956 1747 
Q 2956 2369 2687 2733 
Q 2419 3097 1959 3097 
z
M 1959 3584 
Q 2709 3584 3137 3096 
Q 3566 2609 3566 1747 
Q 3566 888 3137 398 
Q 2709 -91 1959 -91 
Q 1206 -91 779 398 
Q 353 888 353 1747 
Q 353 2609 779 3096 
Q 1206 3584 1959 3584 
z
" transform="scale(0.015625)"/>
       <path id="DejaVuSans-65" d="M 3597 1894 
L 3597 1613 
L 953 1613 
Q 991 1019 1311 708 
Q 1631 397 2203 397 
Q 2534 397 2845 478 
Q 3156 559 3463 722 
L 3463 178 
Q 3153 47 2828 -22 
Q 2503 -91 2169 -91 
Q 1331 -91 842 396 
Q 353 884 353 1716 
Q 353 2575 817 3079 
Q 1281 3584 2069 3584 
Q 2775 3584 3186 3129 
Q 3597 2675 3597 1894 
z
M 3022 2063 
Q 3016 2534 2758 2815 
Q 2500 3097 2075 3097 
Q 1594 3097 1305 2825 
Q 1016 2553 972 2059 
L 3022 2063 
z
" transform="scale(0.015625)"/>
       <path id="DejaVuSans-74" d="M 1172 4494 
L 1172 3500 
L 2356 3500 
L 2356 3053 
L 1172 3053 
L 1172 1153 
Q 1172 725 1289 603 
Q 1406 481 1766 481 
L 2356 481 
L 2356 0 
L 1766 0 
Q 1100 0 847 248 
Q 594 497 594 1153 
L 594 3053 
L 172 3053 
L 172 3500 
L 594 3500 
L 594 4494 
L 1172 4494 
z
" transform="scale(0.015625)"/>
      </defs>
      <use xlink:href="#DejaVuSans-72"/>
      <use xlink:href="#DejaVuSans-61" x="41.113281"/>
      <use xlink:href="#DejaVuSans-64" x="102.392578"/>
      <use xlink:href="#DejaVuSans-69" x="165.869141"/>
      <use xlink:href="#DejaVuSans-75" x="193.652344"/>
      <use xlink:href="#DejaVuSans-73" x="257.03125"/>
      <use xlink:href="#DejaVuSans-20" x="309.130859"/>
      <use xlink:href="#DejaVuSans-69" x="340.917969"/>
      <use xlink:href="#DejaVuSans-6e" x="368.701172"/>
      <use xlink:href="#DejaVuSans-20" x="432.080078"/>
      <use xlink:href="#DejaVuSans-6d" x="463.867188"/>
      <use xlink:href="#DejaVuSans-69" x="561.279297"/>
      <use xlink:href="#DejaVuSans-63" x="589.0625"/>
      <use xlink:href="#DejaVuSans-72" x="644.042969"/>
      <use xlink:href="#DejaVuSans-6f" x="682.90625"/>
      <use xlink:href="#DejaVuSans-6d" x="744.087891"/>
      <use xlink:href="#DejaVuSans-65" x="841.5"/>
      <use xlink:href="#DejaVuSans-74" x="903.023438"/>
      <use xlink:href="#DejaVuSans-65" x="942.232422"/>
      <use xlink:href="#DejaVuSans-72" x="1003.755859"/>
      <use xlink:href="#DejaVuSans-73" x="1044.869141"/>
     </g>
    </g>
   </g>
   <g id="matplotlib.axis_2">
    <g id="ytick_1">
     <g id="line2d_7">
      <defs>
       <path id="m406106251f" d="M 0 0 
L -3.5 0 
" style="stroke: #000000; stroke-width: 0.8"/>
      </defs>
      <g>
       <use xlink:href="#m406106251f" x="135" y="945" style="stroke: #000000; stroke-width: 0.8"/>
      </g>
     </g>
     <g id="text_8">
      <!-- 0 -->
      <g transform="translate(121.6375 948.799219)scale(0.1 -0.1)">
       <use xlink:href="#DejaVuSans-30"/>
      </g>
     </g>
    </g>
    <g id="ytick_2">
     <g id="line2d_8">
      <g>
       <use xlink:href="#m406106251f" x="135" y="843.075" style="stroke: #000000; stroke-width: 0.8"/>
      </g>
     </g>
     <g id="text_9">
      <!-- 1 -->
      <g transform="translate(121.6375 846.874219)scale(0.1 -0.1)">
       <use xlink:href="#DejaVuSans-31"/>
      </g>
     </g>
    </g>
    <g id="ytick_3">
     <g id="line2d_9">
      <g>
       <use xlink:href="#m406106251f" x="135" y="741.15" style="stroke: #000000; stroke-width: 0.8"/>
      </g>
     </g>
     <g id="text_10">
      <!-- 2 -->
      <g transform="translate(121.6375 744.949219)scale(0.1 -0.1)">
       <use xlink:href="#DejaVuSans-32"/>
      </g>
     </g>
    </g>
    <g id="ytick_4">
     <g id="line2d_10">
      <g>
       <use xlink:href="#m406106251f" x="135" y="639.225" style="stroke: #000000; stroke-width: 0.8"/>
      </g>
     </g>
     <g id="text_11">
      <!-- 3 -->
      <g transform="translate(121.6375 643.024219)scale(0.1 -0.1)">
       <defs>
        <path id="DejaVuSans-33" d="M 2597 2516 
Q 3050 2419 3304 2112 
Q 3559 1806 3559 1356 
Q 3559 666 3084 287 
Q 2609 -91 1734 -91 
Q 1441 -91 1130 -33 
Q 819 25 488 141 
L 488 750 
Q 750 597 1062 519 
Q 1375 441 1716 441 
Q 2309 441 2620 675 
Q 2931 909 2931 1356 
Q 2931 1769 2642 2001 
Q 2353 2234 1838 2234 
L 1294 2234 
L 1294 2753 
L 1863 2753 
Q 2328 2753 2575 2939 
Q 2822 3125 2822 3475 
Q 2822 3834 2567 4026 
Q 2313 4219 1838 4219 
Q 1578 4219 1281 4162 
Q 984 4106 628 3988 
L 628 4550 
Q 988 4650 1302 4700 
Q 1616 4750 1894 4750 
Q 2613 4750 3031 4423 
Q 3450 4097 3450 3541 
Q 3450 3153 3228 2886 
Q 3006 2619 2597 2516 
z
" transform="scale(0.015625)"/>
       </defs>
       <use xlink:href="#DejaVuSans-33"/>
      </g>
     </g>
    </g>
    <g id="ytick_5">
     <g id="line2d_11">
      <g>
       <use xlink:href="#m406106251f" x="135" y="537.3" style="stroke: #000000; stroke-width: 0.8"/>
      </g>
     </g>
     <g id="text_12">
      <!-- 4 -->
      <g transform="translate(121.6375 541.099219)scale(0.1 -0.1)">
       <use xlink:href="#DejaVuSans-34"/>
      </g>
     </g>
    </g>
    <g id="ytick_6">
     <g id="line2d_12">
      <g>
       <use xlink:href="#m406106251f" x="135" y="435.375" style="stroke: #000000; stroke-width: 0.8"/>
      </g>
     </g>
     <g id="text_13">
      <!-- 5 -->
      <g transform="translate(121.6375 439.174219)scale(0.1 -0.1)">
       <defs>
        <path id="DejaVuSans-35" d="M 691 4666 
L 3169 4666 
L 3169 4134 
L 1269 4134 
L 1269 2991 
Q 1406 3038 1543 3061 
Q 1681 3084 1819 3084 
Q 2600 3084 3056 2656 
Q 3513 2228 3513 1497 
Q 3513 744 3044 326 
Q 2575 -91 1722 -91 
Q 1428 -91 1123 -41 
Q 819 9 494 109 
L 494 744 
Q 775 591 1075 516 
Q 1375 441 1709 441 
Q 2250 441 2565 725 
Q 2881 1009 2881 1497 
Q 2881 1984 2565 2268 
Q 2250 2553 1709 2553 
Q 1456 2553 1204 2497 
Q 953 2441 691 2322 
L 691 4666 
z
" transform="scale(0.015625)"/>
       </defs>
       <use xlink:href="#DejaVuSans-35"/>
      </g>
     </g>
    </g>
    <g id="ytick_7">
     <g id="line2d_13">
      <g>
       <use xlink:href="#m406106251f" x="135" y="333.45" style="stroke: #000000; stroke-width: 0.8"/>
      </g>
     </g>
     <g id="text_14">
      <!-- 6 -->
      <g transform="translate(121.6375 337.249219)scale(0.1 -0.1)">
       <use xlink:href="#DejaVuSans-36"/>
      </g>
     </g>
    </g>
    <g id="ytick_8">
     <g id="line2d_14">
      <g>
       <use xlink:href="#m406106251f" x="135" y="231.525" style="stroke: #000000; stroke-width: 0.8"/>
      </g>
     </g>
     <g id="text_15">
      <!-- 7 -->
      <g transform="translate(121.6375 235.324219)scale(0.1 -0.1)">
       <defs>
        <path id="DejaVuSans-37" d="M 525 4666 
L 3525 4666 
L 3525 4397 
L 1831 0 
L 1172 0 
L 2766 4134 
L 525 4134 
L 525 4666 
z
" transform="scale(0.015625)"/>
       </defs>
       <use xlink:href="#DejaVuSans-37"/>
      </g>
     </g>
    </g>
    <g id="ytick_9">
     <g id="line2d_15">
      <g>
       <use xlink:href="#m406106251f" x="135" y="129.6" style="stroke: #000000; stroke-width: 0.8"/>
      </g>
     </g>
     <g id="text_16">
      <!-- 8 -->
      <g transform="translate(121.6375 133.399219)scale(0.1 -0.1)">
       <use xlink:href="#DejaVuSans-38"/>
      </g>
     </g>
    </g>
    <g id="text_17">
     <!-- number of principal components -->
     <g transform="translate(115.557812 618.845312)rotate(-90)scale(0.1 -0.1)">
      <defs>
       <path id="DejaVuSans-62" d="M 3116 1747 
Q 3116 2381 2855 2742 
Q 2594 3103 2138 3103 
Q 1681 3103 1420 2742 
Q 1159 2381 1159 1747 
Q 1159 1113 1420 752 
Q 1681 391 2138 391 
Q 2594 391 2855 752 
Q 3116 1113 3116 1747 
z
M 1159 2969 
Q 1341 3281 1617 3432 
Q 1894 3584 2278 3584 
Q 2916 3584 3314 3078 
Q 3713 2572 3713 1747 
Q 3713 922 3314 415 
Q 2916 -91 2278 -91 
Q 1894 -91 1617 61 
Q 1341 213 1159 525 
L 1159 0 
L 581 0 
L 581 4863 
L 1159 4863 
L 1159 2969 
z
" transform="scale(0.015625)"/>
       <path id="DejaVuSans-66" d="M 2375 4863 
L 2375 4384 
L 1825 4384 
Q 1516 4384 1395 4259 
Q 1275 4134 1275 3809 
L 1275 3500 
L 2222 3500 
L 2222 3053 
L 1275 3053 
L 1275 0 
L 697 0 
L 697 3053 
L 147 3053 
L 147 3500 
L 697 3500 
L 697 3744 
Q 697 4328 969 4595 
Q 1241 4863 1831 4863 
L 2375 4863 
z
" transform="scale(0.015625)"/>
       <path id="DejaVuSans-70" d="M 1159 525 
L 1159 -1331 
L 581 -1331 
L 581 3500 
L 1159 3500 
L 1159 2969 
Q 1341 3281 1617 3432 
Q 1894 3584 2278 3584 
Q 2916 3584 3314 3078 
Q 3713 2572 3713 1747 
Q 3713 922 3314 415 
Q 2916 -91 2278 -91 
Q 1894 -91 1617 61 
Q 1341 213 1159 525 
z
M 3116 1747 
Q 3116 2381 2855 2742 
Q 2594 3103 2138 3103 
Q 1681 3103 1420 2742 
Q 1159 2381 1159 1747 
Q 1159 1113 1420 752 
Q 1681 391 2138 391 
Q 2594 391 2855 752 
Q 3116 1113 3116 1747 
z
" transform="scale(0.015625)"/>
       <path id="DejaVuSans-6c" d="M 603 4863 
L 1178 4863 
L 1178 0 
L 603 0 
L 603 4863 
z
" transform="scale(0.015625)"/>
      </defs>
      <use xlink:href="#DejaVuSans-6e"/>
      <use xlink:href="#DejaVuSans-75" x="63.378906"/>
      <use xlink:href="#DejaVuSans-6d" x="126.757812"/>
      <use xlink:href="#DejaVuSans-62" x="224.169922"/>
      <use xlink:href="#DejaVuSans-65" x="287.646484"/>
      <use xlink:href="#DejaVuSans-72" x="349.169922"/>
      <use xlink:href="#DejaVuSans-20" x="390.283203"/>
      <use xlink:href="#DejaVuSans-6f" x="422.070312"/>
      <use xlink:href="#DejaVuSans-66" x="483.251953"/>
      <use xlink:href="#DejaVuSans-20" x="518.457031"/>
      <use xlink:href="#DejaVuSans-70" x="550.244141"/>
      <use xlink:href="#DejaVuSans-72" x="613.720703"/>
      <use xlink:href="#DejaVuSans-69" x="654.833984"/>
      <use xlink:href="#DejaVuSans-6e" x="682.617188"/>
      <use xlink:href="#DejaVuSans-63" x="745.996094"/>
      <use xlink:href="#DejaVuSans-69" x="800.976562"/>
      <use xlink:href="#DejaVuSans-70" x="828.759766"/>
      <use xlink:href="#DejaVuSans-61" x="892.236328"/>
      <use xlink:href="#DejaVuSans-6c" x="953.515625"/>
      <use xlink:href="#DejaVuSans-20" x="981.298828"/>
      <use xlink:href="#DejaVuSans-63" x="1013.085938"/>
      <use xlink:href="#DejaVuSans-6f" x="1068.066406"/>
      <use xlink:href="#DejaVuSans-6d" x="1129.248047"/>
      <use xlink:href="#DejaVuSans-70" x="1226.660156"/>
      <use xlink:href="#DejaVuSans-6f" x="1290.136719"/>
      <use xlink:href="#DejaVuSans-6e" x="1351.318359"/>
      <use xlink:href="#DejaVuSans-65" x="1414.697266"/>
      <use xlink:href="#DejaVuSans-6e" x="1476.220703"/>
      <use xlink:href="#DejaVuSans-74" x="1539.599609"/>
      <use xlink:href="#DejaVuSans-73" x="1578.808594"/>
     </g>
    </g>
   </g>
   <g id="line2d_16">
    <path d="M 302.4 945 
L 302.4 129.6 
" clip-path="url(#pe45271b257)" style="fill: none; stroke-dasharray: 5.55,2.4; stroke-dashoffset: 0; stroke: #ff0000; stroke-width: 1.5"/>
   </g>
   <g id="line2d_17">
    <path d="M 135 537.3 
L 804.6 537.3 
" clip-path="url(#pe45271b257)" style="fill: none; stroke-dasharray: 5.55,2.4; stroke-dashoffset: 0; stroke: #ff0000; stroke-width: 1.5"/>
   </g>
   <g id="patch_3">
    <path d="M 135 945 
L 135 129.6 
" style="fill: none; stroke: #000000; stroke-width: 0.8; stroke-linejoin: miter; stroke-linecap: square"/>
   </g>
   <g id="patch_4">
    <path d="M 804.6 945 
L 804.6 129.6 
" style="fill: none; stroke: #000000; stroke-width: 0.8; stroke-linejoin: miter; stroke-linecap: square"/>
   </g>
   <g id="patch_5">
    <path d="M 135 945 
L 804.6 945 
" style="fill: none; stroke: #000000; stroke-width: 0.8; stroke-linejoin: miter; stroke-linecap: square"/>
   </g>
   <g id="patch_6">
    <path d="M 135 129.6 
L 804.6 129.6 
" style="fill: none; stroke: #000000; stroke-width: 0.8; stroke-linejoin: miter; stroke-linecap: square"/>
   </g>
  </g>
  <g id="axes_2">
   <g id="patch_7">
    <path d="M 846.45 945 
L 887.22 945 
L 887.22 129.6 
L 846.45 129.6 
z
" style="fill: #ffffff"/>
   </g>
   <g id="patch_8">
    <path clip-path="url(#p3fa9e7abe1)" style="fill: #ffffff; stroke: #ffffff; stroke-width: 0.01; stroke-linejoin: miter"/>
   </g>
   <g id="QuadMesh_1">
    <path d="M 846.45 945 
L 887.22 945 
L 887.22 809.1 
L 846.45 809.1 
L 846.45 945 
" clip-path="url(#p3fa9e7abe1)" style="fill: #481d6f"/>
    <path d="M 846.45 809.1 
L 887.22 809.1 
L 887.22 673.2 
L 846.45 673.2 
L 846.45 809.1 
" clip-path="url(#p3fa9e7abe1)" style="fill: #3c508b"/>
    <path d="M 846.45 673.2 
L 887.22 673.2 
L 887.22 537.3 
L 846.45 537.3 
L 846.45 673.2 
" clip-path="url(#p3fa9e7abe1)" style="fill: #287c8e"/>
    <path d="M 846.45 537.3 
L 887.22 537.3 
L 887.22 401.4 
L 846.45 401.4 
L 846.45 537.3 
" clip-path="url(#p3fa9e7abe1)" style="fill: #20a386"/>
    <path d="M 846.45 401.4 
L 887.22 401.4 
L 887.22 265.5 
L 846.45 265.5 
L 846.45 401.4 
" clip-path="url(#p3fa9e7abe1)" style="fill: #5ac864"/>
    <path d="M 846.45 265.5 
L 887.22 265.5 
L 887.22 129.6 
L 846.45 129.6 
L 846.45 265.5 
" clip-path="url(#p3fa9e7abe1)" style="fill: #c8e020"/>
   </g>
   <g id="matplotlib.axis_3">
    <g id="ytick_10">
     <g id="line2d_18">
      <defs>
       <path id="mcad3d1d9c1" d="M 0 0 
L 3.5 0 
" style="stroke: #000000; stroke-width: 0.8"/>
      </defs>
      <g>
       <use xlink:href="#mcad3d1d9c1" x="887.22" y="945" style="stroke: #000000; stroke-width: 0.8"/>
      </g>
     </g>
     <g id="text_18">
      <!-- 0 -->
      <g transform="translate(894.22 948.799219)scale(0.1 -0.1)">
       <use xlink:href="#DejaVuSans-30"/>
      </g>
     </g>
    </g>
    <g id="ytick_11">
     <g id="line2d_19">
      <g>
       <use xlink:href="#mcad3d1d9c1" x="887.22" y="809.1" style="stroke: #000000; stroke-width: 0.8"/>
      </g>
     </g>
     <g id="text_19">
      <!-- 16 -->
      <g transform="translate(894.22 812.899219)scale(0.1 -0.1)">
       <use xlink:href="#DejaVuSans-31"/>
       <use xlink:href="#DejaVuSans-36" x="63.623047"/>
      </g>
     </g>
    </g>
    <g id="ytick_12">
     <g id="line2d_20">
      <g>
       <use xlink:href="#mcad3d1d9c1" x="887.22" y="673.2" style="stroke: #000000; stroke-width: 0.8"/>
      </g>
     </g>
     <g id="text_20">
      <!-- 33 -->
      <g transform="translate(894.22 676.999219)scale(0.1 -0.1)">
       <use xlink:href="#DejaVuSans-33"/>
       <use xlink:href="#DejaVuSans-33" x="63.623047"/>
      </g>
     </g>
    </g>
    <g id="ytick_13">
     <g id="line2d_21">
      <g>
       <use xlink:href="#mcad3d1d9c1" x="887.22" y="537.3" style="stroke: #000000; stroke-width: 0.8"/>
      </g>
     </g>
     <g id="text_21">
      <!-- 50 -->
      <g transform="translate(894.22 541.099219)scale(0.1 -0.1)">
       <use xlink:href="#DejaVuSans-35"/>
       <use xlink:href="#DejaVuSans-30" x="63.623047"/>
      </g>
     </g>
    </g>
    <g id="ytick_14">
     <g id="line2d_22">
      <g>
       <use xlink:href="#mcad3d1d9c1" x="887.22" y="401.4" style="stroke: #000000; stroke-width: 0.8"/>
      </g>
     </g>
     <g id="text_22">
      <!-- 66 -->
      <g transform="translate(894.22 405.199219)scale(0.1 -0.1)">
       <use xlink:href="#DejaVuSans-36"/>
       <use xlink:href="#DejaVuSans-36" x="63.623047"/>
      </g>
     </g>
    </g>
    <g id="ytick_15">
     <g id="line2d_23">
      <g>
       <use xlink:href="#mcad3d1d9c1" x="887.22" y="265.5" style="stroke: #000000; stroke-width: 0.8"/>
      </g>
     </g>
     <g id="text_23">
      <!-- 83 -->
      <g transform="translate(894.22 269.299219)scale(0.1 -0.1)">
       <use xlink:href="#DejaVuSans-38"/>
       <use xlink:href="#DejaVuSans-33" x="63.623047"/>
      </g>
     </g>
    </g>
    <g id="ytick_16">
     <g id="line2d_24">
      <g>
       <use xlink:href="#mcad3d1d9c1" x="887.22" y="129.6" style="stroke: #000000; stroke-width: 0.8"/>
      </g>
     </g>
     <g id="text_24">
      <!-- 100 -->
      <g transform="translate(894.22 133.399219)scale(0.1 -0.1)">
       <use xlink:href="#DejaVuSans-31"/>
       <use xlink:href="#DejaVuSans-30" x="63.623047"/>
       <use xlink:href="#DejaVuSans-30" x="127.246094"/>
      </g>
     </g>
    </g>
   </g>
   <g id="LineCollection_1"/>
   <g id="patch_9">
    <path d="M 846.45 945 
L 866.835 945 
L 887.22 945 
L 887.22 129.6 
L 866.835 129.6 
L 846.45 129.6 
L 846.45 945 
z
" style="fill: none; stroke: #000000; stroke-width: 0.8; stroke-linejoin: miter; stroke-linecap: square"/>
   </g>
  </g>
 </g>
 <defs>
  <clipPath id="pe45271b257">
   <rect x="135" y="129.6" width="669.6" height="815.4"/>
  </clipPath>
  <clipPath id="p3fa9e7abe1">
   <rect x="846.45" y="129.6" width="40.77" height="815.4"/>
  </clipPath>
 </defs>
</svg>
