<?xml version="1.0" encoding="utf-8" standalone="no"?>
<!DOCTYPE svg PUBLIC "-//W3C//DTD SVG 1.1//EN"
  "http://www.w3.org/Graphics/SVG/1.1/DTD/svg11.dtd">
<svg xmlns:xlink="http://www.w3.org/1999/xlink" width="825.75125pt" height="595.964375pt" viewBox="0 0 825.75125 595.964375" xmlns="http://www.w3.org/2000/svg" version="1.1">
 <metadata>
  <rdf:RDF xmlns:dc="http://purl.org/dc/elements/1.1/" xmlns:cc="http://creativecommons.org/ns#" xmlns:rdf="http://www.w3.org/1999/02/22-rdf-syntax-ns#">
   <cc:Work>
    <dc:type rdf:resource="http://purl.org/dc/dcmitype/StillImage"/>
    <dc:date>2023-01-16T14:04:47.762163</dc:date>
    <dc:format>image/svg+xml</dc:format>
    <dc:creator>
     <cc:Agent>
      <dc:title>Matplotlib v3.5.3, https://matplotlib.org/</dc:title>
     </cc:Agent>
    </dc:creator>
   </cc:Work>
  </rdf:RDF>
 </metadata>
 <defs>
  <style type="text/css">*{stroke-linejoin: round; stroke-linecap: butt}</style>
 </defs>
 <g id="figure_1">
  <g id="patch_1">
   <path d="M 0 595.964375 
L 825.75125 595.964375 
L 825.75125 -0 
L 0 -0 
L 0 595.964375 
z
" style="fill: none"/>
  </g>
  <g id="axes_1">
   <g id="patch_2">
    <path d="M 98.55125 367.2 
L 818.55125 367.2 
L 818.55125 7.2 
L 98.55125 7.2 
z
" style="fill: #ffffff"/>
   </g>
   <g id="patch_3">
    <path d="M 131.278523 340.229643 
L 134.502885 340.229643 
L 134.502885 333.946051 
L 131.278523 333.946051 
z
" clip-path="url(#p069d708bea)" style="fill: #ff00df"/>
   </g>
   <g id="patch_4">
    <path d="M 150.624694 340.229643 
L 153.849056 340.229643 
L 153.849056 23.563636 
L 150.624694 23.563636 
z
" clip-path="url(#p069d708bea)" style="fill: #ff00df"/>
   </g>
   <g id="patch_5">
    <path d="M 169.970865 340.229643 
L 173.195227 340.229643 
L 173.195227 316.520025 
L 169.970865 316.520025 
z
" clip-path="url(#p069d708bea)" style="fill: #ff00df"/>
   </g>
   <g id="patch_6">
    <path d="M 189.317036 340.229643 
L 192.541398 340.229643 
L 192.541398 341.002139 
L 189.317036 341.002139 
z
" clip-path="url(#p069d708bea)" style="fill: #ff00df"/>
   </g>
   <g id="patch_7">
    <path d="M 208.663207 340.229643 
L 211.887569 340.229643 
L 211.887569 338.888405 
L 208.663207 338.888405 
z
" clip-path="url(#p069d708bea)" style="fill: #ff00df"/>
   </g>
   <g id="patch_8">
    <path d="M 228.009378 340.229643 
L 231.23374 340.229643 
L 231.23374 337.891816 
L 228.009378 337.891816 
z
" clip-path="url(#p069d708bea)" style="fill: #ff00df"/>
   </g>
   <g id="patch_9">
    <path d="M 247.355549 340.229643 
L 250.579911 340.229643 
L 250.579911 336.715318 
L 247.355549 336.715318 
z
" clip-path="url(#p069d708bea)" style="fill: #ff00df"/>
   </g>
   <g id="patch_10">
    <path d="M 266.70172 340.229643 
L 269.926082 340.229643 
L 269.926082 340.278104 
L 266.70172 340.278104 
z
" clip-path="url(#p069d708bea)" style="fill: #ff00df"/>
   </g>
   <g id="patch_11">
    <path d="M 286.047891 340.229643 
L 289.272253 340.229643 
L 289.272253 340.488544 
L 286.047891 340.488544 
z
" clip-path="url(#p069d708bea)" style="fill: #ff00df"/>
   </g>
   <g id="patch_12">
    <path d="M 305.394062 340.229643 
L 308.618424 340.229643 
L 308.618424 328.549507 
L 305.394062 328.549507 
z
" clip-path="url(#p069d708bea)" style="fill: #ff00df"/>
   </g>
   <g id="patch_13">
    <path d="M 324.740233 340.229643 
L 327.964595 340.229643 
L 327.964595 347.240442 
L 324.740233 347.240442 
z
" clip-path="url(#p069d708bea)" style="fill: #ff00df"/>
   </g>
   <g id="patch_14">
    <path d="M 344.086405 340.229643 
L 347.310766 340.229643 
L 347.310766 340.223466 
L 344.086405 340.223466 
z
" clip-path="url(#p069d708bea)" style="fill: #ff00df"/>
   </g>
   <g id="patch_15">
    <path d="M 363.432576 340.229643 
L 366.656937 340.229643 
L 366.656937 326.927641 
L 363.432576 326.927641 
z
" clip-path="url(#p069d708bea)" style="fill: #ff00df"/>
   </g>
   <g id="patch_16">
    <path d="M 382.778747 340.229643 
L 386.003108 340.229643 
L 386.003108 340.119293 
L 382.778747 340.119293 
z
" clip-path="url(#p069d708bea)" style="fill: #ff00df"/>
   </g>
   <g id="patch_17">
    <path d="M 402.124918 340.229643 
L 405.34928 340.229643 
L 405.34928 338.826595 
L 402.124918 338.826595 
z
" clip-path="url(#p069d708bea)" style="fill: #ff00df"/>
   </g>
   <g id="patch_18">
    <path d="M 421.471089 340.229643 
L 424.695451 340.229643 
L 424.695451 340.319728 
L 421.471089 340.319728 
z
" clip-path="url(#p069d708bea)" style="fill: #ff00df"/>
   </g>
   <g id="patch_19">
    <path d="M 440.81726 340.229643 
L 444.041622 340.229643 
L 444.041622 338.971212 
L 440.81726 338.971212 
z
" clip-path="url(#p069d708bea)" style="fill: #ff00df"/>
   </g>
   <g id="patch_20">
    <path d="M 460.163431 340.229643 
L 463.387793 340.229643 
L 463.387793 340.350872 
L 460.163431 340.350872 
z
" clip-path="url(#p069d708bea)" style="fill: #ff00df"/>
   </g>
   <g id="patch_21">
    <path d="M 479.509602 340.229643 
L 482.733964 340.229643 
L 482.733964 340.166939 
L 479.509602 340.166939 
z
" clip-path="url(#p069d708bea)" style="fill: #ff00df"/>
   </g>
   <g id="patch_22">
    <path d="M 498.855773 340.229643 
L 502.080135 340.229643 
L 502.080135 340.128446 
L 498.855773 340.128446 
z
" clip-path="url(#p069d708bea)" style="fill: #ff00df"/>
   </g>
   <g id="patch_23">
    <path d="M 518.201944 340.229643 
L 521.426306 340.229643 
L 521.426306 340.629214 
L 518.201944 340.629214 
z
" clip-path="url(#p069d708bea)" style="fill: #ff00df"/>
   </g>
   <g id="patch_24">
    <path d="M 537.548115 340.229643 
L 540.772477 340.229643 
L 540.772477 340.388487 
L 537.548115 340.388487 
z
" clip-path="url(#p069d708bea)" style="fill: #ff00df"/>
   </g>
   <g id="patch_25">
    <path d="M 556.894286 340.229643 
L 560.118648 340.229643 
L 560.118648 340.395505 
L 556.894286 340.395505 
z
" clip-path="url(#p069d708bea)" style="fill: #ff00df"/>
   </g>
   <g id="patch_26">
    <path d="M 576.240457 340.229643 
L 579.464819 340.229643 
L 579.464819 340.265964 
L 576.240457 340.265964 
z
" clip-path="url(#p069d708bea)" style="fill: #ff00df"/>
   </g>
   <g id="patch_27">
    <path d="M 595.586628 340.229643 
L 598.81099 340.229643 
L 598.81099 340.249672 
L 595.586628 340.249672 
z
" clip-path="url(#p069d708bea)" style="fill: #ff00df"/>
   </g>
   <g id="patch_28">
    <path d="M 614.932799 340.229643 
L 618.157161 340.229643 
L 618.157161 340.208159 
L 614.932799 340.208159 
z
" clip-path="url(#p069d708bea)" style="fill: #ff00df"/>
   </g>
   <g id="patch_29">
    <path d="M 634.278971 340.229643 
L 637.503332 340.229643 
L 637.503332 340.22501 
L 634.278971 340.22501 
z
" clip-path="url(#p069d708bea)" style="fill: #ff00df"/>
   </g>
   <g id="patch_30">
    <path d="M 653.625142 340.229643 
L 656.849503 340.229643 
L 656.849503 340.128262 
L 653.625142 340.128262 
z
" clip-path="url(#p069d708bea)" style="fill: #ff00df"/>
   </g>
   <g id="patch_31">
    <path d="M 672.971313 340.229643 
L 676.195675 340.229643 
L 676.195675 340.224494 
L 672.971313 340.224494 
z
" clip-path="url(#p069d708bea)" style="fill: #ff00df"/>
   </g>
   <g id="patch_32">
    <path d="M 692.317484 340.229643 
L 695.541846 340.229643 
L 695.541846 340.276896 
L 692.317484 340.276896 
z
" clip-path="url(#p069d708bea)" style="fill: #ff00df"/>
   </g>
   <g id="patch_33">
    <path d="M 711.663655 340.229643 
L 714.888017 340.229643 
L 714.888017 340.232937 
L 711.663655 340.232937 
z
" clip-path="url(#p069d708bea)" style="fill: #ff00df"/>
   </g>
   <g id="patch_34">
    <path d="M 731.009826 340.229643 
L 734.234188 340.229643 
L 734.234188 340.27614 
L 731.009826 340.27614 
z
" clip-path="url(#p069d708bea)" style="fill: #ff00df"/>
   </g>
   <g id="patch_35">
    <path d="M 750.355997 340.229643 
L 753.580359 340.229643 
L 753.580359 340.258166 
L 750.355997 340.258166 
z
" clip-path="url(#p069d708bea)" style="fill: #ff00df"/>
   </g>
   <g id="patch_36">
    <path d="M 769.702168 340.229643 
L 772.92653 340.229643 
L 772.92653 340.229643 
L 769.702168 340.229643 
z
" clip-path="url(#p069d708bea)" style="fill: #ff00df"/>
   </g>
   <g id="patch_37">
    <path d="M 134.502885 340.229643 
L 137.727246 340.229643 
L 137.727246 346.077229 
L 134.502885 346.077229 
z
" clip-path="url(#p069d708bea)" style="fill: #0000ff"/>
   </g>
   <g id="patch_38">
    <path d="M 153.849056 340.229643 
L 157.073417 340.229643 
L 157.073417 339.531755 
L 153.849056 339.531755 
z
" clip-path="url(#p069d708bea)" style="fill: #0000ff"/>
   </g>
   <g id="patch_39">
    <path d="M 173.195227 340.229643 
L 176.419589 340.229643 
L 176.419589 323.300965 
L 173.195227 323.300965 
z
" clip-path="url(#p069d708bea)" style="fill: #0000ff"/>
   </g>
   <g id="patch_40">
    <path d="M 192.541398 340.229643 
L 195.76576 340.229643 
L 195.76576 340.111497 
L 192.541398 340.111497 
z
" clip-path="url(#p069d708bea)" style="fill: #0000ff"/>
   </g>
   <g id="patch_41">
    <path d="M 211.887569 340.229643 
L 215.111931 340.229643 
L 215.111931 308.141013 
L 211.887569 308.141013 
z
" clip-path="url(#p069d708bea)" style="fill: #0000ff"/>
   </g>
   <g id="patch_42">
    <path d="M 231.23374 340.229643 
L 234.458102 340.229643 
L 234.458102 54.273963 
L 231.23374 54.273963 
z
" clip-path="url(#p069d708bea)" style="fill: #0000ff"/>
   </g>
   <g id="patch_43">
    <path d="M 250.579911 340.229643 
L 253.804273 340.229643 
L 253.804273 342.886945 
L 250.579911 342.886945 
z
" clip-path="url(#p069d708bea)" style="fill: #0000ff"/>
   </g>
   <g id="patch_44">
    <path d="M 269.926082 340.229643 
L 273.150444 340.229643 
L 273.150444 340.43461 
L 269.926082 340.43461 
z
" clip-path="url(#p069d708bea)" style="fill: #0000ff"/>
   </g>
   <g id="patch_45">
    <path d="M 289.272253 340.229643 
L 292.496615 340.229643 
L 292.496615 316.115817 
L 289.272253 316.115817 
z
" clip-path="url(#p069d708bea)" style="fill: #0000ff"/>
   </g>
   <g id="patch_46">
    <path d="M 308.618424 340.229643 
L 311.842786 340.229643 
L 311.842786 336.355254 
L 308.618424 336.355254 
z
" clip-path="url(#p069d708bea)" style="fill: #0000ff"/>
   </g>
   <g id="patch_47">
    <path d="M 327.964595 340.229643 
L 331.188957 340.229643 
L 331.188957 298.569485 
L 327.964595 298.569485 
z
" clip-path="url(#p069d708bea)" style="fill: #0000ff"/>
   </g>
   <g id="patch_48">
    <path d="M 347.310766 340.229643 
L 350.535128 340.229643 
L 350.535128 339.998625 
L 347.310766 339.998625 
z
" clip-path="url(#p069d708bea)" style="fill: #0000ff"/>
   </g>
   <g id="patch_49">
    <path d="M 366.656937 340.229643 
L 369.881299 340.229643 
L 369.881299 346.212877 
L 366.656937 346.212877 
z
" clip-path="url(#p069d708bea)" style="fill: #0000ff"/>
   </g>
   <g id="patch_50">
    <path d="M 386.003108 340.229643 
L 389.22747 340.229643 
L 389.22747 327.590799 
L 386.003108 327.590799 
z
" clip-path="url(#p069d708bea)" style="fill: #0000ff"/>
   </g>
   <g id="patch_51">
    <path d="M 405.34928 340.229643 
L 408.573641 340.229643 
L 408.573641 343.126451 
L 405.34928 343.126451 
z
" clip-path="url(#p069d708bea)" style="fill: #0000ff"/>
   </g>
   <g id="patch_52">
    <path d="M 424.695451 340.229643 
L 427.919812 340.229643 
L 427.919812 338.943005 
L 424.695451 338.943005 
z
" clip-path="url(#p069d708bea)" style="fill: #0000ff"/>
   </g>
   <g id="patch_53">
    <path d="M 444.041622 340.229643 
L 447.265984 340.229643 
L 447.265984 331.684929 
L 444.041622 331.684929 
z
" clip-path="url(#p069d708bea)" style="fill: #0000ff"/>
   </g>
   <g id="patch_54">
    <path d="M 463.387793 340.229643 
L 466.612155 340.229643 
L 466.612155 340.145217 
L 463.387793 340.145217 
z
" clip-path="url(#p069d708bea)" style="fill: #0000ff"/>
   </g>
   <g id="patch_55">
    <path d="M 482.733964 340.229643 
L 485.958326 340.229643 
L 485.958326 338.847473 
L 482.733964 338.847473 
z
" clip-path="url(#p069d708bea)" style="fill: #0000ff"/>
   </g>
   <g id="patch_56">
    <path d="M 502.080135 340.229643 
L 505.304497 340.229643 
L 505.304497 340.171841 
L 502.080135 340.171841 
z
" clip-path="url(#p069d708bea)" style="fill: #0000ff"/>
   </g>
   <g id="patch_57">
    <path d="M 521.426306 340.229643 
L 524.650668 340.229643 
L 524.650668 339.356381 
L 521.426306 339.356381 
z
" clip-path="url(#p069d708bea)" style="fill: #0000ff"/>
   </g>
   <g id="patch_58">
    <path d="M 540.772477 340.229643 
L 543.996839 340.229643 
L 543.996839 339.741632 
L 540.772477 339.741632 
z
" clip-path="url(#p069d708bea)" style="fill: #0000ff"/>
   </g>
   <g id="patch_59">
    <path d="M 560.118648 340.229643 
L 563.34301 340.229643 
L 563.34301 338.921279 
L 560.118648 338.921279 
z
" clip-path="url(#p069d708bea)" style="fill: #0000ff"/>
   </g>
   <g id="patch_60">
    <path d="M 579.464819 340.229643 
L 582.689181 340.229643 
L 582.689181 340.208313 
L 579.464819 340.208313 
z
" clip-path="url(#p069d708bea)" style="fill: #0000ff"/>
   </g>
   <g id="patch_61">
    <path d="M 598.81099 340.229643 
L 602.035352 340.229643 
L 602.035352 340.226586 
L 598.81099 340.226586 
z
" clip-path="url(#p069d708bea)" style="fill: #0000ff"/>
   </g>
   <g id="patch_62">
    <path d="M 618.157161 340.229643 
L 621.381523 340.229643 
L 621.381523 340.235749 
L 618.157161 340.235749 
z
" clip-path="url(#p069d708bea)" style="fill: #0000ff"/>
   </g>
   <g id="patch_63">
    <path d="M 637.503332 340.229643 
L 640.727694 340.229643 
L 640.727694 340.158726 
L 637.503332 340.158726 
z
" clip-path="url(#p069d708bea)" style="fill: #0000ff"/>
   </g>
   <g id="patch_64">
    <path d="M 656.849503 340.229643 
L 660.073865 340.229643 
L 660.073865 340.21781 
L 656.849503 340.21781 
z
" clip-path="url(#p069d708bea)" style="fill: #0000ff"/>
   </g>
   <g id="patch_65">
    <path d="M 676.195675 340.229643 
L 679.420036 340.229643 
L 679.420036 340.159077 
L 676.195675 340.159077 
z
" clip-path="url(#p069d708bea)" style="fill: #0000ff"/>
   </g>
   <g id="patch_66">
    <path d="M 695.541846 340.229643 
L 698.766207 340.229643 
L 698.766207 339.984968 
L 695.541846 339.984968 
z
" clip-path="url(#p069d708bea)" style="fill: #0000ff"/>
   </g>
   <g id="patch_67">
    <path d="M 714.888017 340.229643 
L 718.112379 340.229643 
L 718.112379 340.017714 
L 714.888017 340.017714 
z
" clip-path="url(#p069d708bea)" style="fill: #0000ff"/>
   </g>
   <g id="patch_68">
    <path d="M 734.234188 340.229643 
L 737.45855 340.229643 
L 737.45855 340.231619 
L 734.234188 340.231619 
z
" clip-path="url(#p069d708bea)" style="fill: #0000ff"/>
   </g>
   <g id="patch_69">
    <path d="M 753.580359 340.229643 
L 756.804721 340.229643 
L 756.804721 340.243896 
L 753.580359 340.243896 
z
" clip-path="url(#p069d708bea)" style="fill: #0000ff"/>
   </g>
   <g id="patch_70">
    <path d="M 772.92653 340.229643 
L 776.150892 340.229643 
L 776.150892 340.229643 
L 772.92653 340.229643 
z
" clip-path="url(#p069d708bea)" style="fill: #0000ff"/>
   </g>
   <g id="patch_71">
    <path d="M 137.727246 340.229643 
L 140.951608 340.229643 
L 140.951608 320.902416 
L 137.727246 320.902416 
z
" clip-path="url(#p069d708bea)" style="fill: #46cbec"/>
   </g>
   <g id="patch_72">
    <path d="M 157.073417 340.229643 
L 160.297779 340.229643 
L 160.297779 327.005325 
L 157.073417 327.005325 
z
" clip-path="url(#p069d708bea)" style="fill: #46cbec"/>
   </g>
   <g id="patch_73">
    <path d="M 176.419589 340.229643 
L 179.64395 340.229643 
L 179.64395 108.504832 
L 176.419589 108.504832 
z
" clip-path="url(#p069d708bea)" style="fill: #46cbec"/>
   </g>
   <g id="patch_74">
    <path d="M 195.76576 340.229643 
L 198.990121 340.229643 
L 198.990121 341.031512 
L 195.76576 341.031512 
z
" clip-path="url(#p069d708bea)" style="fill: #46cbec"/>
   </g>
   <g id="patch_75">
    <path d="M 215.111931 340.229643 
L 218.336293 340.229643 
L 218.336293 322.196331 
L 215.111931 322.196331 
z
" clip-path="url(#p069d708bea)" style="fill: #46cbec"/>
   </g>
   <g id="patch_76">
    <path d="M 234.458102 340.229643 
L 237.682464 340.229643 
L 237.682464 279.520787 
L 234.458102 279.520787 
z
" clip-path="url(#p069d708bea)" style="fill: #46cbec"/>
   </g>
   <g id="patch_77">
    <path d="M 253.804273 340.229643 
L 257.028635 340.229643 
L 257.028635 336.976795 
L 253.804273 336.976795 
z
" clip-path="url(#p069d708bea)" style="fill: #46cbec"/>
   </g>
   <g id="patch_78">
    <path d="M 273.150444 340.229643 
L 276.374806 340.229643 
L 276.374806 340.088536 
L 273.150444 340.088536 
z
" clip-path="url(#p069d708bea)" style="fill: #46cbec"/>
   </g>
   <g id="patch_79">
    <path d="M 292.496615 340.229643 
L 295.720977 340.229643 
L 295.720977 330.24692 
L 292.496615 330.24692 
z
" clip-path="url(#p069d708bea)" style="fill: #46cbec"/>
   </g>
   <g id="patch_80">
    <path d="M 311.842786 340.229643 
L 315.067148 340.229643 
L 315.067148 304.070108 
L 311.842786 304.070108 
z
" clip-path="url(#p069d708bea)" style="fill: #46cbec"/>
   </g>
   <g id="patch_81">
    <path d="M 331.188957 340.229643 
L 334.413319 340.229643 
L 334.413319 350.382632 
L 331.188957 350.382632 
z
" clip-path="url(#p069d708bea)" style="fill: #46cbec"/>
   </g>
   <g id="patch_82">
    <path d="M 350.535128 340.229643 
L 353.75949 340.229643 
L 353.75949 339.774853 
L 350.535128 339.774853 
z
" clip-path="url(#p069d708bea)" style="fill: #46cbec"/>
   </g>
   <g id="patch_83">
    <path d="M 369.881299 340.229643 
L 373.105661 340.229643 
L 373.105661 322.47798 
L 369.881299 322.47798 
z
" clip-path="url(#p069d708bea)" style="fill: #46cbec"/>
   </g>
   <g id="patch_84">
    <path d="M 389.22747 340.229643 
L 392.451832 340.229643 
L 392.451832 338.238829 
L 389.22747 338.238829 
z
" clip-path="url(#p069d708bea)" style="fill: #46cbec"/>
   </g>
   <g id="patch_85">
    <path d="M 408.573641 340.229643 
L 411.798003 340.229643 
L 411.798003 329.314668 
L 408.573641 329.314668 
z
" clip-path="url(#p069d708bea)" style="fill: #46cbec"/>
   </g>
   <g id="patch_86">
    <path d="M 427.919812 340.229643 
L 431.144174 340.229643 
L 431.144174 340.015863 
L 427.919812 340.015863 
z
" clip-path="url(#p069d708bea)" style="fill: #46cbec"/>
   </g>
   <g id="patch_87">
    <path d="M 447.265984 340.229643 
L 450.490345 340.229643 
L 450.490345 331.702871 
L 447.265984 331.702871 
z
" clip-path="url(#p069d708bea)" style="fill: #46cbec"/>
   </g>
   <g id="patch_88">
    <path d="M 466.612155 340.229643 
L 469.836516 340.229643 
L 469.836516 340.237003 
L 466.612155 340.237003 
z
" clip-path="url(#p069d708bea)" style="fill: #46cbec"/>
   </g>
   <g id="patch_89">
    <path d="M 485.958326 340.229643 
L 489.182688 340.229643 
L 489.182688 339.300677 
L 485.958326 339.300677 
z
" clip-path="url(#p069d708bea)" style="fill: #46cbec"/>
   </g>
   <g id="patch_90">
    <path d="M 505.304497 340.229643 
L 508.528859 340.229643 
L 508.528859 340.234889 
L 505.304497 340.234889 
z
" clip-path="url(#p069d708bea)" style="fill: #46cbec"/>
   </g>
   <g id="patch_91">
    <path d="M 524.650668 340.229643 
L 527.87503 340.229643 
L 527.87503 339.961433 
L 524.650668 339.961433 
z
" clip-path="url(#p069d708bea)" style="fill: #46cbec"/>
   </g>
   <g id="patch_92">
    <path d="M 543.996839 340.229643 
L 547.221201 340.229643 
L 547.221201 340.044088 
L 543.996839 340.044088 
z
" clip-path="url(#p069d708bea)" style="fill: #46cbec"/>
   </g>
   <g id="patch_93">
    <path d="M 563.34301 340.229643 
L 566.567372 340.229643 
L 566.567372 340.049554 
L 563.34301 340.049554 
z
" clip-path="url(#p069d708bea)" style="fill: #46cbec"/>
   </g>
   <g id="patch_94">
    <path d="M 582.689181 340.229643 
L 585.913543 340.229643 
L 585.913543 340.163123 
L 582.689181 340.163123 
z
" clip-path="url(#p069d708bea)" style="fill: #46cbec"/>
   </g>
   <g id="patch_95">
    <path d="M 602.035352 340.229643 
L 605.259714 340.229643 
L 605.259714 340.249518 
L 602.035352 340.249518 
z
" clip-path="url(#p069d708bea)" style="fill: #46cbec"/>
   </g>
   <g id="patch_96">
    <path d="M 621.381523 340.229643 
L 624.605885 340.229643 
L 624.605885 340.215787 
L 621.381523 340.215787 
z
" clip-path="url(#p069d708bea)" style="fill: #46cbec"/>
   </g>
   <g id="patch_97">
    <path d="M 640.727694 340.229643 
L 643.952056 340.229643 
L 643.952056 340.173942 
L 640.727694 340.173942 
z
" clip-path="url(#p069d708bea)" style="fill: #46cbec"/>
   </g>
   <g id="patch_98">
    <path d="M 660.073865 340.229643 
L 663.298227 340.229643 
L 663.298227 340.291188 
L 660.073865 340.291188 
z
" clip-path="url(#p069d708bea)" style="fill: #46cbec"/>
   </g>
   <g id="patch_99">
    <path d="M 679.420036 340.229643 
L 682.644398 340.229643 
L 682.644398 340.286896 
L 679.420036 340.286896 
z
" clip-path="url(#p069d708bea)" style="fill: #46cbec"/>
   </g>
   <g id="patch_100">
    <path d="M 698.766207 340.229643 
L 701.990569 340.229643 
L 701.990569 340.152924 
L 698.766207 340.152924 
z
" clip-path="url(#p069d708bea)" style="fill: #46cbec"/>
   </g>
   <g id="patch_101">
    <path d="M 718.112379 340.229643 
L 721.33674 340.229643 
L 721.33674 340.224496 
L 718.112379 340.224496 
z
" clip-path="url(#p069d708bea)" style="fill: #46cbec"/>
   </g>
   <g id="patch_102">
    <path d="M 737.45855 340.229643 
L 740.682911 340.229643 
L 740.682911 340.173937 
L 737.45855 340.173937 
z
" clip-path="url(#p069d708bea)" style="fill: #46cbec"/>
   </g>
   <g id="patch_103">
    <path d="M 756.804721 340.229643 
L 760.029083 340.229643 
L 760.029083 340.220844 
L 756.804721 340.220844 
z
" clip-path="url(#p069d708bea)" style="fill: #46cbec"/>
   </g>
   <g id="patch_104">
    <path d="M 776.150892 340.229643 
L 779.375254 340.229643 
L 779.375254 340.229643 
L 776.150892 340.229643 
z
" clip-path="url(#p069d708bea)" style="fill: #46cbec"/>
   </g>
   <g id="patch_105">
    <path d="M 140.951608 340.229643 
L 144.17597 340.229643 
L 144.17597 344.335027 
L 140.951608 344.335027 
z
" clip-path="url(#p069d708bea)" style="fill: #ff0000"/>
   </g>
   <g id="patch_106">
    <path d="M 160.297779 340.229643 
L 163.522141 340.229643 
L 163.522141 339.081627 
L 160.297779 339.081627 
z
" clip-path="url(#p069d708bea)" style="fill: #ff0000"/>
   </g>
   <g id="patch_107">
    <path d="M 179.64395 340.229643 
L 182.868312 340.229643 
L 182.868312 332.421395 
L 179.64395 332.421395 
z
" clip-path="url(#p069d708bea)" style="fill: #ff0000"/>
   </g>
   <g id="patch_108">
    <path d="M 198.990121 340.229643 
L 202.214483 340.229643 
L 202.214483 339.276491 
L 198.990121 339.276491 
z
" clip-path="url(#p069d708bea)" style="fill: #ff0000"/>
   </g>
   <g id="patch_109">
    <path d="M 218.336293 340.229643 
L 221.560654 340.229643 
L 221.560654 230.894284 
L 218.336293 230.894284 
z
" clip-path="url(#p069d708bea)" style="fill: #ff0000"/>
   </g>
   <g id="patch_110">
    <path d="M 237.682464 340.229643 
L 240.906825 340.229643 
L 240.906825 350.836364 
L 237.682464 350.836364 
z
" clip-path="url(#p069d708bea)" style="fill: #ff0000"/>
   </g>
   <g id="patch_111">
    <path d="M 257.028635 340.229643 
L 260.252997 340.229643 
L 260.252997 342.501083 
L 257.028635 342.501083 
z
" clip-path="url(#p069d708bea)" style="fill: #ff0000"/>
   </g>
   <g id="patch_112">
    <path d="M 276.374806 340.229643 
L 279.599168 340.229643 
L 279.599168 339.782593 
L 276.374806 339.782593 
z
" clip-path="url(#p069d708bea)" style="fill: #ff0000"/>
   </g>
   <g id="patch_113">
    <path d="M 295.720977 340.229643 
L 298.945339 340.229643 
L 298.945339 48.139536 
L 295.720977 48.139536 
z
" clip-path="url(#p069d708bea)" style="fill: #ff0000"/>
   </g>
   <g id="patch_114">
    <path d="M 315.067148 340.229643 
L 318.29151 340.229643 
L 318.29151 339.323282 
L 315.067148 339.323282 
z
" clip-path="url(#p069d708bea)" style="fill: #ff0000"/>
   </g>
   <g id="patch_115">
    <path d="M 334.413319 340.229643 
L 337.637681 340.229643 
L 337.637681 318.725881 
L 334.413319 318.725881 
z
" clip-path="url(#p069d708bea)" style="fill: #ff0000"/>
   </g>
   <g id="patch_116">
    <path d="M 353.75949 340.229643 
L 356.983852 340.229643 
L 356.983852 339.080908 
L 353.75949 339.080908 
z
" clip-path="url(#p069d708bea)" style="fill: #ff0000"/>
   </g>
   <g id="patch_117">
    <path d="M 373.105661 340.229643 
L 376.330023 340.229643 
L 376.330023 342.919787 
L 373.105661 342.919787 
z
" clip-path="url(#p069d708bea)" style="fill: #ff0000"/>
   </g>
   <g id="patch_118">
    <path d="M 392.451832 340.229643 
L 395.676194 340.229643 
L 395.676194 329.011848 
L 392.451832 329.011848 
z
" clip-path="url(#p069d708bea)" style="fill: #ff0000"/>
   </g>
   <g id="patch_119">
    <path d="M 411.798003 340.229643 
L 415.022365 340.229643 
L 415.022365 340.752884 
L 411.798003 340.752884 
z
" clip-path="url(#p069d708bea)" style="fill: #ff0000"/>
   </g>
   <g id="patch_120">
    <path d="M 431.144174 340.229643 
L 434.368536 340.229643 
L 434.368536 339.239896 
L 431.144174 339.239896 
z
" clip-path="url(#p069d708bea)" style="fill: #ff0000"/>
   </g>
   <g id="patch_121">
    <path d="M 450.490345 340.229643 
L 453.714707 340.229643 
L 453.714707 338.851738 
L 450.490345 338.851738 
z
" clip-path="url(#p069d708bea)" style="fill: #ff0000"/>
   </g>
   <g id="patch_122">
    <path d="M 469.836516 340.229643 
L 473.060878 340.229643 
L 473.060878 339.929887 
L 469.836516 339.929887 
z
" clip-path="url(#p069d708bea)" style="fill: #ff0000"/>
   </g>
   <g id="patch_123">
    <path d="M 489.182688 340.229643 
L 492.407049 340.229643 
L 492.407049 337.642522 
L 489.182688 337.642522 
z
" clip-path="url(#p069d708bea)" style="fill: #ff0000"/>
   </g>
   <g id="patch_124">
    <path d="M 508.528859 340.229643 
L 511.75322 340.229643 
L 511.75322 340.121026 
L 508.528859 340.121026 
z
" clip-path="url(#p069d708bea)" style="fill: #ff0000"/>
   </g>
   <g id="patch_125">
    <path d="M 527.87503 340.229643 
L 531.099392 340.229643 
L 531.099392 339.817397 
L 527.87503 339.817397 
z
" clip-path="url(#p069d708bea)" style="fill: #ff0000"/>
   </g>
   <g id="patch_126">
    <path d="M 547.221201 340.229643 
L 550.445563 340.229643 
L 550.445563 340.337097 
L 547.221201 340.337097 
z
" clip-path="url(#p069d708bea)" style="fill: #ff0000"/>
   </g>
   <g id="patch_127">
    <path d="M 566.567372 340.229643 
L 569.791734 340.229643 
L 569.791734 338.892358 
L 566.567372 338.892358 
z
" clip-path="url(#p069d708bea)" style="fill: #ff0000"/>
   </g>
   <g id="patch_128">
    <path d="M 585.913543 340.229643 
L 589.137905 340.229643 
L 589.137905 339.922282 
L 585.913543 339.922282 
z
" clip-path="url(#p069d708bea)" style="fill: #ff0000"/>
   </g>
   <g id="patch_129">
    <path d="M 605.259714 340.229643 
L 608.484076 340.229643 
L 608.484076 340.024181 
L 605.259714 340.024181 
z
" clip-path="url(#p069d708bea)" style="fill: #ff0000"/>
   </g>
   <g id="patch_130">
    <path d="M 624.605885 340.229643 
L 627.830247 340.229643 
L 627.830247 340.24082 
L 624.605885 340.24082 
z
" clip-path="url(#p069d708bea)" style="fill: #ff0000"/>
   </g>
   <g id="patch_131">
    <path d="M 643.952056 340.229643 
L 647.176418 340.229643 
L 647.176418 340.188508 
L 643.952056 340.188508 
z
" clip-path="url(#p069d708bea)" style="fill: #ff0000"/>
   </g>
   <g id="patch_132">
    <path d="M 663.298227 340.229643 
L 666.522589 340.229643 
L 666.522589 339.719523 
L 663.298227 339.719523 
z
" clip-path="url(#p069d708bea)" style="fill: #ff0000"/>
   </g>
   <g id="patch_133">
    <path d="M 682.644398 340.229643 
L 685.86876 340.229643 
L 685.86876 340.099977 
L 682.644398 340.099977 
z
" clip-path="url(#p069d708bea)" style="fill: #ff0000"/>
   </g>
   <g id="patch_134">
    <path d="M 701.990569 340.229643 
L 705.214931 340.229643 
L 705.214931 339.072636 
L 701.990569 339.072636 
z
" clip-path="url(#p069d708bea)" style="fill: #ff0000"/>
   </g>
   <g id="patch_135">
    <path d="M 721.33674 340.229643 
L 724.561102 340.229643 
L 724.561102 340.325901 
L 721.33674 340.325901 
z
" clip-path="url(#p069d708bea)" style="fill: #ff0000"/>
   </g>
   <g id="patch_136">
    <path d="M 740.682911 340.229643 
L 743.907273 340.229643 
L 743.907273 340.235181 
L 740.682911 340.235181 
z
" clip-path="url(#p069d708bea)" style="fill: #ff0000"/>
   </g>
   <g id="patch_137">
    <path d="M 760.029083 340.229643 
L 763.253444 340.229643 
L 763.253444 340.255357 
L 760.029083 340.255357 
z
" clip-path="url(#p069d708bea)" style="fill: #ff0000"/>
   </g>
   <g id="patch_138">
    <path d="M 779.375254 340.229643 
L 782.599615 340.229643 
L 782.599615 340.229643 
L 779.375254 340.229643 
z
" clip-path="url(#p069d708bea)" style="fill: #ff0000"/>
   </g>
   <g id="patch_139">
    <path d="M 144.17597 340.229643 
L 147.400332 340.229643 
L 147.400332 337.09442 
L 144.17597 337.09442 
z
" clip-path="url(#p069d708bea)"/>
   </g>
   <g id="patch_140">
    <path d="M 163.522141 340.229643 
L 166.746503 340.229643 
L 166.746503 340.274439 
L 163.522141 340.274439 
z
" clip-path="url(#p069d708bea)"/>
   </g>
   <g id="patch_141">
    <path d="M 182.868312 340.229643 
L 186.092674 340.229643 
L 186.092674 340.553399 
L 182.868312 340.553399 
z
" clip-path="url(#p069d708bea)"/>
   </g>
   <g id="patch_142">
    <path d="M 202.214483 340.229643 
L 205.438845 340.229643 
L 205.438845 338.946269 
L 202.214483 338.946269 
z
" clip-path="url(#p069d708bea)"/>
   </g>
   <g id="patch_143">
    <path d="M 221.560654 340.229643 
L 224.785016 340.229643 
L 224.785016 339.229694 
L 221.560654 339.229694 
z
" clip-path="url(#p069d708bea)"/>
   </g>
   <g id="patch_144">
    <path d="M 240.906825 340.229643 
L 244.131187 340.229643 
L 244.131187 340.951492 
L 240.906825 340.951492 
z
" clip-path="url(#p069d708bea)"/>
   </g>
   <g id="patch_145">
    <path d="M 260.252997 340.229643 
L 263.477358 340.229643 
L 263.477358 338.292493 
L 260.252997 338.292493 
z
" clip-path="url(#p069d708bea)"/>
   </g>
   <g id="patch_146">
    <path d="M 279.599168 340.229643 
L 282.823529 340.229643 
L 282.823529 340.043788 
L 279.599168 340.043788 
z
" clip-path="url(#p069d708bea)"/>
   </g>
   <g id="patch_147">
    <path d="M 298.945339 340.229643 
L 302.169701 340.229643 
L 302.169701 340.846707 
L 298.945339 340.846707 
z
" clip-path="url(#p069d708bea)"/>
   </g>
   <g id="patch_148">
    <path d="M 318.29151 340.229643 
L 321.515872 340.229643 
L 321.515872 339.268682 
L 318.29151 339.268682 
z
" clip-path="url(#p069d708bea)"/>
   </g>
   <g id="patch_149">
    <path d="M 337.637681 340.229643 
L 340.862043 340.229643 
L 340.862043 334.535151 
L 337.637681 334.535151 
z
" clip-path="url(#p069d708bea)"/>
   </g>
   <g id="patch_150">
    <path d="M 356.983852 340.229643 
L 360.208214 340.229643 
L 360.208214 339.88802 
L 356.983852 339.88802 
z
" clip-path="url(#p069d708bea)"/>
   </g>
   <g id="patch_151">
    <path d="M 376.330023 340.229643 
L 379.554385 340.229643 
L 379.554385 337.821756 
L 376.330023 337.821756 
z
" clip-path="url(#p069d708bea)"/>
   </g>
   <g id="patch_152">
    <path d="M 395.676194 340.229643 
L 398.900556 340.229643 
L 398.900556 338.780635 
L 395.676194 338.780635 
z
" clip-path="url(#p069d708bea)"/>
   </g>
   <g id="patch_153">
    <path d="M 415.022365 340.229643 
L 418.246727 340.229643 
L 418.246727 338.596725 
L 415.022365 338.596725 
z
" clip-path="url(#p069d708bea)"/>
   </g>
   <g id="patch_154">
    <path d="M 434.368536 340.229643 
L 437.592898 340.229643 
L 437.592898 339.882777 
L 434.368536 339.882777 
z
" clip-path="url(#p069d708bea)"/>
   </g>
   <g id="patch_155">
    <path d="M 453.714707 340.229643 
L 456.939069 340.229643 
L 456.939069 338.646074 
L 453.714707 338.646074 
z
" clip-path="url(#p069d708bea)"/>
   </g>
   <g id="patch_156">
    <path d="M 473.060878 340.229643 
L 476.28524 340.229643 
L 476.28524 340.061649 
L 473.060878 340.061649 
z
" clip-path="url(#p069d708bea)"/>
   </g>
   <g id="patch_157">
    <path d="M 492.407049 340.229643 
L 495.631411 340.229643 
L 495.631411 339.708903 
L 492.407049 339.708903 
z
" clip-path="url(#p069d708bea)"/>
   </g>
   <g id="patch_158">
    <path d="M 511.75322 340.229643 
L 514.977582 340.229643 
L 514.977582 340.2055 
L 511.75322 340.2055 
z
" clip-path="url(#p069d708bea)"/>
   </g>
   <g id="patch_159">
    <path d="M 531.099392 340.229643 
L 534.323753 340.229643 
L 534.323753 339.489386 
L 531.099392 339.489386 
z
" clip-path="url(#p069d708bea)"/>
   </g>
   <g id="patch_160">
    <path d="M 550.445563 340.229643 
L 553.669924 340.229643 
L 553.669924 339.920289 
L 550.445563 339.920289 
z
" clip-path="url(#p069d708bea)"/>
   </g>
   <g id="patch_161">
    <path d="M 569.791734 340.229643 
L 573.016095 340.229643 
L 573.016095 340.076372 
L 569.791734 340.076372 
z
" clip-path="url(#p069d708bea)"/>
   </g>
   <g id="patch_162">
    <path d="M 589.137905 340.229643 
L 592.362267 340.229643 
L 592.362267 340.148618 
L 589.137905 340.148618 
z
" clip-path="url(#p069d708bea)"/>
   </g>
   <g id="patch_163">
    <path d="M 608.484076 340.229643 
L 611.708438 340.229643 
L 611.708438 340.177018 
L 608.484076 340.177018 
z
" clip-path="url(#p069d708bea)"/>
   </g>
   <g id="patch_164">
    <path d="M 627.830247 340.229643 
L 631.054609 340.229643 
L 631.054609 340.19912 
L 627.830247 340.19912 
z
" clip-path="url(#p069d708bea)"/>
   </g>
   <g id="patch_165">
    <path d="M 647.176418 340.229643 
L 650.40078 340.229643 
L 650.40078 340.16085 
L 647.176418 340.16085 
z
" clip-path="url(#p069d708bea)"/>
   </g>
   <g id="patch_166">
    <path d="M 666.522589 340.229643 
L 669.746951 340.229643 
L 669.746951 340.11698 
L 666.522589 340.11698 
z
" clip-path="url(#p069d708bea)"/>
   </g>
   <g id="patch_167">
    <path d="M 685.86876 340.229643 
L 689.093122 340.229643 
L 689.093122 340.199049 
L 685.86876 340.199049 
z
" clip-path="url(#p069d708bea)"/>
   </g>
   <g id="patch_168">
    <path d="M 705.214931 340.229643 
L 708.439293 340.229643 
L 708.439293 339.985748 
L 705.214931 339.985748 
z
" clip-path="url(#p069d708bea)"/>
   </g>
   <g id="patch_169">
    <path d="M 724.561102 340.229643 
L 727.785464 340.229643 
L 727.785464 340.222972 
L 724.561102 340.222972 
z
" clip-path="url(#p069d708bea)"/>
   </g>
   <g id="patch_170">
    <path d="M 743.907273 340.229643 
L 747.131635 340.229643 
L 747.131635 340.182657 
L 743.907273 340.182657 
z
" clip-path="url(#p069d708bea)"/>
   </g>
   <g id="patch_171">
    <path d="M 763.253444 340.229643 
L 766.477806 340.229643 
L 766.477806 340.173795 
L 763.253444 340.173795 
z
" clip-path="url(#p069d708bea)"/>
   </g>
   <g id="patch_172">
    <path d="M 782.599615 340.229643 
L 785.823977 340.229643 
L 785.823977 340.229643 
L 782.599615 340.229643 
z
" clip-path="url(#p069d708bea)"/>
   </g>
   <g id="matplotlib.axis_1">
    <g id="xtick_1">
     <g id="line2d_1">
      <defs>
       <path id="med2d1e6048" d="M 0 0 
L 0 3.5 
" style="stroke: #000000; stroke-width: 0.8"/>
      </defs>
      <g>
       <use xlink:href="#med2d1e6048" x="142.563789" y="367.2" style="stroke: #000000; stroke-width: 0.8"/>
      </g>
     </g>
     <g id="text_1">
      <!-- secretory -->
      <g transform="translate(146.426914 439.95625)rotate(-90)scale(0.14 -0.14)">
       <defs>
        <path id="DejaVuSans-73" d="M 2834 3397 
L 2834 2853 
Q 2591 2978 2328 3040 
Q 2066 3103 1784 3103 
Q 1356 3103 1142 2972 
Q 928 2841 928 2578 
Q 928 2378 1081 2264 
Q 1234 2150 1697 2047 
L 1894 2003 
Q 2506 1872 2764 1633 
Q 3022 1394 3022 966 
Q 3022 478 2636 193 
Q 2250 -91 1575 -91 
Q 1294 -91 989 -36 
Q 684 19 347 128 
L 347 722 
Q 666 556 975 473 
Q 1284 391 1588 391 
Q 1994 391 2212 530 
Q 2431 669 2431 922 
Q 2431 1156 2273 1281 
Q 2116 1406 1581 1522 
L 1381 1569 
Q 847 1681 609 1914 
Q 372 2147 372 2553 
Q 372 3047 722 3315 
Q 1072 3584 1716 3584 
Q 2034 3584 2315 3537 
Q 2597 3491 2834 3397 
z
" transform="scale(0.015625)"/>
        <path id="DejaVuSans-65" d="M 3597 1894 
L 3597 1613 
L 953 1613 
Q 991 1019 1311 708 
Q 1631 397 2203 397 
Q 2534 397 2845 478 
Q 3156 559 3463 722 
L 3463 178 
Q 3153 47 2828 -22 
Q 2503 -91 2169 -91 
Q 1331 -91 842 396 
Q 353 884 353 1716 
Q 353 2575 817 3079 
Q 1281 3584 2069 3584 
Q 2775 3584 3186 3129 
Q 3597 2675 3597 1894 
z
M 3022 2063 
Q 3016 2534 2758 2815 
Q 2500 3097 2075 3097 
Q 1594 3097 1305 2825 
Q 1016 2553 972 2059 
L 3022 2063 
z
" transform="scale(0.015625)"/>
        <path id="DejaVuSans-63" d="M 3122 3366 
L 3122 2828 
Q 2878 2963 2633 3030 
Q 2388 3097 2138 3097 
Q 1578 3097 1268 2742 
Q 959 2388 959 1747 
Q 959 1106 1268 751 
Q 1578 397 2138 397 
Q 2388 397 2633 464 
Q 2878 531 3122 666 
L 3122 134 
Q 2881 22 2623 -34 
Q 2366 -91 2075 -91 
Q 1284 -91 818 406 
Q 353 903 353 1747 
Q 353 2603 823 3093 
Q 1294 3584 2113 3584 
Q 2378 3584 2631 3529 
Q 2884 3475 3122 3366 
z
" transform="scale(0.015625)"/>
        <path id="DejaVuSans-72" d="M 2631 2963 
Q 2534 3019 2420 3045 
Q 2306 3072 2169 3072 
Q 1681 3072 1420 2755 
Q 1159 2438 1159 1844 
L 1159 0 
L 581 0 
L 581 3500 
L 1159 3500 
L 1159 2956 
Q 1341 3275 1631 3429 
Q 1922 3584 2338 3584 
Q 2397 3584 2469 3576 
Q 2541 3569 2628 3553 
L 2631 2963 
z
" transform="scale(0.015625)"/>
        <path id="DejaVuSans-74" d="M 1172 4494 
L 1172 3500 
L 2356 3500 
L 2356 3053 
L 1172 3053 
L 1172 1153 
Q 1172 725 1289 603 
Q 1406 481 1766 481 
L 2356 481 
L 2356 0 
L 1766 0 
Q 1100 0 847 248 
Q 594 497 594 1153 
L 594 3053 
L 172 3053 
L 172 3500 
L 594 3500 
L 594 4494 
L 1172 4494 
z
" transform="scale(0.015625)"/>
        <path id="DejaVuSans-6f" d="M 1959 3097 
Q 1497 3097 1228 2736 
Q 959 2375 959 1747 
Q 959 1119 1226 758 
Q 1494 397 1959 397 
Q 2419 397 2687 759 
Q 2956 1122 2956 1747 
Q 2956 2369 2687 2733 
Q 2419 3097 1959 3097 
z
M 1959 3584 
Q 2709 3584 3137 3096 
Q 3566 2609 3566 1747 
Q 3566 888 3137 398 
Q 2709 -91 1959 -91 
Q 1206 -91 779 398 
Q 353 888 353 1747 
Q 353 2609 779 3096 
Q 1206 3584 1959 3584 
z
" transform="scale(0.015625)"/>
        <path id="DejaVuSans-79" d="M 2059 -325 
Q 1816 -950 1584 -1140 
Q 1353 -1331 966 -1331 
L 506 -1331 
L 506 -850 
L 844 -850 
Q 1081 -850 1212 -737 
Q 1344 -625 1503 -206 
L 1606 56 
L 191 3500 
L 800 3500 
L 1894 763 
L 2988 3500 
L 3597 3500 
L 2059 -325 
z
" transform="scale(0.015625)"/>
       </defs>
       <use xlink:href="#DejaVuSans-73"/>
       <use xlink:href="#DejaVuSans-65" x="52.099609"/>
       <use xlink:href="#DejaVuSans-63" x="113.623047"/>
       <use xlink:href="#DejaVuSans-72" x="168.603516"/>
       <use xlink:href="#DejaVuSans-65" x="207.466797"/>
       <use xlink:href="#DejaVuSans-74" x="268.990234"/>
       <use xlink:href="#DejaVuSans-6f" x="308.199219"/>
       <use xlink:href="#DejaVuSans-72" x="369.380859"/>
       <use xlink:href="#DejaVuSans-79" x="410.494141"/>
      </g>
     </g>
    </g>
    <g id="xtick_2">
     <g id="line2d_2">
      <g>
       <use xlink:href="#med2d1e6048" x="161.90996" y="367.2" style="stroke: #000000; stroke-width: 0.8"/>
      </g>
     </g>
     <g id="text_2">
      <!-- epithelial -->
      <g transform="translate(165.773085 438.814375)rotate(-90)scale(0.14 -0.14)">
       <defs>
        <path id="DejaVuSans-70" d="M 1159 525 
L 1159 -1331 
L 581 -1331 
L 581 3500 
L 1159 3500 
L 1159 2969 
Q 1341 3281 1617 3432 
Q 1894 3584 2278 3584 
Q 2916 3584 3314 3078 
Q 3713 2572 3713 1747 
Q 3713 922 3314 415 
Q 2916 -91 2278 -91 
Q 1894 -91 1617 61 
Q 1341 213 1159 525 
z
M 3116 1747 
Q 3116 2381 2855 2742 
Q 2594 3103 2138 3103 
Q 1681 3103 1420 2742 
Q 1159 2381 1159 1747 
Q 1159 1113 1420 752 
Q 1681 391 2138 391 
Q 2594 391 2855 752 
Q 3116 1113 3116 1747 
z
" transform="scale(0.015625)"/>
        <path id="DejaVuSans-69" d="M 603 3500 
L 1178 3500 
L 1178 0 
L 603 0 
L 603 3500 
z
M 603 4863 
L 1178 4863 
L 1178 4134 
L 603 4134 
L 603 4863 
z
" transform="scale(0.015625)"/>
        <path id="DejaVuSans-68" d="M 3513 2113 
L 3513 0 
L 2938 0 
L 2938 2094 
Q 2938 2591 2744 2837 
Q 2550 3084 2163 3084 
Q 1697 3084 1428 2787 
Q 1159 2491 1159 1978 
L 1159 0 
L 581 0 
L 581 4863 
L 1159 4863 
L 1159 2956 
Q 1366 3272 1645 3428 
Q 1925 3584 2291 3584 
Q 2894 3584 3203 3211 
Q 3513 2838 3513 2113 
z
" transform="scale(0.015625)"/>
        <path id="DejaVuSans-6c" d="M 603 4863 
L 1178 4863 
L 1178 0 
L 603 0 
L 603 4863 
z
" transform="scale(0.015625)"/>
        <path id="DejaVuSans-61" d="M 2194 1759 
Q 1497 1759 1228 1600 
Q 959 1441 959 1056 
Q 959 750 1161 570 
Q 1363 391 1709 391 
Q 2188 391 2477 730 
Q 2766 1069 2766 1631 
L 2766 1759 
L 2194 1759 
z
M 3341 1997 
L 3341 0 
L 2766 0 
L 2766 531 
Q 2569 213 2275 61 
Q 1981 -91 1556 -91 
Q 1019 -91 701 211 
Q 384 513 384 1019 
Q 384 1609 779 1909 
Q 1175 2209 1959 2209 
L 2766 2209 
L 2766 2266 
Q 2766 2663 2505 2880 
Q 2244 3097 1772 3097 
Q 1472 3097 1187 3025 
Q 903 2953 641 2809 
L 641 3341 
Q 956 3463 1253 3523 
Q 1550 3584 1831 3584 
Q 2591 3584 2966 3190 
Q 3341 2797 3341 1997 
z
" transform="scale(0.015625)"/>
       </defs>
       <use xlink:href="#DejaVuSans-65"/>
       <use xlink:href="#DejaVuSans-70" x="61.523438"/>
       <use xlink:href="#DejaVuSans-69" x="125"/>
       <use xlink:href="#DejaVuSans-74" x="152.783203"/>
       <use xlink:href="#DejaVuSans-68" x="191.992188"/>
       <use xlink:href="#DejaVuSans-65" x="255.371094"/>
       <use xlink:href="#DejaVuSans-6c" x="316.894531"/>
       <use xlink:href="#DejaVuSans-69" x="344.677734"/>
       <use xlink:href="#DejaVuSans-61" x="372.460938"/>
       <use xlink:href="#DejaVuSans-6c" x="433.740234"/>
      </g>
     </g>
    </g>
    <g id="xtick_3">
     <g id="line2d_3">
      <g>
       <use xlink:href="#med2d1e6048" x="181.256131" y="367.2" style="stroke: #000000; stroke-width: 0.8"/>
      </g>
     </g>
     <g id="text_3">
      <!-- proliferating smooth muscle -->
      <g transform="translate(185.119256 571.215)rotate(-90)scale(0.14 -0.14)">
       <defs>
        <path id="DejaVuSans-66" d="M 2375 4863 
L 2375 4384 
L 1825 4384 
Q 1516 4384 1395 4259 
Q 1275 4134 1275 3809 
L 1275 3500 
L 2222 3500 
L 2222 3053 
L 1275 3053 
L 1275 0 
L 697 0 
L 697 3053 
L 147 3053 
L 147 3500 
L 697 3500 
L 697 3744 
Q 697 4328 969 4595 
Q 1241 4863 1831 4863 
L 2375 4863 
z
" transform="scale(0.015625)"/>
        <path id="DejaVuSans-6e" d="M 3513 2113 
L 3513 0 
L 2938 0 
L 2938 2094 
Q 2938 2591 2744 2837 
Q 2550 3084 2163 3084 
Q 1697 3084 1428 2787 
Q 1159 2491 1159 1978 
L 1159 0 
L 581 0 
L 581 3500 
L 1159 3500 
L 1159 2956 
Q 1366 3272 1645 3428 
Q 1925 3584 2291 3584 
Q 2894 3584 3203 3211 
Q 3513 2838 3513 2113 
z
" transform="scale(0.015625)"/>
        <path id="DejaVuSans-67" d="M 2906 1791 
Q 2906 2416 2648 2759 
Q 2391 3103 1925 3103 
Q 1463 3103 1205 2759 
Q 947 2416 947 1791 
Q 947 1169 1205 825 
Q 1463 481 1925 481 
Q 2391 481 2648 825 
Q 2906 1169 2906 1791 
z
M 3481 434 
Q 3481 -459 3084 -895 
Q 2688 -1331 1869 -1331 
Q 1566 -1331 1297 -1286 
Q 1028 -1241 775 -1147 
L 775 -588 
Q 1028 -725 1275 -790 
Q 1522 -856 1778 -856 
Q 2344 -856 2625 -561 
Q 2906 -266 2906 331 
L 2906 616 
Q 2728 306 2450 153 
Q 2172 0 1784 0 
Q 1141 0 747 490 
Q 353 981 353 1791 
Q 353 2603 747 3093 
Q 1141 3584 1784 3584 
Q 2172 3584 2450 3431 
Q 2728 3278 2906 2969 
L 2906 3500 
L 3481 3500 
L 3481 434 
z
" transform="scale(0.015625)"/>
        <path id="DejaVuSans-20" transform="scale(0.015625)"/>
        <path id="DejaVuSans-6d" d="M 3328 2828 
Q 3544 3216 3844 3400 
Q 4144 3584 4550 3584 
Q 5097 3584 5394 3201 
Q 5691 2819 5691 2113 
L 5691 0 
L 5113 0 
L 5113 2094 
Q 5113 2597 4934 2840 
Q 4756 3084 4391 3084 
Q 3944 3084 3684 2787 
Q 3425 2491 3425 1978 
L 3425 0 
L 2847 0 
L 2847 2094 
Q 2847 2600 2669 2842 
Q 2491 3084 2119 3084 
Q 1678 3084 1418 2786 
Q 1159 2488 1159 1978 
L 1159 0 
L 581 0 
L 581 3500 
L 1159 3500 
L 1159 2956 
Q 1356 3278 1631 3431 
Q 1906 3584 2284 3584 
Q 2666 3584 2933 3390 
Q 3200 3197 3328 2828 
z
" transform="scale(0.015625)"/>
        <path id="DejaVuSans-75" d="M 544 1381 
L 544 3500 
L 1119 3500 
L 1119 1403 
Q 1119 906 1312 657 
Q 1506 409 1894 409 
Q 2359 409 2629 706 
Q 2900 1003 2900 1516 
L 2900 3500 
L 3475 3500 
L 3475 0 
L 2900 0 
L 2900 538 
Q 2691 219 2414 64 
Q 2138 -91 1772 -91 
Q 1169 -91 856 284 
Q 544 659 544 1381 
z
M 1991 3584 
L 1991 3584 
z
" transform="scale(0.015625)"/>
       </defs>
       <use xlink:href="#DejaVuSans-70"/>
       <use xlink:href="#DejaVuSans-72" x="63.476562"/>
       <use xlink:href="#DejaVuSans-6f" x="102.339844"/>
       <use xlink:href="#DejaVuSans-6c" x="163.521484"/>
       <use xlink:href="#DejaVuSans-69" x="191.304688"/>
       <use xlink:href="#DejaVuSans-66" x="219.087891"/>
       <use xlink:href="#DejaVuSans-65" x="254.292969"/>
       <use xlink:href="#DejaVuSans-72" x="315.816406"/>
       <use xlink:href="#DejaVuSans-61" x="356.929688"/>
       <use xlink:href="#DejaVuSans-74" x="418.208984"/>
       <use xlink:href="#DejaVuSans-69" x="457.417969"/>
       <use xlink:href="#DejaVuSans-6e" x="485.201172"/>
       <use xlink:href="#DejaVuSans-67" x="548.580078"/>
       <use xlink:href="#DejaVuSans-20" x="612.056641"/>
       <use xlink:href="#DejaVuSans-73" x="643.84375"/>
       <use xlink:href="#DejaVuSans-6d" x="695.943359"/>
       <use xlink:href="#DejaVuSans-6f" x="793.355469"/>
       <use xlink:href="#DejaVuSans-6f" x="854.537109"/>
       <use xlink:href="#DejaVuSans-74" x="915.71875"/>
       <use xlink:href="#DejaVuSans-68" x="954.927734"/>
       <use xlink:href="#DejaVuSans-20" x="1018.306641"/>
       <use xlink:href="#DejaVuSans-6d" x="1050.09375"/>
       <use xlink:href="#DejaVuSans-75" x="1147.505859"/>
       <use xlink:href="#DejaVuSans-73" x="1210.884766"/>
       <use xlink:href="#DejaVuSans-63" x="1262.984375"/>
       <use xlink:href="#DejaVuSans-6c" x="1317.964844"/>
       <use xlink:href="#DejaVuSans-65" x="1345.748047"/>
      </g>
     </g>
    </g>
    <g id="xtick_4">
     <g id="line2d_4">
      <g>
       <use xlink:href="#med2d1e6048" x="200.602302" y="367.2" style="stroke: #000000; stroke-width: 0.8"/>
      </g>
     </g>
     <g id="text_4">
      <!-- lymphatic endothelial -->
      <g transform="translate(204.465427 526.040938)rotate(-90)scale(0.14 -0.14)">
       <defs>
        <path id="DejaVuSans-64" d="M 2906 2969 
L 2906 4863 
L 3481 4863 
L 3481 0 
L 2906 0 
L 2906 525 
Q 2725 213 2448 61 
Q 2172 -91 1784 -91 
Q 1150 -91 751 415 
Q 353 922 353 1747 
Q 353 2572 751 3078 
Q 1150 3584 1784 3584 
Q 2172 3584 2448 3432 
Q 2725 3281 2906 2969 
z
M 947 1747 
Q 947 1113 1208 752 
Q 1469 391 1925 391 
Q 2381 391 2643 752 
Q 2906 1113 2906 1747 
Q 2906 2381 2643 2742 
Q 2381 3103 1925 3103 
Q 1469 3103 1208 2742 
Q 947 2381 947 1747 
z
" transform="scale(0.015625)"/>
       </defs>
       <use xlink:href="#DejaVuSans-6c"/>
       <use xlink:href="#DejaVuSans-79" x="27.783203"/>
       <use xlink:href="#DejaVuSans-6d" x="86.962891"/>
       <use xlink:href="#DejaVuSans-70" x="184.375"/>
       <use xlink:href="#DejaVuSans-68" x="247.851562"/>
       <use xlink:href="#DejaVuSans-61" x="311.230469"/>
       <use xlink:href="#DejaVuSans-74" x="372.509766"/>
       <use xlink:href="#DejaVuSans-69" x="411.71875"/>
       <use xlink:href="#DejaVuSans-63" x="439.501953"/>
       <use xlink:href="#DejaVuSans-20" x="494.482422"/>
       <use xlink:href="#DejaVuSans-65" x="526.269531"/>
       <use xlink:href="#DejaVuSans-6e" x="587.792969"/>
       <use xlink:href="#DejaVuSans-64" x="651.171875"/>
       <use xlink:href="#DejaVuSans-6f" x="714.648438"/>
       <use xlink:href="#DejaVuSans-74" x="775.830078"/>
       <use xlink:href="#DejaVuSans-68" x="815.039062"/>
       <use xlink:href="#DejaVuSans-65" x="878.417969"/>
       <use xlink:href="#DejaVuSans-6c" x="939.941406"/>
       <use xlink:href="#DejaVuSans-69" x="967.724609"/>
       <use xlink:href="#DejaVuSans-61" x="995.507812"/>
       <use xlink:href="#DejaVuSans-6c" x="1056.787109"/>
      </g>
     </g>
    </g>
    <g id="xtick_5">
     <g id="line2d_5">
      <g>
       <use xlink:href="#med2d1e6048" x="219.948473" y="367.2" style="stroke: #000000; stroke-width: 0.8"/>
      </g>
     </g>
     <g id="text_5">
      <!-- arterial -->
      <g transform="translate(223.811598 424.750938)rotate(-90)scale(0.14 -0.14)">
       <use xlink:href="#DejaVuSans-61"/>
       <use xlink:href="#DejaVuSans-72" x="61.279297"/>
       <use xlink:href="#DejaVuSans-74" x="102.392578"/>
       <use xlink:href="#DejaVuSans-65" x="141.601562"/>
       <use xlink:href="#DejaVuSans-72" x="203.125"/>
       <use xlink:href="#DejaVuSans-69" x="244.238281"/>
       <use xlink:href="#DejaVuSans-61" x="272.021484"/>
       <use xlink:href="#DejaVuSans-6c" x="333.300781"/>
      </g>
     </g>
    </g>
    <g id="xtick_6">
     <g id="line2d_6">
      <g>
       <use xlink:href="#med2d1e6048" x="239.294645" y="367.2" style="stroke: #000000; stroke-width: 0.8"/>
      </g>
     </g>
     <g id="text_6">
      <!-- mesenchymal -->
      <g transform="translate(243.15777 472.193438)rotate(-90)scale(0.14 -0.14)">
       <use xlink:href="#DejaVuSans-6d"/>
       <use xlink:href="#DejaVuSans-65" x="97.412109"/>
       <use xlink:href="#DejaVuSans-73" x="158.935547"/>
       <use xlink:href="#DejaVuSans-65" x="211.035156"/>
       <use xlink:href="#DejaVuSans-6e" x="272.558594"/>
       <use xlink:href="#DejaVuSans-63" x="335.9375"/>
       <use xlink:href="#DejaVuSans-68" x="390.917969"/>
       <use xlink:href="#DejaVuSans-79" x="454.296875"/>
       <use xlink:href="#DejaVuSans-6d" x="513.476562"/>
       <use xlink:href="#DejaVuSans-61" x="610.888672"/>
       <use xlink:href="#DejaVuSans-6c" x="672.167969"/>
      </g>
     </g>
    </g>
    <g id="xtick_7">
     <g id="line2d_7">
      <g>
       <use xlink:href="#med2d1e6048" x="258.640816" y="367.2" style="stroke: #000000; stroke-width: 0.8"/>
      </g>
     </g>
     <g id="text_7">
      <!-- ciliated epithelial -->
      <g transform="translate(262.503941 494.199688)rotate(-90)scale(0.14 -0.14)">
       <use xlink:href="#DejaVuSans-63"/>
       <use xlink:href="#DejaVuSans-69" x="54.980469"/>
       <use xlink:href="#DejaVuSans-6c" x="82.763672"/>
       <use xlink:href="#DejaVuSans-69" x="110.546875"/>
       <use xlink:href="#DejaVuSans-61" x="138.330078"/>
       <use xlink:href="#DejaVuSans-74" x="199.609375"/>
       <use xlink:href="#DejaVuSans-65" x="238.818359"/>
       <use xlink:href="#DejaVuSans-64" x="300.341797"/>
       <use xlink:href="#DejaVuSans-20" x="363.818359"/>
       <use xlink:href="#DejaVuSans-65" x="395.605469"/>
       <use xlink:href="#DejaVuSans-70" x="457.128906"/>
       <use xlink:href="#DejaVuSans-69" x="520.605469"/>
       <use xlink:href="#DejaVuSans-74" x="548.388672"/>
       <use xlink:href="#DejaVuSans-68" x="587.597656"/>
       <use xlink:href="#DejaVuSans-65" x="650.976562"/>
       <use xlink:href="#DejaVuSans-6c" x="712.5"/>
       <use xlink:href="#DejaVuSans-69" x="740.283203"/>
       <use xlink:href="#DejaVuSans-61" x="768.066406"/>
       <use xlink:href="#DejaVuSans-6c" x="829.345703"/>
      </g>
     </g>
    </g>
    <g id="xtick_8">
     <g id="line2d_8">
      <g>
       <use xlink:href="#med2d1e6048" x="277.986987" y="367.2" style="stroke: #000000; stroke-width: 0.8"/>
      </g>
     </g>
     <g id="text_8">
      <!-- neuronal -->
      <g transform="translate(281.850112 435.907188)rotate(-90)scale(0.14 -0.14)">
       <use xlink:href="#DejaVuSans-6e"/>
       <use xlink:href="#DejaVuSans-65" x="63.378906"/>
       <use xlink:href="#DejaVuSans-75" x="124.902344"/>
       <use xlink:href="#DejaVuSans-72" x="188.28125"/>
       <use xlink:href="#DejaVuSans-6f" x="227.144531"/>
       <use xlink:href="#DejaVuSans-6e" x="288.326172"/>
       <use xlink:href="#DejaVuSans-61" x="351.705078"/>
       <use xlink:href="#DejaVuSans-6c" x="412.984375"/>
      </g>
     </g>
    </g>
    <g id="xtick_9">
     <g id="line2d_9">
      <g>
       <use xlink:href="#med2d1e6048" x="297.333158" y="367.2" style="stroke: #000000; stroke-width: 0.8"/>
      </g>
     </g>
     <g id="text_9">
      <!-- pericyte -->
      <g transform="translate(301.196283 431.43375)rotate(-90)scale(0.14 -0.14)">
       <use xlink:href="#DejaVuSans-70"/>
       <use xlink:href="#DejaVuSans-65" x="63.476562"/>
       <use xlink:href="#DejaVuSans-72" x="125"/>
       <use xlink:href="#DejaVuSans-69" x="166.113281"/>
       <use xlink:href="#DejaVuSans-63" x="193.896484"/>
       <use xlink:href="#DejaVuSans-79" x="248.876953"/>
       <use xlink:href="#DejaVuSans-74" x="308.056641"/>
       <use xlink:href="#DejaVuSans-65" x="347.265625"/>
      </g>
     </g>
    </g>
    <g id="xtick_10">
     <g id="line2d_10">
      <g>
       <use xlink:href="#med2d1e6048" x="316.679329" y="367.2" style="stroke: #000000; stroke-width: 0.8"/>
      </g>
     </g>
     <g id="text_10">
      <!-- ASM -->
      <g transform="translate(320.542454 404.744063)rotate(-90)scale(0.14 -0.14)">
       <defs>
        <path id="DejaVuSans-41" d="M 2188 4044 
L 1331 1722 
L 3047 1722 
L 2188 4044 
z
M 1831 4666 
L 2547 4666 
L 4325 0 
L 3669 0 
L 3244 1197 
L 1141 1197 
L 716 0 
L 50 0 
L 1831 4666 
z
" transform="scale(0.015625)"/>
        <path id="DejaVuSans-53" d="M 3425 4513 
L 3425 3897 
Q 3066 4069 2747 4153 
Q 2428 4238 2131 4238 
Q 1616 4238 1336 4038 
Q 1056 3838 1056 3469 
Q 1056 3159 1242 3001 
Q 1428 2844 1947 2747 
L 2328 2669 
Q 3034 2534 3370 2195 
Q 3706 1856 3706 1288 
Q 3706 609 3251 259 
Q 2797 -91 1919 -91 
Q 1588 -91 1214 -16 
Q 841 59 441 206 
L 441 856 
Q 825 641 1194 531 
Q 1563 422 1919 422 
Q 2459 422 2753 634 
Q 3047 847 3047 1241 
Q 3047 1584 2836 1778 
Q 2625 1972 2144 2069 
L 1759 2144 
Q 1053 2284 737 2584 
Q 422 2884 422 3419 
Q 422 4038 858 4394 
Q 1294 4750 2059 4750 
Q 2388 4750 2728 4690 
Q 3069 4631 3425 4513 
z
" transform="scale(0.015625)"/>
        <path id="DejaVuSans-4d" d="M 628 4666 
L 1569 4666 
L 2759 1491 
L 3956 4666 
L 4897 4666 
L 4897 0 
L 4281 0 
L 4281 4097 
L 3078 897 
L 2444 897 
L 1241 4097 
L 1241 0 
L 628 0 
L 628 4666 
z
" transform="scale(0.015625)"/>
       </defs>
       <use xlink:href="#DejaVuSans-41"/>
       <use xlink:href="#DejaVuSans-53" x="68.408203"/>
       <use xlink:href="#DejaVuSans-4d" x="131.884766"/>
      </g>
     </g>
    </g>
    <g id="xtick_11">
     <g id="line2d_11">
      <g>
       <use xlink:href="#med2d1e6048" x="336.0255" y="367.2" style="stroke: #000000; stroke-width: 0.8"/>
      </g>
     </g>
     <g id="text_11">
      <!-- fibroblast -->
      <g transform="translate(339.888625 440.050313)rotate(-90)scale(0.14 -0.14)">
       <defs>
        <path id="DejaVuSans-62" d="M 3116 1747 
Q 3116 2381 2855 2742 
Q 2594 3103 2138 3103 
Q 1681 3103 1420 2742 
Q 1159 2381 1159 1747 
Q 1159 1113 1420 752 
Q 1681 391 2138 391 
Q 2594 391 2855 752 
Q 3116 1113 3116 1747 
z
M 1159 2969 
Q 1341 3281 1617 3432 
Q 1894 3584 2278 3584 
Q 2916 3584 3314 3078 
Q 3713 2572 3713 1747 
Q 3713 922 3314 415 
Q 2916 -91 2278 -91 
Q 1894 -91 1617 61 
Q 1341 213 1159 525 
L 1159 0 
L 581 0 
L 581 4863 
L 1159 4863 
L 1159 2969 
z
" transform="scale(0.015625)"/>
       </defs>
       <use xlink:href="#DejaVuSans-66"/>
       <use xlink:href="#DejaVuSans-69" x="35.205078"/>
       <use xlink:href="#DejaVuSans-62" x="62.988281"/>
       <use xlink:href="#DejaVuSans-72" x="126.464844"/>
       <use xlink:href="#DejaVuSans-6f" x="165.328125"/>
       <use xlink:href="#DejaVuSans-62" x="226.509766"/>
       <use xlink:href="#DejaVuSans-6c" x="289.986328"/>
       <use xlink:href="#DejaVuSans-61" x="317.769531"/>
       <use xlink:href="#DejaVuSans-73" x="379.048828"/>
       <use xlink:href="#DejaVuSans-74" x="431.148438"/>
      </g>
     </g>
    </g>
    <g id="xtick_12">
     <g id="line2d_12">
      <g>
       <use xlink:href="#med2d1e6048" x="355.371671" y="367.2" style="stroke: #000000; stroke-width: 0.8"/>
      </g>
     </g>
     <g id="text_12">
      <!-- megakaryocyte -->
      <g transform="translate(359.234796 483.054375)rotate(-90)scale(0.14 -0.14)">
       <defs>
        <path id="DejaVuSans-6b" d="M 581 4863 
L 1159 4863 
L 1159 1991 
L 2875 3500 
L 3609 3500 
L 1753 1863 
L 3688 0 
L 2938 0 
L 1159 1709 
L 1159 0 
L 581 0 
L 581 4863 
z
" transform="scale(0.015625)"/>
       </defs>
       <use xlink:href="#DejaVuSans-6d"/>
       <use xlink:href="#DejaVuSans-65" x="97.412109"/>
       <use xlink:href="#DejaVuSans-67" x="158.935547"/>
       <use xlink:href="#DejaVuSans-61" x="222.412109"/>
       <use xlink:href="#DejaVuSans-6b" x="283.691406"/>
       <use xlink:href="#DejaVuSans-61" x="339.851562"/>
       <use xlink:href="#DejaVuSans-72" x="401.130859"/>
       <use xlink:href="#DejaVuSans-79" x="442.244141"/>
       <use xlink:href="#DejaVuSans-6f" x="501.423828"/>
       <use xlink:href="#DejaVuSans-63" x="562.605469"/>
       <use xlink:href="#DejaVuSans-79" x="617.585938"/>
       <use xlink:href="#DejaVuSans-74" x="676.765625"/>
       <use xlink:href="#DejaVuSans-65" x="715.974609"/>
      </g>
     </g>
    </g>
    <g id="xtick_13">
     <g id="line2d_13">
      <g>
       <use xlink:href="#med2d1e6048" x="374.717842" y="367.2" style="stroke: #000000; stroke-width: 0.8"/>
      </g>
     </g>
     <g id="text_13">
      <!-- proximal progenitor -->
      <g transform="translate(378.580967 512.355938)rotate(-90)scale(0.14 -0.14)">
       <defs>
        <path id="DejaVuSans-78" d="M 3513 3500 
L 2247 1797 
L 3578 0 
L 2900 0 
L 1881 1375 
L 863 0 
L 184 0 
L 1544 1831 
L 300 3500 
L 978 3500 
L 1906 2253 
L 2834 3500 
L 3513 3500 
z
" transform="scale(0.015625)"/>
       </defs>
       <use xlink:href="#DejaVuSans-70"/>
       <use xlink:href="#DejaVuSans-72" x="63.476562"/>
       <use xlink:href="#DejaVuSans-6f" x="102.339844"/>
       <use xlink:href="#DejaVuSans-78" x="160.396484"/>
       <use xlink:href="#DejaVuSans-69" x="219.576172"/>
       <use xlink:href="#DejaVuSans-6d" x="247.359375"/>
       <use xlink:href="#DejaVuSans-61" x="344.771484"/>
       <use xlink:href="#DejaVuSans-6c" x="406.050781"/>
       <use xlink:href="#DejaVuSans-20" x="433.833984"/>
       <use xlink:href="#DejaVuSans-70" x="465.621094"/>
       <use xlink:href="#DejaVuSans-72" x="529.097656"/>
       <use xlink:href="#DejaVuSans-6f" x="567.960938"/>
       <use xlink:href="#DejaVuSans-67" x="629.142578"/>
       <use xlink:href="#DejaVuSans-65" x="692.619141"/>
       <use xlink:href="#DejaVuSans-6e" x="754.142578"/>
       <use xlink:href="#DejaVuSans-69" x="817.521484"/>
       <use xlink:href="#DejaVuSans-74" x="845.304688"/>
       <use xlink:href="#DejaVuSans-6f" x="884.513672"/>
       <use xlink:href="#DejaVuSans-72" x="945.695312"/>
      </g>
     </g>
    </g>
    <g id="xtick_14">
     <g id="line2d_14">
      <g>
       <use xlink:href="#med2d1e6048" x="394.064013" y="367.2" style="stroke: #000000; stroke-width: 0.8"/>
      </g>
     </g>
     <g id="text_14">
      <!-- endothelial -->
      <g transform="translate(397.927138 452.36375)rotate(-90)scale(0.14 -0.14)">
       <use xlink:href="#DejaVuSans-65"/>
       <use xlink:href="#DejaVuSans-6e" x="61.523438"/>
       <use xlink:href="#DejaVuSans-64" x="124.902344"/>
       <use xlink:href="#DejaVuSans-6f" x="188.378906"/>
       <use xlink:href="#DejaVuSans-74" x="249.560547"/>
       <use xlink:href="#DejaVuSans-68" x="288.769531"/>
       <use xlink:href="#DejaVuSans-65" x="352.148438"/>
       <use xlink:href="#DejaVuSans-6c" x="413.671875"/>
       <use xlink:href="#DejaVuSans-69" x="441.455078"/>
       <use xlink:href="#DejaVuSans-61" x="469.238281"/>
       <use xlink:href="#DejaVuSans-6c" x="530.517578"/>
      </g>
     </g>
    </g>
    <g id="xtick_15">
     <g id="line2d_15">
      <g>
       <use xlink:href="#med2d1e6048" x="413.410184" y="367.2" style="stroke: #000000; stroke-width: 0.8"/>
      </g>
     </g>
     <g id="text_15">
      <!-- neuroendocrine -->
      <g transform="translate(417.273309 484.33625)rotate(-90)scale(0.14 -0.14)">
       <use xlink:href="#DejaVuSans-6e"/>
       <use xlink:href="#DejaVuSans-65" x="63.378906"/>
       <use xlink:href="#DejaVuSans-75" x="124.902344"/>
       <use xlink:href="#DejaVuSans-72" x="188.28125"/>
       <use xlink:href="#DejaVuSans-6f" x="227.144531"/>
       <use xlink:href="#DejaVuSans-65" x="288.326172"/>
       <use xlink:href="#DejaVuSans-6e" x="349.849609"/>
       <use xlink:href="#DejaVuSans-64" x="413.228516"/>
       <use xlink:href="#DejaVuSans-6f" x="476.705078"/>
       <use xlink:href="#DejaVuSans-63" x="537.886719"/>
       <use xlink:href="#DejaVuSans-72" x="592.867188"/>
       <use xlink:href="#DejaVuSans-69" x="633.980469"/>
       <use xlink:href="#DejaVuSans-6e" x="661.763672"/>
       <use xlink:href="#DejaVuSans-65" x="725.142578"/>
      </g>
     </g>
    </g>
    <g id="xtick_16">
     <g id="line2d_16">
      <g>
       <use xlink:href="#med2d1e6048" x="432.756355" y="367.2" style="stroke: #000000; stroke-width: 0.8"/>
      </g>
     </g>
     <g id="text_16">
      <!-- chondroblast -->
      <g transform="translate(436.61948 465.241563)rotate(-90)scale(0.14 -0.14)">
       <use xlink:href="#DejaVuSans-63"/>
       <use xlink:href="#DejaVuSans-68" x="54.980469"/>
       <use xlink:href="#DejaVuSans-6f" x="118.359375"/>
       <use xlink:href="#DejaVuSans-6e" x="179.541016"/>
       <use xlink:href="#DejaVuSans-64" x="242.919922"/>
       <use xlink:href="#DejaVuSans-72" x="306.396484"/>
       <use xlink:href="#DejaVuSans-6f" x="345.259766"/>
       <use xlink:href="#DejaVuSans-62" x="406.441406"/>
       <use xlink:href="#DejaVuSans-6c" x="469.917969"/>
       <use xlink:href="#DejaVuSans-61" x="497.701172"/>
       <use xlink:href="#DejaVuSans-73" x="558.980469"/>
       <use xlink:href="#DejaVuSans-74" x="611.080078"/>
      </g>
     </g>
    </g>
    <g id="xtick_17">
     <g id="line2d_17">
      <g>
       <use xlink:href="#med2d1e6048" x="452.102526" y="367.2" style="stroke: #000000; stroke-width: 0.8"/>
      </g>
     </g>
     <g id="text_17">
      <!-- airway smooth muscle -->
      <g transform="translate(455.965651 532.065313)rotate(-90)scale(0.14 -0.14)">
       <defs>
        <path id="DejaVuSans-77" d="M 269 3500 
L 844 3500 
L 1563 769 
L 2278 3500 
L 2956 3500 
L 3675 769 
L 4391 3500 
L 4966 3500 
L 4050 0 
L 3372 0 
L 2619 2869 
L 1863 0 
L 1184 0 
L 269 3500 
z
" transform="scale(0.015625)"/>
       </defs>
       <use xlink:href="#DejaVuSans-61"/>
       <use xlink:href="#DejaVuSans-69" x="61.279297"/>
       <use xlink:href="#DejaVuSans-72" x="89.0625"/>
       <use xlink:href="#DejaVuSans-77" x="130.175781"/>
       <use xlink:href="#DejaVuSans-61" x="211.962891"/>
       <use xlink:href="#DejaVuSans-79" x="273.242188"/>
       <use xlink:href="#DejaVuSans-20" x="332.421875"/>
       <use xlink:href="#DejaVuSans-73" x="364.208984"/>
       <use xlink:href="#DejaVuSans-6d" x="416.308594"/>
       <use xlink:href="#DejaVuSans-6f" x="513.720703"/>
       <use xlink:href="#DejaVuSans-6f" x="574.902344"/>
       <use xlink:href="#DejaVuSans-74" x="636.083984"/>
       <use xlink:href="#DejaVuSans-68" x="675.292969"/>
       <use xlink:href="#DejaVuSans-20" x="738.671875"/>
       <use xlink:href="#DejaVuSans-6d" x="770.458984"/>
       <use xlink:href="#DejaVuSans-75" x="867.871094"/>
       <use xlink:href="#DejaVuSans-73" x="931.25"/>
       <use xlink:href="#DejaVuSans-63" x="983.349609"/>
       <use xlink:href="#DejaVuSans-6c" x="1038.330078"/>
       <use xlink:href="#DejaVuSans-65" x="1066.113281"/>
      </g>
     </g>
    </g>
    <g id="xtick_18">
     <g id="line2d_18">
      <g>
       <use xlink:href="#med2d1e6048" x="471.448697" y="367.2" style="stroke: #000000; stroke-width: 0.8"/>
      </g>
     </g>
     <g id="text_18">
      <!-- Dendritic -->
      <g transform="translate(475.311822 438.075)rotate(-90)scale(0.14 -0.14)">
       <defs>
        <path id="DejaVuSans-44" d="M 1259 4147 
L 1259 519 
L 2022 519 
Q 2988 519 3436 956 
Q 3884 1394 3884 2338 
Q 3884 3275 3436 3711 
Q 2988 4147 2022 4147 
L 1259 4147 
z
M 628 4666 
L 1925 4666 
Q 3281 4666 3915 4102 
Q 4550 3538 4550 2338 
Q 4550 1131 3912 565 
Q 3275 0 1925 0 
L 628 0 
L 628 4666 
z
" transform="scale(0.015625)"/>
       </defs>
       <use xlink:href="#DejaVuSans-44"/>
       <use xlink:href="#DejaVuSans-65" x="77.001953"/>
       <use xlink:href="#DejaVuSans-6e" x="138.525391"/>
       <use xlink:href="#DejaVuSans-64" x="201.904297"/>
       <use xlink:href="#DejaVuSans-72" x="265.380859"/>
       <use xlink:href="#DejaVuSans-69" x="306.494141"/>
       <use xlink:href="#DejaVuSans-74" x="334.277344"/>
       <use xlink:href="#DejaVuSans-69" x="373.486328"/>
       <use xlink:href="#DejaVuSans-63" x="401.269531"/>
      </g>
     </g>
    </g>
    <g id="xtick_19">
     <g id="line2d_19">
      <g>
       <use xlink:href="#med2d1e6048" x="490.794868" y="367.2" style="stroke: #000000; stroke-width: 0.8"/>
      </g>
     </g>
     <g id="text_19">
      <!-- macrophage -->
      <g transform="translate(494.657993 461.9625)rotate(-90)scale(0.14 -0.14)">
       <use xlink:href="#DejaVuSans-6d"/>
       <use xlink:href="#DejaVuSans-61" x="97.412109"/>
       <use xlink:href="#DejaVuSans-63" x="158.691406"/>
       <use xlink:href="#DejaVuSans-72" x="213.671875"/>
       <use xlink:href="#DejaVuSans-6f" x="252.535156"/>
       <use xlink:href="#DejaVuSans-70" x="313.716797"/>
       <use xlink:href="#DejaVuSans-68" x="377.193359"/>
       <use xlink:href="#DejaVuSans-61" x="440.572266"/>
       <use xlink:href="#DejaVuSans-67" x="501.851562"/>
       <use xlink:href="#DejaVuSans-65" x="565.328125"/>
      </g>
     </g>
    </g>
    <g id="xtick_20">
     <g id="line2d_20">
      <g>
       <use xlink:href="#med2d1e6048" x="510.14104" y="367.2" style="stroke: #000000; stroke-width: 0.8"/>
      </g>
     </g>
     <g id="text_20">
      <!-- myeloid -->
      <g transform="translate(514.004165 429.970313)rotate(-90)scale(0.14 -0.14)">
       <use xlink:href="#DejaVuSans-6d"/>
       <use xlink:href="#DejaVuSans-79" x="97.412109"/>
       <use xlink:href="#DejaVuSans-65" x="156.591797"/>
       <use xlink:href="#DejaVuSans-6c" x="218.115234"/>
       <use xlink:href="#DejaVuSans-6f" x="245.898438"/>
       <use xlink:href="#DejaVuSans-69" x="307.080078"/>
       <use xlink:href="#DejaVuSans-64" x="334.863281"/>
      </g>
     </g>
    </g>
    <g id="xtick_21">
     <g id="line2d_21">
      <g>
       <use xlink:href="#med2d1e6048" x="529.487211" y="367.2" style="stroke: #000000; stroke-width: 0.8"/>
      </g>
     </g>
     <g id="text_21">
      <!-- mesothelial -->
      <g transform="translate(533.350336 455.533438)rotate(-90)scale(0.14 -0.14)">
       <use xlink:href="#DejaVuSans-6d"/>
       <use xlink:href="#DejaVuSans-65" x="97.412109"/>
       <use xlink:href="#DejaVuSans-73" x="158.935547"/>
       <use xlink:href="#DejaVuSans-6f" x="211.035156"/>
       <use xlink:href="#DejaVuSans-74" x="272.216797"/>
       <use xlink:href="#DejaVuSans-68" x="311.425781"/>
       <use xlink:href="#DejaVuSans-65" x="374.804688"/>
       <use xlink:href="#DejaVuSans-6c" x="436.328125"/>
       <use xlink:href="#DejaVuSans-69" x="464.111328"/>
       <use xlink:href="#DejaVuSans-61" x="491.894531"/>
       <use xlink:href="#DejaVuSans-6c" x="553.173828"/>
      </g>
     </g>
    </g>
    <g id="xtick_22">
     <g id="line2d_22">
      <g>
       <use xlink:href="#med2d1e6048" x="548.833382" y="367.2" style="stroke: #000000; stroke-width: 0.8"/>
      </g>
     </g>
     <g id="text_22">
      <!-- monocyte -->
      <g transform="translate(552.696507 443.92875)rotate(-90)scale(0.14 -0.14)">
       <use xlink:href="#DejaVuSans-6d"/>
       <use xlink:href="#DejaVuSans-6f" x="97.412109"/>
       <use xlink:href="#DejaVuSans-6e" x="158.59375"/>
       <use xlink:href="#DejaVuSans-6f" x="221.972656"/>
       <use xlink:href="#DejaVuSans-63" x="283.154297"/>
       <use xlink:href="#DejaVuSans-79" x="338.134766"/>
       <use xlink:href="#DejaVuSans-74" x="397.314453"/>
       <use xlink:href="#DejaVuSans-65" x="436.523438"/>
      </g>
     </g>
    </g>
    <g id="xtick_23">
     <g id="line2d_23">
      <g>
       <use xlink:href="#med2d1e6048" x="568.179553" y="367.2" style="stroke: #000000; stroke-width: 0.8"/>
      </g>
     </g>
     <g id="text_23">
      <!-- capillary -->
      <g transform="translate(572.042678 433.654063)rotate(-90)scale(0.14 -0.14)">
       <use xlink:href="#DejaVuSans-63"/>
       <use xlink:href="#DejaVuSans-61" x="54.980469"/>
       <use xlink:href="#DejaVuSans-70" x="116.259766"/>
       <use xlink:href="#DejaVuSans-69" x="179.736328"/>
       <use xlink:href="#DejaVuSans-6c" x="207.519531"/>
       <use xlink:href="#DejaVuSans-6c" x="235.302734"/>
       <use xlink:href="#DejaVuSans-61" x="263.085938"/>
       <use xlink:href="#DejaVuSans-72" x="324.365234"/>
       <use xlink:href="#DejaVuSans-79" x="365.478516"/>
      </g>
     </g>
    </g>
    <g id="xtick_24">
     <g id="line2d_24">
      <g>
       <use xlink:href="#med2d1e6048" x="587.525724" y="367.2" style="stroke: #000000; stroke-width: 0.8"/>
      </g>
     </g>
     <g id="text_24">
      <!-- ILC3 -->
      <g transform="translate(591.388849 404.814063)rotate(-90)scale(0.14 -0.14)">
       <defs>
        <path id="DejaVuSans-49" d="M 628 4666 
L 1259 4666 
L 1259 0 
L 628 0 
L 628 4666 
z
" transform="scale(0.015625)"/>
        <path id="DejaVuSans-4c" d="M 628 4666 
L 1259 4666 
L 1259 531 
L 3531 531 
L 3531 0 
L 628 0 
L 628 4666 
z
" transform="scale(0.015625)"/>
        <path id="DejaVuSans-43" d="M 4122 4306 
L 4122 3641 
Q 3803 3938 3442 4084 
Q 3081 4231 2675 4231 
Q 1875 4231 1450 3742 
Q 1025 3253 1025 2328 
Q 1025 1406 1450 917 
Q 1875 428 2675 428 
Q 3081 428 3442 575 
Q 3803 722 4122 1019 
L 4122 359 
Q 3791 134 3420 21 
Q 3050 -91 2638 -91 
Q 1578 -91 968 557 
Q 359 1206 359 2328 
Q 359 3453 968 4101 
Q 1578 4750 2638 4750 
Q 3056 4750 3426 4639 
Q 3797 4528 4122 4306 
z
" transform="scale(0.015625)"/>
        <path id="DejaVuSans-33" d="M 2597 2516 
Q 3050 2419 3304 2112 
Q 3559 1806 3559 1356 
Q 3559 666 3084 287 
Q 2609 -91 1734 -91 
Q 1441 -91 1130 -33 
Q 819 25 488 141 
L 488 750 
Q 750 597 1062 519 
Q 1375 441 1716 441 
Q 2309 441 2620 675 
Q 2931 909 2931 1356 
Q 2931 1769 2642 2001 
Q 2353 2234 1838 2234 
L 1294 2234 
L 1294 2753 
L 1863 2753 
Q 2328 2753 2575 2939 
Q 2822 3125 2822 3475 
Q 2822 3834 2567 4026 
Q 2313 4219 1838 4219 
Q 1578 4219 1281 4162 
Q 984 4106 628 3988 
L 628 4550 
Q 988 4650 1302 4700 
Q 1616 4750 1894 4750 
Q 2613 4750 3031 4423 
Q 3450 4097 3450 3541 
Q 3450 3153 3228 2886 
Q 3006 2619 2597 2516 
z
" transform="scale(0.015625)"/>
       </defs>
       <use xlink:href="#DejaVuSans-49"/>
       <use xlink:href="#DejaVuSans-4c" x="29.492188"/>
       <use xlink:href="#DejaVuSans-43" x="85.205078"/>
       <use xlink:href="#DejaVuSans-33" x="155.029297"/>
      </g>
     </g>
    </g>
    <g id="xtick_25">
     <g id="line2d_25">
      <g>
       <use xlink:href="#med2d1e6048" x="606.871895" y="367.2" style="stroke: #000000; stroke-width: 0.8"/>
      </g>
     </g>
     <g id="text_25">
      <!-- B-cell -->
      <g transform="translate(610.73502 412.947188)rotate(-90)scale(0.14 -0.14)">
       <defs>
        <path id="DejaVuSans-42" d="M 1259 2228 
L 1259 519 
L 2272 519 
Q 2781 519 3026 730 
Q 3272 941 3272 1375 
Q 3272 1813 3026 2020 
Q 2781 2228 2272 2228 
L 1259 2228 
z
M 1259 4147 
L 1259 2741 
L 2194 2741 
Q 2656 2741 2882 2914 
Q 3109 3088 3109 3444 
Q 3109 3797 2882 3972 
Q 2656 4147 2194 4147 
L 1259 4147 
z
M 628 4666 
L 2241 4666 
Q 2963 4666 3353 4366 
Q 3744 4066 3744 3513 
Q 3744 3084 3544 2831 
Q 3344 2578 2956 2516 
Q 3422 2416 3680 2098 
Q 3938 1781 3938 1306 
Q 3938 681 3513 340 
Q 3088 0 2303 0 
L 628 0 
L 628 4666 
z
" transform="scale(0.015625)"/>
        <path id="DejaVuSans-2d" d="M 313 2009 
L 1997 2009 
L 1997 1497 
L 313 1497 
L 313 2009 
z
" transform="scale(0.015625)"/>
       </defs>
       <use xlink:href="#DejaVuSans-42"/>
       <use xlink:href="#DejaVuSans-2d" x="68.603516"/>
       <use xlink:href="#DejaVuSans-63" x="104.6875"/>
       <use xlink:href="#DejaVuSans-65" x="159.667969"/>
       <use xlink:href="#DejaVuSans-6c" x="221.191406"/>
       <use xlink:href="#DejaVuSans-6c" x="248.974609"/>
      </g>
     </g>
    </g>
    <g id="xtick_26">
     <g id="line2d_26">
      <g>
       <use xlink:href="#med2d1e6048" x="626.218066" y="367.2" style="stroke: #000000; stroke-width: 0.8"/>
      </g>
     </g>
     <g id="text_26">
      <!-- erythrocyte -->
      <g transform="translate(630.081191 455.310313)rotate(-90)scale(0.14 -0.14)">
       <use xlink:href="#DejaVuSans-65"/>
       <use xlink:href="#DejaVuSans-72" x="61.523438"/>
       <use xlink:href="#DejaVuSans-79" x="102.636719"/>
       <use xlink:href="#DejaVuSans-74" x="161.816406"/>
       <use xlink:href="#DejaVuSans-68" x="201.025391"/>
       <use xlink:href="#DejaVuSans-72" x="264.404297"/>
       <use xlink:href="#DejaVuSans-6f" x="303.267578"/>
       <use xlink:href="#DejaVuSans-63" x="364.449219"/>
       <use xlink:href="#DejaVuSans-79" x="419.429688"/>
       <use xlink:href="#DejaVuSans-74" x="478.609375"/>
       <use xlink:href="#DejaVuSans-65" x="517.818359"/>
      </g>
     </g>
    </g>
    <g id="xtick_27">
     <g id="line2d_27">
      <g>
       <use xlink:href="#med2d1e6048" x="645.564237" y="367.2" style="stroke: #000000; stroke-width: 0.8"/>
      </g>
     </g>
     <g id="text_27">
      <!-- myeloid progenitor -->
      <g transform="translate(649.427362 507.388125)rotate(-90)scale(0.14 -0.14)">
       <use xlink:href="#DejaVuSans-6d"/>
       <use xlink:href="#DejaVuSans-79" x="97.412109"/>
       <use xlink:href="#DejaVuSans-65" x="156.591797"/>
       <use xlink:href="#DejaVuSans-6c" x="218.115234"/>
       <use xlink:href="#DejaVuSans-6f" x="245.898438"/>
       <use xlink:href="#DejaVuSans-69" x="307.080078"/>
       <use xlink:href="#DejaVuSans-64" x="334.863281"/>
       <use xlink:href="#DejaVuSans-20" x="398.339844"/>
       <use xlink:href="#DejaVuSans-70" x="430.126953"/>
       <use xlink:href="#DejaVuSans-72" x="493.603516"/>
       <use xlink:href="#DejaVuSans-6f" x="532.466797"/>
       <use xlink:href="#DejaVuSans-67" x="593.648438"/>
       <use xlink:href="#DejaVuSans-65" x="657.125"/>
       <use xlink:href="#DejaVuSans-6e" x="718.648438"/>
       <use xlink:href="#DejaVuSans-69" x="782.027344"/>
       <use xlink:href="#DejaVuSans-74" x="809.810547"/>
       <use xlink:href="#DejaVuSans-6f" x="849.019531"/>
       <use xlink:href="#DejaVuSans-72" x="910.201172"/>
      </g>
     </g>
    </g>
    <g id="xtick_28">
     <g id="line2d_28">
      <g>
       <use xlink:href="#med2d1e6048" x="664.910408" y="367.2" style="stroke: #000000; stroke-width: 0.8"/>
      </g>
     </g>
     <g id="text_28">
      <!-- dendritic -->
      <g transform="translate(668.773533 436.182813)rotate(-90)scale(0.14 -0.14)">
       <use xlink:href="#DejaVuSans-64"/>
       <use xlink:href="#DejaVuSans-65" x="63.476562"/>
       <use xlink:href="#DejaVuSans-6e" x="125"/>
       <use xlink:href="#DejaVuSans-64" x="188.378906"/>
       <use xlink:href="#DejaVuSans-72" x="251.855469"/>
       <use xlink:href="#DejaVuSans-69" x="292.96875"/>
       <use xlink:href="#DejaVuSans-74" x="320.751953"/>
       <use xlink:href="#DejaVuSans-69" x="359.960938"/>
       <use xlink:href="#DejaVuSans-63" x="387.744141"/>
      </g>
     </g>
    </g>
    <g id="xtick_29">
     <g id="line2d_29">
      <g>
       <use xlink:href="#med2d1e6048" x="684.256579" y="367.2" style="stroke: #000000; stroke-width: 0.8"/>
      </g>
     </g>
     <g id="text_29">
      <!-- mast/basophil -->
      <g transform="translate(688.119704 472.779688)rotate(-90)scale(0.14 -0.14)">
       <defs>
        <path id="DejaVuSans-2f" d="M 1625 4666 
L 2156 4666 
L 531 -594 
L 0 -594 
L 1625 4666 
z
" transform="scale(0.015625)"/>
       </defs>
       <use xlink:href="#DejaVuSans-6d"/>
       <use xlink:href="#DejaVuSans-61" x="97.412109"/>
       <use xlink:href="#DejaVuSans-73" x="158.691406"/>
       <use xlink:href="#DejaVuSans-74" x="210.791016"/>
       <use xlink:href="#DejaVuSans-2f" x="250"/>
       <use xlink:href="#DejaVuSans-62" x="283.691406"/>
       <use xlink:href="#DejaVuSans-61" x="347.167969"/>
       <use xlink:href="#DejaVuSans-73" x="408.447266"/>
       <use xlink:href="#DejaVuSans-6f" x="460.546875"/>
       <use xlink:href="#DejaVuSans-70" x="521.728516"/>
       <use xlink:href="#DejaVuSans-68" x="585.205078"/>
       <use xlink:href="#DejaVuSans-69" x="648.583984"/>
       <use xlink:href="#DejaVuSans-6c" x="676.367188"/>
      </g>
     </g>
    </g>
    <g id="xtick_30">
     <g id="line2d_30">
      <g>
       <use xlink:href="#med2d1e6048" x="703.60275" y="367.2" style="stroke: #000000; stroke-width: 0.8"/>
      </g>
     </g>
     <g id="text_30">
      <!-- venous -->
      <g transform="translate(707.465875 424.705)rotate(-90)scale(0.14 -0.14)">
       <defs>
        <path id="DejaVuSans-76" d="M 191 3500 
L 800 3500 
L 1894 563 
L 2988 3500 
L 3597 3500 
L 2284 0 
L 1503 0 
L 191 3500 
z
" transform="scale(0.015625)"/>
       </defs>
       <use xlink:href="#DejaVuSans-76"/>
       <use xlink:href="#DejaVuSans-65" x="59.179688"/>
       <use xlink:href="#DejaVuSans-6e" x="120.703125"/>
       <use xlink:href="#DejaVuSans-6f" x="184.082031"/>
       <use xlink:href="#DejaVuSans-75" x="245.263672"/>
       <use xlink:href="#DejaVuSans-73" x="308.642578"/>
      </g>
     </g>
    </g>
    <g id="xtick_31">
     <g id="line2d_31">
      <g>
       <use xlink:href="#med2d1e6048" x="722.948921" y="367.2" style="stroke: #000000; stroke-width: 0.8"/>
      </g>
     </g>
     <g id="text_31">
      <!-- neutrophil -->
      <g transform="translate(726.812046 445.593438)rotate(-90)scale(0.14 -0.14)">
       <use xlink:href="#DejaVuSans-6e"/>
       <use xlink:href="#DejaVuSans-65" x="63.378906"/>
       <use xlink:href="#DejaVuSans-75" x="124.902344"/>
       <use xlink:href="#DejaVuSans-74" x="188.28125"/>
       <use xlink:href="#DejaVuSans-72" x="227.490234"/>
       <use xlink:href="#DejaVuSans-6f" x="266.353516"/>
       <use xlink:href="#DejaVuSans-70" x="327.535156"/>
       <use xlink:href="#DejaVuSans-68" x="391.011719"/>
       <use xlink:href="#DejaVuSans-69" x="454.390625"/>
       <use xlink:href="#DejaVuSans-6c" x="482.173828"/>
      </g>
     </g>
    </g>
    <g id="xtick_32">
     <g id="line2d_32">
      <g>
       <use xlink:href="#med2d1e6048" x="742.295092" y="367.2" style="stroke: #000000; stroke-width: 0.8"/>
      </g>
     </g>
     <g id="text_32">
      <!-- ILC2 -->
      <g transform="translate(746.158217 404.814063)rotate(-90)scale(0.14 -0.14)">
       <defs>
        <path id="DejaVuSans-32" d="M 1228 531 
L 3431 531 
L 3431 0 
L 469 0 
L 469 531 
Q 828 903 1448 1529 
Q 2069 2156 2228 2338 
Q 2531 2678 2651 2914 
Q 2772 3150 2772 3378 
Q 2772 3750 2511 3984 
Q 2250 4219 1831 4219 
Q 1534 4219 1204 4116 
Q 875 4013 500 3803 
L 500 4441 
Q 881 4594 1212 4672 
Q 1544 4750 1819 4750 
Q 2544 4750 2975 4387 
Q 3406 4025 3406 3419 
Q 3406 3131 3298 2873 
Q 3191 2616 2906 2266 
Q 2828 2175 2409 1742 
Q 1991 1309 1228 531 
z
" transform="scale(0.015625)"/>
       </defs>
       <use xlink:href="#DejaVuSans-49"/>
       <use xlink:href="#DejaVuSans-4c" x="29.492188"/>
       <use xlink:href="#DejaVuSans-43" x="85.205078"/>
       <use xlink:href="#DejaVuSans-32" x="155.029297"/>
      </g>
     </g>
    </g>
    <g id="xtick_33">
     <g id="line2d_33">
      <g>
       <use xlink:href="#med2d1e6048" x="761.641263" y="367.2" style="stroke: #000000; stroke-width: 0.8"/>
      </g>
     </g>
     <g id="text_33">
      <!-- lymphoid progenitor -->
      <g transform="translate(765.504388 516.534063)rotate(-90)scale(0.14 -0.14)">
       <use xlink:href="#DejaVuSans-6c"/>
       <use xlink:href="#DejaVuSans-79" x="27.783203"/>
       <use xlink:href="#DejaVuSans-6d" x="86.962891"/>
       <use xlink:href="#DejaVuSans-70" x="184.375"/>
       <use xlink:href="#DejaVuSans-68" x="247.851562"/>
       <use xlink:href="#DejaVuSans-6f" x="311.230469"/>
       <use xlink:href="#DejaVuSans-69" x="372.412109"/>
       <use xlink:href="#DejaVuSans-64" x="400.195312"/>
       <use xlink:href="#DejaVuSans-20" x="463.671875"/>
       <use xlink:href="#DejaVuSans-70" x="495.458984"/>
       <use xlink:href="#DejaVuSans-72" x="558.935547"/>
       <use xlink:href="#DejaVuSans-6f" x="597.798828"/>
       <use xlink:href="#DejaVuSans-67" x="658.980469"/>
       <use xlink:href="#DejaVuSans-65" x="722.457031"/>
       <use xlink:href="#DejaVuSans-6e" x="783.980469"/>
       <use xlink:href="#DejaVuSans-69" x="847.359375"/>
       <use xlink:href="#DejaVuSans-74" x="875.142578"/>
       <use xlink:href="#DejaVuSans-6f" x="914.351562"/>
       <use xlink:href="#DejaVuSans-72" x="975.533203"/>
      </g>
     </g>
    </g>
    <g id="xtick_34">
     <g id="line2d_34">
      <g>
       <use xlink:href="#med2d1e6048" x="780.987435" y="367.2" style="stroke: #000000; stroke-width: 0.8"/>
      </g>
     </g>
     <g id="text_34">
      <!-- natural killer -->
      <g transform="translate(784.85056 462.830938)rotate(-90)scale(0.14 -0.14)">
       <use xlink:href="#DejaVuSans-6e"/>
       <use xlink:href="#DejaVuSans-61" x="63.378906"/>
       <use xlink:href="#DejaVuSans-74" x="124.658203"/>
       <use xlink:href="#DejaVuSans-75" x="163.867188"/>
       <use xlink:href="#DejaVuSans-72" x="227.246094"/>
       <use xlink:href="#DejaVuSans-61" x="268.359375"/>
       <use xlink:href="#DejaVuSans-6c" x="329.638672"/>
       <use xlink:href="#DejaVuSans-20" x="357.421875"/>
       <use xlink:href="#DejaVuSans-6b" x="389.208984"/>
       <use xlink:href="#DejaVuSans-69" x="447.119141"/>
       <use xlink:href="#DejaVuSans-6c" x="474.902344"/>
       <use xlink:href="#DejaVuSans-6c" x="502.685547"/>
       <use xlink:href="#DejaVuSans-65" x="530.46875"/>
       <use xlink:href="#DejaVuSans-72" x="591.992188"/>
      </g>
     </g>
    </g>
    <g id="text_35">
     <!-- Cells Type -->
     <g transform="translate(423.519531 585.852813)scale(0.14 -0.14)">
      <defs>
       <path id="DejaVuSans-54" d="M -19 4666 
L 3928 4666 
L 3928 4134 
L 2272 4134 
L 2272 0 
L 1638 0 
L 1638 4134 
L -19 4134 
L -19 4666 
z
" transform="scale(0.015625)"/>
      </defs>
      <use xlink:href="#DejaVuSans-43"/>
      <use xlink:href="#DejaVuSans-65" x="69.824219"/>
      <use xlink:href="#DejaVuSans-6c" x="131.347656"/>
      <use xlink:href="#DejaVuSans-6c" x="159.130859"/>
      <use xlink:href="#DejaVuSans-73" x="186.914062"/>
      <use xlink:href="#DejaVuSans-20" x="239.013672"/>
      <use xlink:href="#DejaVuSans-54" x="270.800781"/>
      <use xlink:href="#DejaVuSans-79" x="316.259766"/>
      <use xlink:href="#DejaVuSans-70" x="375.439453"/>
      <use xlink:href="#DejaVuSans-65" x="438.916016"/>
     </g>
    </g>
   </g>
   <g id="matplotlib.axis_2">
    <g id="ytick_1">
     <g id="line2d_35">
      <defs>
       <path id="mcf6fba8aaa" d="M 0 0 
L -3.5 0 
" style="stroke: #000000; stroke-width: 0.8"/>
      </defs>
      <g>
       <use xlink:href="#mcf6fba8aaa" x="98.55125" y="340.229643" style="stroke: #000000; stroke-width: 0.8"/>
      </g>
     </g>
     <g id="text_36">
      <!-- 0.000000 -->
      <g transform="translate(24.749375 345.548549)scale(0.14 -0.14)">
       <defs>
        <path id="DejaVuSans-30" d="M 2034 4250 
Q 1547 4250 1301 3770 
Q 1056 3291 1056 2328 
Q 1056 1369 1301 889 
Q 1547 409 2034 409 
Q 2525 409 2770 889 
Q 3016 1369 3016 2328 
Q 3016 3291 2770 3770 
Q 2525 4250 2034 4250 
z
M 2034 4750 
Q 2819 4750 3233 4129 
Q 3647 3509 3647 2328 
Q 3647 1150 3233 529 
Q 2819 -91 2034 -91 
Q 1250 -91 836 529 
Q 422 1150 422 2328 
Q 422 3509 836 4129 
Q 1250 4750 2034 4750 
z
" transform="scale(0.015625)"/>
        <path id="DejaVuSans-2e" d="M 684 794 
L 1344 794 
L 1344 0 
L 684 0 
L 684 794 
z
" transform="scale(0.015625)"/>
       </defs>
       <use xlink:href="#DejaVuSans-30"/>
       <use xlink:href="#DejaVuSans-2e" x="63.623047"/>
       <use xlink:href="#DejaVuSans-30" x="95.410156"/>
       <use xlink:href="#DejaVuSans-30" x="159.033203"/>
       <use xlink:href="#DejaVuSans-30" x="222.65625"/>
       <use xlink:href="#DejaVuSans-30" x="286.279297"/>
       <use xlink:href="#DejaVuSans-30" x="349.902344"/>
       <use xlink:href="#DejaVuSans-30" x="413.525391"/>
      </g>
     </g>
    </g>
    <g id="ytick_2">
     <g id="line2d_36">
      <g>
       <use xlink:href="#mcf6fba8aaa" x="98.55125" y="295.320138" style="stroke: #000000; stroke-width: 0.8"/>
      </g>
     </g>
     <g id="text_37">
      <!-- 0.000025 -->
      <g transform="translate(24.749375 300.639044)scale(0.14 -0.14)">
       <defs>
        <path id="DejaVuSans-35" d="M 691 4666 
L 3169 4666 
L 3169 4134 
L 1269 4134 
L 1269 2991 
Q 1406 3038 1543 3061 
Q 1681 3084 1819 3084 
Q 2600 3084 3056 2656 
Q 3513 2228 3513 1497 
Q 3513 744 3044 326 
Q 2575 -91 1722 -91 
Q 1428 -91 1123 -41 
Q 819 9 494 109 
L 494 744 
Q 775 591 1075 516 
Q 1375 441 1709 441 
Q 2250 441 2565 725 
Q 2881 1009 2881 1497 
Q 2881 1984 2565 2268 
Q 2250 2553 1709 2553 
Q 1456 2553 1204 2497 
Q 953 2441 691 2322 
L 691 4666 
z
" transform="scale(0.015625)"/>
       </defs>
       <use xlink:href="#DejaVuSans-30"/>
       <use xlink:href="#DejaVuSans-2e" x="63.623047"/>
       <use xlink:href="#DejaVuSans-30" x="95.410156"/>
       <use xlink:href="#DejaVuSans-30" x="159.033203"/>
       <use xlink:href="#DejaVuSans-30" x="222.65625"/>
       <use xlink:href="#DejaVuSans-30" x="286.279297"/>
       <use xlink:href="#DejaVuSans-32" x="349.902344"/>
       <use xlink:href="#DejaVuSans-35" x="413.525391"/>
      </g>
     </g>
    </g>
    <g id="ytick_3">
     <g id="line2d_37">
      <g>
       <use xlink:href="#mcf6fba8aaa" x="98.55125" y="250.410633" style="stroke: #000000; stroke-width: 0.8"/>
      </g>
     </g>
     <g id="text_38">
      <!-- 0.000050 -->
      <g transform="translate(24.749375 255.729539)scale(0.14 -0.14)">
       <use xlink:href="#DejaVuSans-30"/>
       <use xlink:href="#DejaVuSans-2e" x="63.623047"/>
       <use xlink:href="#DejaVuSans-30" x="95.410156"/>
       <use xlink:href="#DejaVuSans-30" x="159.033203"/>
       <use xlink:href="#DejaVuSans-30" x="222.65625"/>
       <use xlink:href="#DejaVuSans-30" x="286.279297"/>
       <use xlink:href="#DejaVuSans-35" x="349.902344"/>
       <use xlink:href="#DejaVuSans-30" x="413.525391"/>
      </g>
     </g>
    </g>
    <g id="ytick_4">
     <g id="line2d_38">
      <g>
       <use xlink:href="#mcf6fba8aaa" x="98.55125" y="205.501128" style="stroke: #000000; stroke-width: 0.8"/>
      </g>
     </g>
     <g id="text_39">
      <!-- 0.000075 -->
      <g transform="translate(24.749375 210.820034)scale(0.14 -0.14)">
       <defs>
        <path id="DejaVuSans-37" d="M 525 4666 
L 3525 4666 
L 3525 4397 
L 1831 0 
L 1172 0 
L 2766 4134 
L 525 4134 
L 525 4666 
z
" transform="scale(0.015625)"/>
       </defs>
       <use xlink:href="#DejaVuSans-30"/>
       <use xlink:href="#DejaVuSans-2e" x="63.623047"/>
       <use xlink:href="#DejaVuSans-30" x="95.410156"/>
       <use xlink:href="#DejaVuSans-30" x="159.033203"/>
       <use xlink:href="#DejaVuSans-30" x="222.65625"/>
       <use xlink:href="#DejaVuSans-30" x="286.279297"/>
       <use xlink:href="#DejaVuSans-37" x="349.902344"/>
       <use xlink:href="#DejaVuSans-35" x="413.525391"/>
      </g>
     </g>
    </g>
    <g id="ytick_5">
     <g id="line2d_39">
      <g>
       <use xlink:href="#mcf6fba8aaa" x="98.55125" y="160.591623" style="stroke: #000000; stroke-width: 0.8"/>
      </g>
     </g>
     <g id="text_40">
      <!-- 0.000100 -->
      <g transform="translate(24.749375 165.910529)scale(0.14 -0.14)">
       <defs>
        <path id="DejaVuSans-31" d="M 794 531 
L 1825 531 
L 1825 4091 
L 703 3866 
L 703 4441 
L 1819 4666 
L 2450 4666 
L 2450 531 
L 3481 531 
L 3481 0 
L 794 0 
L 794 531 
z
" transform="scale(0.015625)"/>
       </defs>
       <use xlink:href="#DejaVuSans-30"/>
       <use xlink:href="#DejaVuSans-2e" x="63.623047"/>
       <use xlink:href="#DejaVuSans-30" x="95.410156"/>
       <use xlink:href="#DejaVuSans-30" x="159.033203"/>
       <use xlink:href="#DejaVuSans-30" x="222.65625"/>
       <use xlink:href="#DejaVuSans-31" x="286.279297"/>
       <use xlink:href="#DejaVuSans-30" x="349.902344"/>
       <use xlink:href="#DejaVuSans-30" x="413.525391"/>
      </g>
     </g>
    </g>
    <g id="ytick_6">
     <g id="line2d_40">
      <g>
       <use xlink:href="#mcf6fba8aaa" x="98.55125" y="115.682118" style="stroke: #000000; stroke-width: 0.8"/>
      </g>
     </g>
     <g id="text_41">
      <!-- 0.000125 -->
      <g transform="translate(24.749375 121.001025)scale(0.14 -0.14)">
       <use xlink:href="#DejaVuSans-30"/>
       <use xlink:href="#DejaVuSans-2e" x="63.623047"/>
       <use xlink:href="#DejaVuSans-30" x="95.410156"/>
       <use xlink:href="#DejaVuSans-30" x="159.033203"/>
       <use xlink:href="#DejaVuSans-30" x="222.65625"/>
       <use xlink:href="#DejaVuSans-31" x="286.279297"/>
       <use xlink:href="#DejaVuSans-32" x="349.902344"/>
       <use xlink:href="#DejaVuSans-35" x="413.525391"/>
      </g>
     </g>
    </g>
    <g id="ytick_7">
     <g id="line2d_41">
      <g>
       <use xlink:href="#mcf6fba8aaa" x="98.55125" y="70.772613" style="stroke: #000000; stroke-width: 0.8"/>
      </g>
     </g>
     <g id="text_42">
      <!-- 0.000150 -->
      <g transform="translate(24.749375 76.09152)scale(0.14 -0.14)">
       <use xlink:href="#DejaVuSans-30"/>
       <use xlink:href="#DejaVuSans-2e" x="63.623047"/>
       <use xlink:href="#DejaVuSans-30" x="95.410156"/>
       <use xlink:href="#DejaVuSans-30" x="159.033203"/>
       <use xlink:href="#DejaVuSans-30" x="222.65625"/>
       <use xlink:href="#DejaVuSans-31" x="286.279297"/>
       <use xlink:href="#DejaVuSans-35" x="349.902344"/>
       <use xlink:href="#DejaVuSans-30" x="413.525391"/>
      </g>
     </g>
    </g>
    <g id="ytick_8">
     <g id="line2d_42">
      <g>
       <use xlink:href="#mcf6fba8aaa" x="98.55125" y="25.863109" style="stroke: #000000; stroke-width: 0.8"/>
      </g>
     </g>
     <g id="text_43">
      <!-- 0.000175 -->
      <g transform="translate(24.749375 31.182015)scale(0.14 -0.14)">
       <use xlink:href="#DejaVuSans-30"/>
       <use xlink:href="#DejaVuSans-2e" x="63.623047"/>
       <use xlink:href="#DejaVuSans-30" x="95.410156"/>
       <use xlink:href="#DejaVuSans-30" x="159.033203"/>
       <use xlink:href="#DejaVuSans-30" x="222.65625"/>
       <use xlink:href="#DejaVuSans-31" x="286.279297"/>
       <use xlink:href="#DejaVuSans-37" x="349.902344"/>
       <use xlink:href="#DejaVuSans-35" x="413.525391"/>
      </g>
     </g>
    </g>
    <g id="text_44">
     <!-- density [#cells / 100 um^2] -->
     <g transform="translate(17.837813 286.078281)rotate(-90)scale(0.14 -0.14)">
      <defs>
       <path id="DejaVuSans-5b" d="M 550 4863 
L 1875 4863 
L 1875 4416 
L 1125 4416 
L 1125 -397 
L 1875 -397 
L 1875 -844 
L 550 -844 
L 550 4863 
z
" transform="scale(0.015625)"/>
       <path id="DejaVuSans-23" d="M 3272 2816 
L 2363 2816 
L 2100 1772 
L 3016 1772 
L 3272 2816 
z
M 2803 4594 
L 2478 3297 
L 3391 3297 
L 3719 4594 
L 4219 4594 
L 3897 3297 
L 4872 3297 
L 4872 2816 
L 3775 2816 
L 3519 1772 
L 4513 1772 
L 4513 1294 
L 3397 1294 
L 3072 0 
L 2572 0 
L 2894 1294 
L 1978 1294 
L 1656 0 
L 1153 0 
L 1478 1294 
L 494 1294 
L 494 1772 
L 1594 1772 
L 1856 2816 
L 850 2816 
L 850 3297 
L 1978 3297 
L 2297 4594 
L 2803 4594 
z
" transform="scale(0.015625)"/>
       <path id="DejaVuSans-5e" d="M 2988 4666 
L 4684 2925 
L 4056 2925 
L 2681 4159 
L 1306 2925 
L 678 2925 
L 2375 4666 
L 2988 4666 
z
" transform="scale(0.015625)"/>
       <path id="DejaVuSans-5d" d="M 1947 4863 
L 1947 -844 
L 622 -844 
L 622 -397 
L 1369 -397 
L 1369 4416 
L 622 4416 
L 622 4863 
L 1947 4863 
z
" transform="scale(0.015625)"/>
      </defs>
      <use xlink:href="#DejaVuSans-64"/>
      <use xlink:href="#DejaVuSans-65" x="63.476562"/>
      <use xlink:href="#DejaVuSans-6e" x="125"/>
      <use xlink:href="#DejaVuSans-73" x="188.378906"/>
      <use xlink:href="#DejaVuSans-69" x="240.478516"/>
      <use xlink:href="#DejaVuSans-74" x="268.261719"/>
      <use xlink:href="#DejaVuSans-79" x="307.470703"/>
      <use xlink:href="#DejaVuSans-20" x="366.650391"/>
      <use xlink:href="#DejaVuSans-5b" x="398.4375"/>
      <use xlink:href="#DejaVuSans-23" x="437.451172"/>
      <use xlink:href="#DejaVuSans-63" x="521.240234"/>
      <use xlink:href="#DejaVuSans-65" x="576.220703"/>
      <use xlink:href="#DejaVuSans-6c" x="637.744141"/>
      <use xlink:href="#DejaVuSans-6c" x="665.527344"/>
      <use xlink:href="#DejaVuSans-73" x="693.310547"/>
      <use xlink:href="#DejaVuSans-20" x="745.410156"/>
      <use xlink:href="#DejaVuSans-2f" x="777.197266"/>
      <use xlink:href="#DejaVuSans-20" x="810.888672"/>
      <use xlink:href="#DejaVuSans-31" x="842.675781"/>
      <use xlink:href="#DejaVuSans-30" x="906.298828"/>
      <use xlink:href="#DejaVuSans-30" x="969.921875"/>
      <use xlink:href="#DejaVuSans-20" x="1033.544922"/>
      <use xlink:href="#DejaVuSans-75" x="1065.332031"/>
      <use xlink:href="#DejaVuSans-6d" x="1128.710938"/>
      <use xlink:href="#DejaVuSans-5e" x="1226.123047"/>
      <use xlink:href="#DejaVuSans-32" x="1309.912109"/>
      <use xlink:href="#DejaVuSans-5d" x="1373.535156"/>
     </g>
    </g>
   </g>
   <g id="patch_173">
    <path d="M 98.55125 367.2 
L 98.55125 7.2 
" style="fill: none; stroke: #000000; stroke-width: 0.8; stroke-linejoin: miter; stroke-linecap: square"/>
   </g>
   <g id="patch_174">
    <path d="M 818.55125 367.2 
L 818.55125 7.2 
" style="fill: none; stroke: #000000; stroke-width: 0.8; stroke-linejoin: miter; stroke-linecap: square"/>
   </g>
   <g id="patch_175">
    <path d="M 98.55125 367.2 
L 818.55125 367.2 
" style="fill: none; stroke: #000000; stroke-width: 0.8; stroke-linejoin: miter; stroke-linecap: square"/>
   </g>
   <g id="patch_176">
    <path d="M 98.55125 7.2 
L 818.55125 7.2 
" style="fill: none; stroke: #000000; stroke-width: 0.8; stroke-linejoin: miter; stroke-linecap: square"/>
   </g>
   <g id="legend_1">
    <g id="patch_177">
     <path d="M 719.006875 121.146875 
L 808.75125 121.146875 
Q 811.55125 121.146875 811.55125 118.346875 
L 811.55125 17 
Q 811.55125 14.2 808.75125 14.2 
L 719.006875 14.2 
Q 716.206875 14.2 716.206875 17 
L 716.206875 118.346875 
Q 716.206875 121.146875 719.006875 121.146875 
z
" style="fill: #ffffff; opacity: 0.8; stroke: #cccccc; stroke-linejoin: miter"/>
    </g>
    <g id="patch_178">
     <path d="M 721.806875 30.437813 
L 749.806875 30.437813 
L 749.806875 20.637813 
L 721.806875 20.637813 
z
" style="fill: #ff00df"/>
    </g>
    <g id="text_45">
     <!-- Arch 1 -->
     <g transform="translate(761.006875 30.437813)scale(0.14 -0.14)">
      <use xlink:href="#DejaVuSans-41"/>
      <use xlink:href="#DejaVuSans-72" x="68.408203"/>
      <use xlink:href="#DejaVuSans-63" x="107.271484"/>
      <use xlink:href="#DejaVuSans-68" x="162.251953"/>
      <use xlink:href="#DejaVuSans-20" x="225.630859"/>
      <use xlink:href="#DejaVuSans-31" x="257.417969"/>
     </g>
    </g>
    <g id="patch_179">
     <path d="M 721.806875 50.987188 
L 749.806875 50.987188 
L 749.806875 41.187188 
L 721.806875 41.187188 
z
" style="fill: #0000ff"/>
    </g>
    <g id="text_46">
     <!-- Arch 2 -->
     <g transform="translate(761.006875 50.987188)scale(0.14 -0.14)">
      <use xlink:href="#DejaVuSans-41"/>
      <use xlink:href="#DejaVuSans-72" x="68.408203"/>
      <use xlink:href="#DejaVuSans-63" x="107.271484"/>
      <use xlink:href="#DejaVuSans-68" x="162.251953"/>
      <use xlink:href="#DejaVuSans-20" x="225.630859"/>
      <use xlink:href="#DejaVuSans-32" x="257.417969"/>
     </g>
    </g>
    <g id="patch_180">
     <path d="M 721.806875 71.536563 
L 749.806875 71.536563 
L 749.806875 61.736563 
L 721.806875 61.736563 
z
" style="fill: #46cbec"/>
    </g>
    <g id="text_47">
     <!-- Arch 3 -->
     <g transform="translate(761.006875 71.536563)scale(0.14 -0.14)">
      <use xlink:href="#DejaVuSans-41"/>
      <use xlink:href="#DejaVuSans-72" x="68.408203"/>
      <use xlink:href="#DejaVuSans-63" x="107.271484"/>
      <use xlink:href="#DejaVuSans-68" x="162.251953"/>
      <use xlink:href="#DejaVuSans-20" x="225.630859"/>
      <use xlink:href="#DejaVuSans-33" x="257.417969"/>
     </g>
    </g>
    <g id="patch_181">
     <path d="M 721.806875 92.085938 
L 749.806875 92.085938 
L 749.806875 82.285938 
L 721.806875 82.285938 
z
" style="fill: #ff0000"/>
    </g>
    <g id="text_48">
     <!-- Arch 4 -->
     <g transform="translate(761.006875 92.085938)scale(0.14 -0.14)">
      <defs>
       <path id="DejaVuSans-34" d="M 2419 4116 
L 825 1625 
L 2419 1625 
L 2419 4116 
z
M 2253 4666 
L 3047 4666 
L 3047 1625 
L 3713 1625 
L 3713 1100 
L 3047 1100 
L 3047 0 
L 2419 0 
L 2419 1100 
L 313 1100 
L 313 1709 
L 2253 4666 
z
" transform="scale(0.015625)"/>
      </defs>
      <use xlink:href="#DejaVuSans-41"/>
      <use xlink:href="#DejaVuSans-72" x="68.408203"/>
      <use xlink:href="#DejaVuSans-63" x="107.271484"/>
      <use xlink:href="#DejaVuSans-68" x="162.251953"/>
      <use xlink:href="#DejaVuSans-20" x="225.630859"/>
      <use xlink:href="#DejaVuSans-34" x="257.417969"/>
     </g>
    </g>
    <g id="patch_182">
     <path d="M 721.806875 112.635313 
L 749.806875 112.635313 
L 749.806875 102.835313 
L 721.806875 102.835313 
z
"/>
    </g>
    <g id="text_49">
     <!-- Arch 5 -->
     <g transform="translate(761.006875 112.635313)scale(0.14 -0.14)">
      <use xlink:href="#DejaVuSans-41"/>
      <use xlink:href="#DejaVuSans-72" x="68.408203"/>
      <use xlink:href="#DejaVuSans-63" x="107.271484"/>
      <use xlink:href="#DejaVuSans-68" x="162.251953"/>
      <use xlink:href="#DejaVuSans-20" x="225.630859"/>
      <use xlink:href="#DejaVuSans-35" x="257.417969"/>
     </g>
    </g>
   </g>
  </g>
 </g>
 <defs>
  <clipPath id="p069d708bea">
   <rect x="98.55125" y="7.2" width="720" height="360"/>
  </clipPath>
 </defs>
</svg>
