<?xml version="1.0" encoding="utf-8" standalone="no"?>
<!DOCTYPE svg PUBLIC "-//W3C//DTD SVG 1.1//EN"
  "http://www.w3.org/Graphics/SVG/1.1/DTD/svg11.dtd">
<svg xmlns:xlink="http://www.w3.org/1999/xlink" width="720pt" height="360pt" viewBox="0 0 720 360" xmlns="http://www.w3.org/2000/svg" version="1.1">
 <metadata>
  <rdf:RDF xmlns:dc="http://purl.org/dc/elements/1.1/" xmlns:cc="http://creativecommons.org/ns#" xmlns:rdf="http://www.w3.org/1999/02/22-rdf-syntax-ns#">
   <cc:Work>
    <dc:type rdf:resource="http://purl.org/dc/dcmitype/StillImage"/>
    <dc:date>2023-11-02T13:13:27.946761</dc:date>
    <dc:format>image/svg+xml</dc:format>
    <dc:creator>
     <cc:Agent>
      <dc:title>Matplotlib v3.5.3, https://matplotlib.org/</dc:title>
     </cc:Agent>
    </dc:creator>
   </cc:Work>
  </rdf:RDF>
 </metadata>
 <defs>
  <style type="text/css">*{stroke-linejoin: round; stroke-linecap: butt}</style>
 </defs>
 <g id="figure_1">
  <g id="patch_1">
   <path d="M 0 360 
L 720 360 
L 720 0 
L 0 0 
z
" style="fill: #ffffff"/>
  </g>
  <g id="axes_1">
   <g id="patch_2">
    <path d="M 0 360 
L 720 360 
L 720 0 
L 0 0 
z
" style="fill: #ffffff"/>
   </g>
   <g id="patch_3">
    <path d="M 32.727273 333.033652 
L 36.154212 333.033652 
L 36.154212 327.373571 
L 32.727273 327.373571 
z
" clip-path="url(#pe18669f413)" style="fill: #ff00df"/>
   </g>
   <g id="patch_4">
    <path d="M 53.28891 333.033652 
L 56.71585 333.033652 
L 56.71585 16.363636 
L 53.28891 16.363636 
z
" clip-path="url(#pe18669f413)" style="fill: #ff00df"/>
   </g>
   <g id="patch_5">
    <path d="M 73.850547 333.033652 
L 77.277487 333.033652 
L 77.277487 311.829291 
L 73.850547 311.829291 
z
" clip-path="url(#pe18669f413)" style="fill: #ff00df"/>
   </g>
   <g id="patch_6">
    <path d="M 94.412185 333.033652 
L 97.839124 333.033652 
L 97.839124 333.866345 
L 94.412185 333.866345 
z
" clip-path="url(#pe18669f413)" style="fill: #ff00df"/>
   </g>
   <g id="patch_7">
    <path d="M 114.973822 333.033652 
L 118.400762 333.033652 
L 118.400762 331.022986 
L 114.973822 331.022986 
z
" clip-path="url(#pe18669f413)" style="fill: #ff00df"/>
   </g>
   <g id="patch_8">
    <path d="M 135.535459 333.033652 
L 138.962399 333.033652 
L 138.962399 329.855749 
L 135.535459 329.855749 
z
" clip-path="url(#pe18669f413)" style="fill: #ff00df"/>
   </g>
   <g id="patch_9">
    <path d="M 156.097097 333.033652 
L 159.524036 333.033652 
L 159.524036 328.546593 
L 156.097097 328.546593 
z
" clip-path="url(#pe18669f413)" style="fill: #ff00df"/>
   </g>
   <g id="patch_10">
    <path d="M 176.658734 333.033652 
L 180.085673 333.033652 
L 180.085673 333.189711 
L 176.658734 333.189711 
z
" clip-path="url(#pe18669f413)" style="fill: #ff00df"/>
   </g>
   <g id="patch_11">
    <path d="M 197.220371 333.033652 
L 200.647311 333.033652 
L 200.647311 333.004537 
L 197.220371 333.004537 
z
" clip-path="url(#pe18669f413)" style="fill: #ff00df"/>
   </g>
   <g id="patch_12">
    <path d="M 217.782009 333.033652 
L 221.208948 333.033652 
L 221.208948 321.643887 
L 217.782009 321.643887 
z
" clip-path="url(#pe18669f413)" style="fill: #ff00df"/>
   </g>
   <g id="patch_13">
    <path d="M 238.343646 333.033652 
L 241.770585 333.033652 
L 241.770585 340.608189 
L 238.343646 340.608189 
z
" clip-path="url(#pe18669f413)" style="fill: #ff00df"/>
   </g>
   <g id="patch_14">
    <path d="M 258.905283 333.033652 
L 262.332223 333.033652 
L 262.332223 332.922526 
L 258.905283 332.922526 
z
" clip-path="url(#pe18669f413)" style="fill: #ff00df"/>
   </g>
   <g id="patch_15">
    <path d="M 279.466921 333.033652 
L 282.89386 333.033652 
L 282.89386 320.208248 
L 279.466921 320.208248 
z
" clip-path="url(#pe18669f413)" style="fill: #ff00df"/>
   </g>
   <g id="patch_16">
    <path d="M 300.028558 333.033652 
L 303.455497 333.033652 
L 303.455497 332.280355 
L 300.028558 332.280355 
z
" clip-path="url(#pe18669f413)" style="fill: #ff00df"/>
   </g>
   <g id="patch_17">
    <path d="M 320.590195 333.033652 
L 324.017135 333.033652 
L 324.017135 331.595613 
L 320.590195 331.595613 
z
" clip-path="url(#pe18669f413)" style="fill: #ff00df"/>
   </g>
   <g id="patch_18">
    <path d="M 341.151832 333.033652 
L 344.578772 333.033652 
L 344.578772 333.132206 
L 341.151832 333.132206 
z
" clip-path="url(#pe18669f413)" style="fill: #ff00df"/>
   </g>
   <g id="patch_19">
    <path d="M 361.71347 333.033652 
L 365.140409 333.033652 
L 365.140409 333.180007 
L 361.71347 333.180007 
z
" clip-path="url(#pe18669f413)" style="fill: #ff00df"/>
   </g>
   <g id="patch_20">
    <path d="M 382.275107 333.033652 
L 385.702047 333.033652 
L 385.702047 332.995727 
L 382.275107 332.995727 
z
" clip-path="url(#pe18669f413)" style="fill: #ff00df"/>
   </g>
   <g id="patch_21">
    <path d="M 402.836744 333.033652 
L 406.263684 333.033652 
L 406.263684 332.997487 
L 402.836744 332.997487 
z
" clip-path="url(#pe18669f413)" style="fill: #ff00df"/>
   </g>
   <g id="patch_22">
    <path d="M 423.398382 333.033652 
L 426.825321 333.033652 
L 426.825321 333.341009 
L 423.398382 333.341009 
z
" clip-path="url(#pe18669f413)" style="fill: #ff00df"/>
   </g>
   <g id="patch_23">
    <path d="M 443.960019 333.033652 
L 447.386959 333.033652 
L 447.386959 333.134334 
L 443.960019 333.134334 
z
" clip-path="url(#pe18669f413)" style="fill: #ff00df"/>
   </g>
   <g id="patch_24">
    <path d="M 464.521656 333.033652 
L 467.948596 333.033652 
L 467.948596 333.124704 
L 464.521656 333.124704 
z
" clip-path="url(#pe18669f413)" style="fill: #ff00df"/>
   </g>
   <g id="patch_25">
    <path d="M 485.083294 333.033652 
L 488.510233 333.033652 
L 488.510233 333.082147 
L 485.083294 333.082147 
z
" clip-path="url(#pe18669f413)" style="fill: #ff00df"/>
   </g>
   <g id="patch_26">
    <path d="M 505.644931 333.033652 
L 509.071871 333.033652 
L 509.071871 333.021421 
L 505.644931 333.021421 
z
" clip-path="url(#pe18669f413)" style="fill: #ff00df"/>
   </g>
   <g id="patch_27">
    <path d="M 526.206568 333.033652 
L 529.633508 333.033652 
L 529.633508 333.033467 
L 526.206568 333.033467 
z
" clip-path="url(#pe18669f413)" style="fill: #ff00df"/>
   </g>
   <g id="patch_28">
    <path d="M 546.768206 333.033652 
L 550.195145 333.033652 
L 550.195145 333.049378 
L 546.768206 333.049378 
z
" clip-path="url(#pe18669f413)" style="fill: #ff00df"/>
   </g>
   <g id="patch_29">
    <path d="M 567.329843 333.033652 
L 570.756782 333.033652 
L 570.756782 333.042776 
L 567.329843 333.042776 
z
" clip-path="url(#pe18669f413)" style="fill: #ff00df"/>
   </g>
   <g id="patch_30">
    <path d="M 587.89148 333.033652 
L 591.31842 333.033652 
L 591.31842 332.937096 
L 587.89148 332.937096 
z
" clip-path="url(#pe18669f413)" style="fill: #ff00df"/>
   </g>
   <g id="patch_31">
    <path d="M 608.453118 333.033652 
L 611.880057 333.033652 
L 611.880057 333.07014 
L 608.453118 333.07014 
z
" clip-path="url(#pe18669f413)" style="fill: #ff00df"/>
   </g>
   <g id="patch_32">
    <path d="M 629.014755 333.033652 
L 632.441694 333.033652 
L 632.441694 333.064552 
L 629.014755 333.064552 
z
" clip-path="url(#pe18669f413)" style="fill: #ff00df"/>
   </g>
   <g id="patch_33">
    <path d="M 649.576392 333.033652 
L 653.003332 333.033652 
L 653.003332 333.039121 
L 649.576392 333.039121 
z
" clip-path="url(#pe18669f413)" style="fill: #ff00df"/>
   </g>
   <g id="patch_34">
    <path d="M 670.13803 333.033652 
L 673.564969 333.033652 
L 673.564969 333.033652 
L 670.13803 333.033652 
z
" clip-path="url(#pe18669f413)" style="fill: #ff00df"/>
   </g>
   <g id="patch_35">
    <path d="M 36.154212 333.033652 
L 39.581152 333.033652 
L 39.581152 338.608822 
L 36.154212 338.608822 
z
" clip-path="url(#pe18669f413)" style="fill: #0000ff"/>
   </g>
   <g id="patch_36">
    <path d="M 56.71585 333.033652 
L 60.142789 333.033652 
L 60.142789 332.693494 
L 56.71585 332.693494 
z
" clip-path="url(#pe18669f413)" style="fill: #0000ff"/>
   </g>
   <g id="patch_37">
    <path d="M 77.277487 333.033652 
L 80.704426 333.033652 
L 80.704426 319.73848 
L 77.277487 319.73848 
z
" clip-path="url(#pe18669f413)" style="fill: #0000ff"/>
   </g>
   <g id="patch_38">
    <path d="M 97.839124 333.033652 
L 101.266064 333.033652 
L 101.266064 332.667769 
L 97.839124 332.667769 
z
" clip-path="url(#pe18669f413)" style="fill: #0000ff"/>
   </g>
   <g id="patch_39">
    <path d="M 118.400762 333.033652 
L 121.827701 333.033652 
L 121.827701 305.314962 
L 118.400762 305.314962 
z
" clip-path="url(#pe18669f413)" style="fill: #0000ff"/>
   </g>
   <g id="patch_40">
    <path d="M 138.962399 333.033652 
L 142.389338 333.033652 
L 142.389338 54.543642 
L 138.962399 54.543642 
z
" clip-path="url(#pe18669f413)" style="fill: #0000ff"/>
   </g>
   <g id="patch_41">
    <path d="M 159.524036 333.033652 
L 162.950976 333.033652 
L 162.950976 335.495016 
L 159.524036 335.495016 
z
" clip-path="url(#pe18669f413)" style="fill: #0000ff"/>
   </g>
   <g id="patch_42">
    <path d="M 180.085673 333.033652 
L 183.512613 333.033652 
L 183.512613 333.218783 
L 180.085673 333.218783 
z
" clip-path="url(#pe18669f413)" style="fill: #0000ff"/>
   </g>
   <g id="patch_43">
    <path d="M 200.647311 333.033652 
L 204.07425 333.033652 
L 204.07425 317.785863 
L 200.647311 317.785863 
z
" clip-path="url(#pe18669f413)" style="fill: #0000ff"/>
   </g>
   <g id="patch_44">
    <path d="M 221.208948 333.033652 
L 224.635888 333.033652 
L 224.635888 323.807926 
L 221.208948 323.807926 
z
" clip-path="url(#pe18669f413)" style="fill: #0000ff"/>
   </g>
   <g id="patch_45">
    <path d="M 241.770585 333.033652 
L 245.197525 333.033652 
L 245.197525 292.368763 
L 241.770585 292.368763 
z
" clip-path="url(#pe18669f413)" style="fill: #0000ff"/>
   </g>
   <g id="patch_46">
    <path d="M 262.332223 333.033652 
L 265.759162 333.033652 
L 265.759162 332.756107 
L 262.332223 332.756107 
z
" clip-path="url(#pe18669f413)" style="fill: #0000ff"/>
   </g>
   <g id="patch_47">
    <path d="M 282.89386 333.033652 
L 286.3208 333.033652 
L 286.3208 338.865039 
L 282.89386 338.865039 
z
" clip-path="url(#pe18669f413)" style="fill: #0000ff"/>
   </g>
   <g id="patch_48">
    <path d="M 303.455497 333.033652 
L 306.882437 333.033652 
L 306.882437 320.64546 
L 303.455497 320.64546 
z
" clip-path="url(#pe18669f413)" style="fill: #0000ff"/>
   </g>
   <g id="patch_49">
    <path d="M 324.017135 333.033652 
L 327.444074 333.033652 
L 327.444074 336.297588 
L 324.017135 336.297588 
z
" clip-path="url(#pe18669f413)" style="fill: #0000ff"/>
   </g>
   <g id="patch_50">
    <path d="M 344.578772 333.033652 
L 348.005712 333.033652 
L 348.005712 331.740763 
L 344.578772 331.740763 
z
" clip-path="url(#pe18669f413)" style="fill: #0000ff"/>
   </g>
   <g id="patch_51">
    <path d="M 365.140409 333.033652 
L 368.567349 333.033652 
L 368.567349 333.009105 
L 365.140409 333.009105 
z
" clip-path="url(#pe18669f413)" style="fill: #0000ff"/>
   </g>
   <g id="patch_52">
    <path d="M 385.702047 333.033652 
L 389.128986 333.033652 
L 389.128986 331.222511 
L 385.702047 331.222511 
z
" clip-path="url(#pe18669f413)" style="fill: #0000ff"/>
   </g>
   <g id="patch_53">
    <path d="M 406.263684 333.033652 
L 409.690624 333.033652 
L 409.690624 332.971512 
L 406.263684 332.971512 
z
" clip-path="url(#pe18669f413)" style="fill: #0000ff"/>
   </g>
   <g id="patch_54">
    <path d="M 426.825321 333.033652 
L 430.252261 333.033652 
L 430.252261 332.113329 
L 426.825321 332.113329 
z
" clip-path="url(#pe18669f413)" style="fill: #0000ff"/>
   </g>
   <g id="patch_55">
    <path d="M 447.386959 333.033652 
L 450.813898 333.033652 
L 450.813898 332.562848 
L 447.386959 332.562848 
z
" clip-path="url(#pe18669f413)" style="fill: #0000ff"/>
   </g>
   <g id="patch_56">
    <path d="M 467.948596 333.033652 
L 471.375535 333.033652 
L 471.375535 331.840032 
L 467.948596 331.840032 
z
" clip-path="url(#pe18669f413)" style="fill: #0000ff"/>
   </g>
   <g id="patch_57">
    <path d="M 488.510233 333.033652 
L 491.937173 333.033652 
L 491.937173 333.004647 
L 488.510233 333.004647 
z
" clip-path="url(#pe18669f413)" style="fill: #0000ff"/>
   </g>
   <g id="patch_58">
    <path d="M 509.071871 333.033652 
L 512.49881 333.033652 
L 512.49881 333.003948 
L 509.071871 333.003948 
z
" clip-path="url(#pe18669f413)" style="fill: #0000ff"/>
   </g>
   <g id="patch_59">
    <path d="M 529.633508 333.033652 
L 533.060447 333.033652 
L 533.060447 333.041933 
L 529.633508 333.041933 
z
" clip-path="url(#pe18669f413)" style="fill: #0000ff"/>
   </g>
   <g id="patch_60">
    <path d="M 550.195145 333.033652 
L 553.622085 333.033652 
L 553.622085 332.943455 
L 550.195145 332.943455 
z
" clip-path="url(#pe18669f413)" style="fill: #0000ff"/>
   </g>
   <g id="patch_61">
    <path d="M 570.756782 333.033652 
L 574.183722 333.033652 
L 574.183722 332.991936 
L 570.756782 332.991936 
z
" clip-path="url(#pe18669f413)" style="fill: #0000ff"/>
   </g>
   <g id="patch_62">
    <path d="M 591.31842 333.033652 
L 594.745359 333.033652 
L 594.745359 332.853888 
L 591.31842 332.853888 
z
" clip-path="url(#pe18669f413)" style="fill: #0000ff"/>
   </g>
   <g id="patch_63">
    <path d="M 611.880057 333.033652 
L 615.306997 333.033652 
L 615.306997 332.795561 
L 611.880057 332.795561 
z
" clip-path="url(#pe18669f413)" style="fill: #0000ff"/>
   </g>
   <g id="patch_64">
    <path d="M 632.441694 333.033652 
L 635.868634 333.033652 
L 635.868634 333.059658 
L 632.441694 333.059658 
z
" clip-path="url(#pe18669f413)" style="fill: #0000ff"/>
   </g>
   <g id="patch_65">
    <path d="M 653.003332 333.033652 
L 656.430271 333.033652 
L 656.430271 333.049257 
L 653.003332 333.049257 
z
" clip-path="url(#pe18669f413)" style="fill: #0000ff"/>
   </g>
   <g id="patch_66">
    <path d="M 673.564969 333.033652 
L 676.991909 333.033652 
L 676.991909 333.033652 
L 673.564969 333.033652 
z
" clip-path="url(#pe18669f413)" style="fill: #0000ff"/>
   </g>
   <g id="patch_67">
    <path d="M 39.581152 333.033652 
L 43.008091 333.033652 
L 43.008091 310.307292 
L 39.581152 310.307292 
z
" clip-path="url(#pe18669f413)" style="fill: #46cbec"/>
   </g>
   <g id="patch_68">
    <path d="M 60.142789 333.033652 
L 63.569729 333.033652 
L 63.569729 334.60463 
L 60.142789 334.60463 
z
" clip-path="url(#pe18669f413)" style="fill: #46cbec"/>
   </g>
   <g id="patch_69">
    <path d="M 80.704426 333.033652 
L 84.131366 333.033652 
L 84.131366 51.409452 
L 80.704426 51.409452 
z
" clip-path="url(#pe18669f413)" style="fill: #46cbec"/>
   </g>
   <g id="patch_70">
    <path d="M 101.266064 333.033652 
L 104.693003 333.033652 
L 104.693003 334.407545 
L 101.266064 334.407545 
z
" clip-path="url(#pe18669f413)" style="fill: #46cbec"/>
   </g>
   <g id="patch_71">
    <path d="M 121.827701 333.033652 
L 125.254641 333.033652 
L 125.254641 308.399369 
L 121.827701 308.399369 
z
" clip-path="url(#pe18669f413)" style="fill: #46cbec"/>
   </g>
   <g id="patch_72">
    <path d="M 142.389338 333.033652 
L 145.816278 333.033652 
L 145.816278 251.59453 
L 142.389338 251.59453 
z
" clip-path="url(#pe18669f413)" style="fill: #46cbec"/>
   </g>
   <g id="patch_73">
    <path d="M 162.950976 333.033652 
L 166.377915 333.033652 
L 166.377915 330.759076 
L 162.950976 330.759076 
z
" clip-path="url(#pe18669f413)" style="fill: #46cbec"/>
   </g>
   <g id="patch_74">
    <path d="M 183.512613 333.033652 
L 186.939553 333.033652 
L 186.939553 332.755474 
L 183.512613 332.755474 
z
" clip-path="url(#pe18669f413)" style="fill: #46cbec"/>
   </g>
   <g id="patch_75">
    <path d="M 204.07425 333.033652 
L 207.50119 333.033652 
L 207.50119 316.53687 
L 204.07425 316.53687 
z
" clip-path="url(#pe18669f413)" style="fill: #46cbec"/>
   </g>
   <g id="patch_76">
    <path d="M 224.635888 333.033652 
L 228.062827 333.033652 
L 228.062827 275.378628 
L 224.635888 275.378628 
z
" clip-path="url(#pe18669f413)" style="fill: #46cbec"/>
   </g>
   <g id="patch_77">
    <path d="M 245.197525 333.033652 
L 248.624465 333.033652 
L 248.624465 343.636364 
L 245.197525 343.636364 
z
" clip-path="url(#pe18669f413)" style="fill: #46cbec"/>
   </g>
   <g id="patch_78">
    <path d="M 265.759162 333.033652 
L 269.186102 333.033652 
L 269.186102 332.699769 
L 265.759162 332.699769 
z
" clip-path="url(#pe18669f413)" style="fill: #46cbec"/>
   </g>
   <g id="patch_79">
    <path d="M 286.3208 333.033652 
L 289.747739 333.033652 
L 289.747739 311.691597 
L 286.3208 311.691597 
z
" clip-path="url(#pe18669f413)" style="fill: #46cbec"/>
   </g>
   <g id="patch_80">
    <path d="M 306.882437 333.033652 
L 310.309376 333.033652 
L 310.309376 332.122564 
L 306.882437 332.122564 
z
" clip-path="url(#pe18669f413)" style="fill: #46cbec"/>
   </g>
   <g id="patch_81">
    <path d="M 327.444074 333.033652 
L 330.871014 333.033652 
L 330.871014 318.98337 
L 327.444074 318.98337 
z
" clip-path="url(#pe18669f413)" style="fill: #46cbec"/>
   </g>
   <g id="patch_82">
    <path d="M 348.005712 333.033652 
L 351.432651 333.033652 
L 351.432651 332.662445 
L 348.005712 332.662445 
z
" clip-path="url(#pe18669f413)" style="fill: #46cbec"/>
   </g>
   <g id="patch_83">
    <path d="M 368.567349 333.033652 
L 371.994288 333.033652 
L 371.994288 332.901111 
L 368.567349 332.901111 
z
" clip-path="url(#pe18669f413)" style="fill: #46cbec"/>
   </g>
   <g id="patch_84">
    <path d="M 389.128986 333.033652 
L 392.555926 333.033652 
L 392.555926 331.846192 
L 389.128986 331.846192 
z
" clip-path="url(#pe18669f413)" style="fill: #46cbec"/>
   </g>
   <g id="patch_85">
    <path d="M 409.690624 333.033652 
L 413.117563 333.033652 
L 413.117563 332.946832 
L 409.690624 332.946832 
z
" clip-path="url(#pe18669f413)" style="fill: #46cbec"/>
   </g>
   <g id="patch_86">
    <path d="M 430.252261 333.033652 
L 433.6792 333.033652 
L 433.6792 332.696559 
L 430.252261 332.696559 
z
" clip-path="url(#pe18669f413)" style="fill: #46cbec"/>
   </g>
   <g id="patch_87">
    <path d="M 450.813898 333.033652 
L 454.240838 333.033652 
L 454.240838 332.798557 
L 450.813898 332.798557 
z
" clip-path="url(#pe18669f413)" style="fill: #46cbec"/>
   </g>
   <g id="patch_88">
    <path d="M 471.375535 333.033652 
L 474.802475 333.033652 
L 474.802475 332.820157 
L 471.375535 332.820157 
z
" clip-path="url(#pe18669f413)" style="fill: #46cbec"/>
   </g>
   <g id="patch_89">
    <path d="M 491.937173 333.033652 
L 495.364112 333.033652 
L 495.364112 333.010272 
L 491.937173 333.010272 
z
" clip-path="url(#pe18669f413)" style="fill: #46cbec"/>
   </g>
   <g id="patch_90">
    <path d="M 512.49881 333.033652 
L 515.92575 333.033652 
L 515.92575 333.08972 
L 512.49881 333.08972 
z
" clip-path="url(#pe18669f413)" style="fill: #46cbec"/>
   </g>
   <g id="patch_91">
    <path d="M 533.060447 333.033652 
L 536.487387 333.033652 
L 536.487387 332.996053 
L 533.060447 332.996053 
z
" clip-path="url(#pe18669f413)" style="fill: #46cbec"/>
   </g>
   <g id="patch_92">
    <path d="M 553.622085 333.033652 
L 557.049024 333.033652 
L 557.049024 333.124595 
L 553.622085 333.124595 
z
" clip-path="url(#pe18669f413)" style="fill: #46cbec"/>
   </g>
   <g id="patch_93">
    <path d="M 574.183722 333.033652 
L 577.610662 333.033652 
L 577.610662 333.030954 
L 574.183722 333.030954 
z
" clip-path="url(#pe18669f413)" style="fill: #46cbec"/>
   </g>
   <g id="patch_94">
    <path d="M 594.745359 333.033652 
L 598.172299 333.033652 
L 598.172299 332.905801 
L 594.745359 332.905801 
z
" clip-path="url(#pe18669f413)" style="fill: #46cbec"/>
   </g>
   <g id="patch_95">
    <path d="M 615.306997 333.033652 
L 618.733936 333.033652 
L 618.733936 333.007762 
L 615.306997 333.007762 
z
" clip-path="url(#pe18669f413)" style="fill: #46cbec"/>
   </g>
   <g id="patch_96">
    <path d="M 635.868634 333.033652 
L 639.295574 333.033652 
L 639.295574 333.01187 
L 635.868634 333.01187 
z
" clip-path="url(#pe18669f413)" style="fill: #46cbec"/>
   </g>
   <g id="patch_97">
    <path d="M 656.430271 333.033652 
L 659.857211 333.033652 
L 659.857211 333.034704 
L 656.430271 333.034704 
z
" clip-path="url(#pe18669f413)" style="fill: #46cbec"/>
   </g>
   <g id="patch_98">
    <path d="M 676.991909 333.033652 
L 680.418848 333.033652 
L 680.418848 333.033652 
L 676.991909 333.033652 
z
" clip-path="url(#pe18669f413)" style="fill: #46cbec"/>
   </g>
   <g id="patch_99">
    <path d="M 43.008091 333.033652 
L 46.435031 333.033652 
L 46.435031 339.18203 
L 43.008091 339.18203 
z
" clip-path="url(#pe18669f413)" style="fill: #ff0000"/>
   </g>
   <g id="patch_100">
    <path d="M 63.569729 333.033652 
L 66.996668 333.033652 
L 66.996668 332.151189 
L 63.569729 332.151189 
z
" clip-path="url(#pe18669f413)" style="fill: #ff0000"/>
   </g>
   <g id="patch_101">
    <path d="M 84.131366 333.033652 
L 87.558306 333.033652 
L 87.558306 331.396741 
L 84.131366 331.396741 
z
" clip-path="url(#pe18669f413)" style="fill: #ff0000"/>
   </g>
   <g id="patch_102">
    <path d="M 104.693003 333.033652 
L 108.119943 333.033652 
L 108.119943 332.098001 
L 104.693003 332.098001 
z
" clip-path="url(#pe18669f413)" style="fill: #ff0000"/>
   </g>
   <g id="patch_103">
    <path d="M 125.254641 333.033652 
L 128.68158 333.033652 
L 128.68158 239.33279 
L 125.254641 239.33279 
z
" clip-path="url(#pe18669f413)" style="fill: #ff0000"/>
   </g>
   <g id="patch_104">
    <path d="M 145.816278 333.033652 
L 149.243218 333.033652 
L 149.243218 338.28578 
L 145.816278 338.28578 
z
" clip-path="url(#pe18669f413)" style="fill: #ff0000"/>
   </g>
   <g id="patch_105">
    <path d="M 166.377915 333.033652 
L 169.804855 333.033652 
L 169.804855 335.015928 
L 166.377915 335.015928 
z
" clip-path="url(#pe18669f413)" style="fill: #ff0000"/>
   </g>
   <g id="patch_106">
    <path d="M 186.939553 333.033652 
L 190.366492 333.033652 
L 190.366492 332.648791 
L 186.939553 332.648791 
z
" clip-path="url(#pe18669f413)" style="fill: #ff0000"/>
   </g>
   <g id="patch_107">
    <path d="M 207.50119 333.033652 
L 210.928129 333.033652 
L 210.928129 70.952192 
L 207.50119 70.952192 
z
" clip-path="url(#pe18669f413)" style="fill: #ff0000"/>
   </g>
   <g id="patch_108">
    <path d="M 228.062827 333.033652 
L 231.489767 333.033652 
L 231.489767 332.258721 
L 228.062827 332.258721 
z
" clip-path="url(#pe18669f413)" style="fill: #ff0000"/>
   </g>
   <g id="patch_109">
    <path d="M 248.624465 333.033652 
L 252.051404 333.033652 
L 252.051404 314.342039 
L 248.624465 314.342039 
z
" clip-path="url(#pe18669f413)" style="fill: #ff0000"/>
   </g>
   <g id="patch_110">
    <path d="M 269.186102 333.033652 
L 272.613041 333.033652 
L 272.613041 331.86479 
L 269.186102 331.86479 
z
" clip-path="url(#pe18669f413)" style="fill: #ff0000"/>
   </g>
   <g id="patch_111">
    <path d="M 289.747739 333.033652 
L 293.174679 333.033652 
L 293.174679 337.209441 
L 289.747739 337.209441 
z
" clip-path="url(#pe18669f413)" style="fill: #ff0000"/>
   </g>
   <g id="patch_112">
    <path d="M 310.309376 333.033652 
L 313.736316 333.033652 
L 313.736316 323.109479 
L 310.309376 323.109479 
z
" clip-path="url(#pe18669f413)" style="fill: #ff0000"/>
   </g>
   <g id="patch_113">
    <path d="M 330.871014 333.033652 
L 334.297953 333.033652 
L 334.297953 335.075259 
L 330.871014 335.075259 
z
" clip-path="url(#pe18669f413)" style="fill: #ff0000"/>
   </g>
   <g id="patch_114">
    <path d="M 351.432651 333.033652 
L 354.859591 333.033652 
L 354.859591 332.568106 
L 351.432651 332.568106 
z
" clip-path="url(#pe18669f413)" style="fill: #ff0000"/>
   </g>
   <g id="patch_115">
    <path d="M 371.994288 333.033652 
L 375.421228 333.033652 
L 375.421228 332.32487 
L 371.994288 332.32487 
z
" clip-path="url(#pe18669f413)" style="fill: #ff0000"/>
   </g>
   <g id="patch_116">
    <path d="M 392.555926 333.033652 
L 395.982865 333.033652 
L 395.982865 331.51649 
L 392.555926 331.51649 
z
" clip-path="url(#pe18669f413)" style="fill: #ff0000"/>
   </g>
   <g id="patch_117">
    <path d="M 413.117563 333.033652 
L 416.544503 333.033652 
L 416.544503 332.984945 
L 413.117563 332.984945 
z
" clip-path="url(#pe18669f413)" style="fill: #ff0000"/>
   </g>
   <g id="patch_118">
    <path d="M 433.6792 333.033652 
L 437.10614 333.033652 
L 437.10614 332.596393 
L 433.6792 332.596393 
z
" clip-path="url(#pe18669f413)" style="fill: #ff0000"/>
   </g>
   <g id="patch_119">
    <path d="M 454.240838 333.033652 
L 457.667777 333.033652 
L 457.667777 332.702757 
L 454.240838 332.702757 
z
" clip-path="url(#pe18669f413)" style="fill: #ff0000"/>
   </g>
   <g id="patch_120">
    <path d="M 474.802475 333.033652 
L 478.229415 333.033652 
L 478.229415 331.755501 
L 474.802475 331.755501 
z
" clip-path="url(#pe18669f413)" style="fill: #ff0000"/>
   </g>
   <g id="patch_121">
    <path d="M 495.364112 333.033652 
L 498.791052 333.033652 
L 498.791052 332.668024 
L 495.364112 332.668024 
z
" clip-path="url(#pe18669f413)" style="fill: #ff0000"/>
   </g>
   <g id="patch_122">
    <path d="M 515.92575 333.033652 
L 519.352689 333.033652 
L 519.352689 332.963705 
L 515.92575 332.963705 
z
" clip-path="url(#pe18669f413)" style="fill: #ff0000"/>
   </g>
   <g id="patch_123">
    <path d="M 536.487387 333.033652 
L 539.914327 333.033652 
L 539.914327 333.056076 
L 536.487387 333.056076 
z
" clip-path="url(#pe18669f413)" style="fill: #ff0000"/>
   </g>
   <g id="patch_124">
    <path d="M 557.049024 333.033652 
L 560.475964 333.033652 
L 560.475964 332.832908 
L 557.049024 332.832908 
z
" clip-path="url(#pe18669f413)" style="fill: #ff0000"/>
   </g>
   <g id="patch_125">
    <path d="M 577.610662 333.033652 
L 581.037601 333.033652 
L 581.037601 332.963614 
L 577.610662 332.963614 
z
" clip-path="url(#pe18669f413)" style="fill: #ff0000"/>
   </g>
   <g id="patch_126">
    <path d="M 598.172299 333.033652 
L 601.599238 333.033652 
L 601.599238 331.79379 
L 598.172299 331.79379 
z
" clip-path="url(#pe18669f413)" style="fill: #ff0000"/>
   </g>
   <g id="patch_127">
    <path d="M 618.733936 333.033652 
L 622.160876 333.033652 
L 622.160876 333.169345 
L 618.733936 333.169345 
z
" clip-path="url(#pe18669f413)" style="fill: #ff0000"/>
   </g>
   <g id="patch_128">
    <path d="M 639.295574 333.033652 
L 642.722513 333.033652 
L 642.722513 332.987777 
L 639.295574 332.987777 
z
" clip-path="url(#pe18669f413)" style="fill: #ff0000"/>
   </g>
   <g id="patch_129">
    <path d="M 659.857211 333.033652 
L 663.28415 333.033652 
L 663.28415 332.969483 
L 659.857211 332.969483 
z
" clip-path="url(#pe18669f413)" style="fill: #ff0000"/>
   </g>
   <g id="patch_130">
    <path d="M 680.418848 333.033652 
L 683.845788 333.033652 
L 683.845788 333.033652 
L 680.418848 333.033652 
z
" clip-path="url(#pe18669f413)" style="fill: #ff0000"/>
   </g>
   <g id="patch_131">
    <path d="M 46.435031 333.033652 
L 49.86197 333.033652 
L 49.86197 329.504136 
L 46.435031 329.504136 
z
" clip-path="url(#pe18669f413)"/>
   </g>
   <g id="patch_132">
    <path d="M 66.996668 333.033652 
L 70.423608 333.033652 
L 70.423608 332.619356 
L 66.996668 332.619356 
z
" clip-path="url(#pe18669f413)"/>
   </g>
   <g id="patch_133">
    <path d="M 87.558306 333.033652 
L 90.985245 333.033652 
L 90.985245 333.059344 
L 87.558306 333.059344 
z
" clip-path="url(#pe18669f413)"/>
   </g>
   <g id="patch_134">
    <path d="M 108.119943 333.033652 
L 111.546882 333.033652 
L 111.546882 331.766727 
L 108.119943 331.766727 
z
" clip-path="url(#pe18669f413)"/>
   </g>
   <g id="patch_135">
    <path d="M 128.68158 333.033652 
L 132.10852 333.033652 
L 132.10852 332.083775 
L 128.68158 332.083775 
z
" clip-path="url(#pe18669f413)"/>
   </g>
   <g id="patch_136">
    <path d="M 149.243218 333.033652 
L 152.670157 333.033652 
L 152.670157 334.371495 
L 149.243218 334.371495 
z
" clip-path="url(#pe18669f413)"/>
   </g>
   <g id="patch_137">
    <path d="M 169.804855 333.033652 
L 173.231794 333.033652 
L 173.231794 331.051578 
L 169.804855 331.051578 
z
" clip-path="url(#pe18669f413)"/>
   </g>
   <g id="patch_138">
    <path d="M 190.366492 333.033652 
L 193.793432 333.033652 
L 193.793432 332.870713 
L 190.366492 332.870713 
z
" clip-path="url(#pe18669f413)"/>
   </g>
   <g id="patch_139">
    <path d="M 210.928129 333.033652 
L 214.355069 333.033652 
L 214.355069 334.191686 
L 210.928129 334.191686 
z
" clip-path="url(#pe18669f413)"/>
   </g>
   <g id="patch_140">
    <path d="M 231.489767 333.033652 
L 234.916706 333.033652 
L 234.916706 330.261271 
L 231.489767 330.261271 
z
" clip-path="url(#pe18669f413)"/>
   </g>
   <g id="patch_141">
    <path d="M 252.051404 333.033652 
L 255.478344 333.033652 
L 255.478344 327.605541 
L 252.051404 327.605541 
z
" clip-path="url(#pe18669f413)"/>
   </g>
   <g id="patch_142">
    <path d="M 272.613041 333.033652 
L 276.039981 333.033652 
L 276.039981 332.677518 
L 272.613041 332.677518 
z
" clip-path="url(#pe18669f413)"/>
   </g>
   <g id="patch_143">
    <path d="M 293.174679 333.033652 
L 296.601618 333.033652 
L 296.601618 330.376869 
L 293.174679 330.376869 
z
" clip-path="url(#pe18669f413)"/>
   </g>
   <g id="patch_144">
    <path d="M 313.736316 333.033652 
L 317.163256 333.033652 
L 317.163256 331.717462 
L 313.736316 331.717462 
z
" clip-path="url(#pe18669f413)"/>
   </g>
   <g id="patch_145">
    <path d="M 334.297953 333.033652 
L 337.724893 333.033652 
L 337.724893 331.128526 
L 334.297953 331.128526 
z
" clip-path="url(#pe18669f413)"/>
   </g>
   <g id="patch_146">
    <path d="M 354.859591 333.033652 
L 358.28653 333.033652 
L 358.28653 332.720272 
L 354.859591 332.720272 
z
" clip-path="url(#pe18669f413)"/>
   </g>
   <g id="patch_147">
    <path d="M 375.421228 333.033652 
L 378.848168 333.033652 
L 378.848168 332.743655 
L 375.421228 332.743655 
z
" clip-path="url(#pe18669f413)"/>
   </g>
   <g id="patch_148">
    <path d="M 395.982865 333.033652 
L 399.409805 333.033652 
L 399.409805 332.534348 
L 395.982865 332.534348 
z
" clip-path="url(#pe18669f413)"/>
   </g>
   <g id="patch_149">
    <path d="M 416.544503 333.033652 
L 419.971442 333.033652 
L 419.971442 332.995329 
L 416.544503 332.995329 
z
" clip-path="url(#pe18669f413)"/>
   </g>
   <g id="patch_150">
    <path d="M 437.10614 333.033652 
L 440.533079 333.033652 
L 440.533079 332.454284 
L 437.10614 332.454284 
z
" clip-path="url(#pe18669f413)"/>
   </g>
   <g id="patch_151">
    <path d="M 457.667777 333.033652 
L 461.094717 333.033652 
L 461.094717 332.771231 
L 457.667777 332.771231 
z
" clip-path="url(#pe18669f413)"/>
   </g>
   <g id="patch_152">
    <path d="M 478.229415 333.033652 
L 481.656354 333.033652 
L 481.656354 332.886402 
L 478.229415 332.886402 
z
" clip-path="url(#pe18669f413)"/>
   </g>
   <g id="patch_153">
    <path d="M 498.791052 333.033652 
L 502.217991 333.033652 
L 502.217991 332.973713 
L 498.791052 332.973713 
z
" clip-path="url(#pe18669f413)"/>
   </g>
   <g id="patch_154">
    <path d="M 519.352689 333.033652 
L 522.779629 333.033652 
L 522.779629 332.977181 
L 519.352689 332.977181 
z
" clip-path="url(#pe18669f413)"/>
   </g>
   <g id="patch_155">
    <path d="M 539.914327 333.033652 
L 543.341266 333.033652 
L 543.341266 333.00141 
L 539.914327 333.00141 
z
" clip-path="url(#pe18669f413)"/>
   </g>
   <g id="patch_156">
    <path d="M 560.475964 333.033652 
L 563.902903 333.033652 
L 563.902903 332.982287 
L 560.475964 332.982287 
z
" clip-path="url(#pe18669f413)"/>
   </g>
   <g id="patch_157">
    <path d="M 581.037601 333.033652 
L 584.464541 333.033652 
L 584.464541 333.005315 
L 581.037601 333.005315 
z
" clip-path="url(#pe18669f413)"/>
   </g>
   <g id="patch_158">
    <path d="M 601.599238 333.033652 
L 605.026178 333.033652 
L 605.026178 332.844683 
L 601.599238 332.844683 
z
" clip-path="url(#pe18669f413)"/>
   </g>
   <g id="patch_159">
    <path d="M 622.160876 333.033652 
L 625.587815 333.033652 
L 625.587815 333.015555 
L 622.160876 333.015555 
z
" clip-path="url(#pe18669f413)"/>
   </g>
   <g id="patch_160">
    <path d="M 642.722513 333.033652 
L 646.149453 333.033652 
L 646.149453 332.988813 
L 642.722513 332.988813 
z
" clip-path="url(#pe18669f413)"/>
   </g>
   <g id="patch_161">
    <path d="M 663.28415 333.033652 
L 666.71109 333.033652 
L 666.71109 333.002016 
L 663.28415 333.002016 
z
" clip-path="url(#pe18669f413)"/>
   </g>
   <g id="patch_162">
    <path d="M 683.845788 333.033652 
L 687.272727 333.033652 
L 687.272727 333.033652 
L 683.845788 333.033652 
z
" clip-path="url(#pe18669f413)"/>
   </g>
   <g id="matplotlib.axis_1">
    <g id="xtick_1">
     <g id="line2d_1">
      <defs>
       <path id="med7975de49" d="M 0 0 
L 0 3.5 
" style="stroke: #000000; stroke-width: 0.8"/>
      </defs>
      <g>
       <use xlink:href="#med7975de49" x="44.721561" y="360" style="stroke: #000000; stroke-width: 0.8"/>
      </g>
     </g>
     <g id="text_1">
      <!-- secretory -->
      <g transform="translate(48.584686 432.75625)rotate(-90)scale(0.14 -0.14)">
       <defs>
        <path id="DejaVuSans-73" d="M 2834 3397 
L 2834 2853 
Q 2591 2978 2328 3040 
Q 2066 3103 1784 3103 
Q 1356 3103 1142 2972 
Q 928 2841 928 2578 
Q 928 2378 1081 2264 
Q 1234 2150 1697 2047 
L 1894 2003 
Q 2506 1872 2764 1633 
Q 3022 1394 3022 966 
Q 3022 478 2636 193 
Q 2250 -91 1575 -91 
Q 1294 -91 989 -36 
Q 684 19 347 128 
L 347 722 
Q 666 556 975 473 
Q 1284 391 1588 391 
Q 1994 391 2212 530 
Q 2431 669 2431 922 
Q 2431 1156 2273 1281 
Q 2116 1406 1581 1522 
L 1381 1569 
Q 847 1681 609 1914 
Q 372 2147 372 2553 
Q 372 3047 722 3315 
Q 1072 3584 1716 3584 
Q 2034 3584 2315 3537 
Q 2597 3491 2834 3397 
z
" transform="scale(0.015625)"/>
        <path id="DejaVuSans-65" d="M 3597 1894 
L 3597 1613 
L 953 1613 
Q 991 1019 1311 708 
Q 1631 397 2203 397 
Q 2534 397 2845 478 
Q 3156 559 3463 722 
L 3463 178 
Q 3153 47 2828 -22 
Q 2503 -91 2169 -91 
Q 1331 -91 842 396 
Q 353 884 353 1716 
Q 353 2575 817 3079 
Q 1281 3584 2069 3584 
Q 2775 3584 3186 3129 
Q 3597 2675 3597 1894 
z
M 3022 2063 
Q 3016 2534 2758 2815 
Q 2500 3097 2075 3097 
Q 1594 3097 1305 2825 
Q 1016 2553 972 2059 
L 3022 2063 
z
" transform="scale(0.015625)"/>
        <path id="DejaVuSans-63" d="M 3122 3366 
L 3122 2828 
Q 2878 2963 2633 3030 
Q 2388 3097 2138 3097 
Q 1578 3097 1268 2742 
Q 959 2388 959 1747 
Q 959 1106 1268 751 
Q 1578 397 2138 397 
Q 2388 397 2633 464 
Q 2878 531 3122 666 
L 3122 134 
Q 2881 22 2623 -34 
Q 2366 -91 2075 -91 
Q 1284 -91 818 406 
Q 353 903 353 1747 
Q 353 2603 823 3093 
Q 1294 3584 2113 3584 
Q 2378 3584 2631 3529 
Q 2884 3475 3122 3366 
z
" transform="scale(0.015625)"/>
        <path id="DejaVuSans-72" d="M 2631 2963 
Q 2534 3019 2420 3045 
Q 2306 3072 2169 3072 
Q 1681 3072 1420 2755 
Q 1159 2438 1159 1844 
L 1159 0 
L 581 0 
L 581 3500 
L 1159 3500 
L 1159 2956 
Q 1341 3275 1631 3429 
Q 1922 3584 2338 3584 
Q 2397 3584 2469 3576 
Q 2541 3569 2628 3553 
L 2631 2963 
z
" transform="scale(0.015625)"/>
        <path id="DejaVuSans-74" d="M 1172 4494 
L 1172 3500 
L 2356 3500 
L 2356 3053 
L 1172 3053 
L 1172 1153 
Q 1172 725 1289 603 
Q 1406 481 1766 481 
L 2356 481 
L 2356 0 
L 1766 0 
Q 1100 0 847 248 
Q 594 497 594 1153 
L 594 3053 
L 172 3053 
L 172 3500 
L 594 3500 
L 594 4494 
L 1172 4494 
z
" transform="scale(0.015625)"/>
        <path id="DejaVuSans-6f" d="M 1959 3097 
Q 1497 3097 1228 2736 
Q 959 2375 959 1747 
Q 959 1119 1226 758 
Q 1494 397 1959 397 
Q 2419 397 2687 759 
Q 2956 1122 2956 1747 
Q 2956 2369 2687 2733 
Q 2419 3097 1959 3097 
z
M 1959 3584 
Q 2709 3584 3137 3096 
Q 3566 2609 3566 1747 
Q 3566 888 3137 398 
Q 2709 -91 1959 -91 
Q 1206 -91 779 398 
Q 353 888 353 1747 
Q 353 2609 779 3096 
Q 1206 3584 1959 3584 
z
" transform="scale(0.015625)"/>
        <path id="DejaVuSans-79" d="M 2059 -325 
Q 1816 -950 1584 -1140 
Q 1353 -1331 966 -1331 
L 506 -1331 
L 506 -850 
L 844 -850 
Q 1081 -850 1212 -737 
Q 1344 -625 1503 -206 
L 1606 56 
L 191 3500 
L 800 3500 
L 1894 763 
L 2988 3500 
L 3597 3500 
L 2059 -325 
z
" transform="scale(0.015625)"/>
       </defs>
       <use xlink:href="#DejaVuSans-73"/>
       <use xlink:href="#DejaVuSans-65" x="52.099609"/>
       <use xlink:href="#DejaVuSans-63" x="113.623047"/>
       <use xlink:href="#DejaVuSans-72" x="168.603516"/>
       <use xlink:href="#DejaVuSans-65" x="207.466797"/>
       <use xlink:href="#DejaVuSans-74" x="268.990234"/>
       <use xlink:href="#DejaVuSans-6f" x="308.199219"/>
       <use xlink:href="#DejaVuSans-72" x="369.380859"/>
       <use xlink:href="#DejaVuSans-79" x="410.494141"/>
      </g>
     </g>
    </g>
    <g id="xtick_2">
     <g id="line2d_2">
      <g>
       <use xlink:href="#med7975de49" x="65.283198" y="360" style="stroke: #000000; stroke-width: 0.8"/>
      </g>
     </g>
     <g id="text_2">
      <!-- epithelial -->
      <g transform="translate(69.146323 431.614375)rotate(-90)scale(0.14 -0.14)">
       <defs>
        <path id="DejaVuSans-70" d="M 1159 525 
L 1159 -1331 
L 581 -1331 
L 581 3500 
L 1159 3500 
L 1159 2969 
Q 1341 3281 1617 3432 
Q 1894 3584 2278 3584 
Q 2916 3584 3314 3078 
Q 3713 2572 3713 1747 
Q 3713 922 3314 415 
Q 2916 -91 2278 -91 
Q 1894 -91 1617 61 
Q 1341 213 1159 525 
z
M 3116 1747 
Q 3116 2381 2855 2742 
Q 2594 3103 2138 3103 
Q 1681 3103 1420 2742 
Q 1159 2381 1159 1747 
Q 1159 1113 1420 752 
Q 1681 391 2138 391 
Q 2594 391 2855 752 
Q 3116 1113 3116 1747 
z
" transform="scale(0.015625)"/>
        <path id="DejaVuSans-69" d="M 603 3500 
L 1178 3500 
L 1178 0 
L 603 0 
L 603 3500 
z
M 603 4863 
L 1178 4863 
L 1178 4134 
L 603 4134 
L 603 4863 
z
" transform="scale(0.015625)"/>
        <path id="DejaVuSans-68" d="M 3513 2113 
L 3513 0 
L 2938 0 
L 2938 2094 
Q 2938 2591 2744 2837 
Q 2550 3084 2163 3084 
Q 1697 3084 1428 2787 
Q 1159 2491 1159 1978 
L 1159 0 
L 581 0 
L 581 4863 
L 1159 4863 
L 1159 2956 
Q 1366 3272 1645 3428 
Q 1925 3584 2291 3584 
Q 2894 3584 3203 3211 
Q 3513 2838 3513 2113 
z
" transform="scale(0.015625)"/>
        <path id="DejaVuSans-6c" d="M 603 4863 
L 1178 4863 
L 1178 0 
L 603 0 
L 603 4863 
z
" transform="scale(0.015625)"/>
        <path id="DejaVuSans-61" d="M 2194 1759 
Q 1497 1759 1228 1600 
Q 959 1441 959 1056 
Q 959 750 1161 570 
Q 1363 391 1709 391 
Q 2188 391 2477 730 
Q 2766 1069 2766 1631 
L 2766 1759 
L 2194 1759 
z
M 3341 1997 
L 3341 0 
L 2766 0 
L 2766 531 
Q 2569 213 2275 61 
Q 1981 -91 1556 -91 
Q 1019 -91 701 211 
Q 384 513 384 1019 
Q 384 1609 779 1909 
Q 1175 2209 1959 2209 
L 2766 2209 
L 2766 2266 
Q 2766 2663 2505 2880 
Q 2244 3097 1772 3097 
Q 1472 3097 1187 3025 
Q 903 2953 641 2809 
L 641 3341 
Q 956 3463 1253 3523 
Q 1550 3584 1831 3584 
Q 2591 3584 2966 3190 
Q 3341 2797 3341 1997 
z
" transform="scale(0.015625)"/>
       </defs>
       <use xlink:href="#DejaVuSans-65"/>
       <use xlink:href="#DejaVuSans-70" x="61.523438"/>
       <use xlink:href="#DejaVuSans-69" x="125"/>
       <use xlink:href="#DejaVuSans-74" x="152.783203"/>
       <use xlink:href="#DejaVuSans-68" x="191.992188"/>
       <use xlink:href="#DejaVuSans-65" x="255.371094"/>
       <use xlink:href="#DejaVuSans-6c" x="316.894531"/>
       <use xlink:href="#DejaVuSans-69" x="344.677734"/>
       <use xlink:href="#DejaVuSans-61" x="372.460938"/>
       <use xlink:href="#DejaVuSans-6c" x="433.740234"/>
      </g>
     </g>
    </g>
    <g id="xtick_3">
     <g id="line2d_3">
      <g>
       <use xlink:href="#med7975de49" x="85.844836" y="360" style="stroke: #000000; stroke-width: 0.8"/>
      </g>
     </g>
     <g id="text_3">
      <!-- proliferating smooth muscle -->
      <g transform="translate(89.707961 564.015)rotate(-90)scale(0.14 -0.14)">
       <defs>
        <path id="DejaVuSans-66" d="M 2375 4863 
L 2375 4384 
L 1825 4384 
Q 1516 4384 1395 4259 
Q 1275 4134 1275 3809 
L 1275 3500 
L 2222 3500 
L 2222 3053 
L 1275 3053 
L 1275 0 
L 697 0 
L 697 3053 
L 147 3053 
L 147 3500 
L 697 3500 
L 697 3744 
Q 697 4328 969 4595 
Q 1241 4863 1831 4863 
L 2375 4863 
z
" transform="scale(0.015625)"/>
        <path id="DejaVuSans-6e" d="M 3513 2113 
L 3513 0 
L 2938 0 
L 2938 2094 
Q 2938 2591 2744 2837 
Q 2550 3084 2163 3084 
Q 1697 3084 1428 2787 
Q 1159 2491 1159 1978 
L 1159 0 
L 581 0 
L 581 3500 
L 1159 3500 
L 1159 2956 
Q 1366 3272 1645 3428 
Q 1925 3584 2291 3584 
Q 2894 3584 3203 3211 
Q 3513 2838 3513 2113 
z
" transform="scale(0.015625)"/>
        <path id="DejaVuSans-67" d="M 2906 1791 
Q 2906 2416 2648 2759 
Q 2391 3103 1925 3103 
Q 1463 3103 1205 2759 
Q 947 2416 947 1791 
Q 947 1169 1205 825 
Q 1463 481 1925 481 
Q 2391 481 2648 825 
Q 2906 1169 2906 1791 
z
M 3481 434 
Q 3481 -459 3084 -895 
Q 2688 -1331 1869 -1331 
Q 1566 -1331 1297 -1286 
Q 1028 -1241 775 -1147 
L 775 -588 
Q 1028 -725 1275 -790 
Q 1522 -856 1778 -856 
Q 2344 -856 2625 -561 
Q 2906 -266 2906 331 
L 2906 616 
Q 2728 306 2450 153 
Q 2172 0 1784 0 
Q 1141 0 747 490 
Q 353 981 353 1791 
Q 353 2603 747 3093 
Q 1141 3584 1784 3584 
Q 2172 3584 2450 3431 
Q 2728 3278 2906 2969 
L 2906 3500 
L 3481 3500 
L 3481 434 
z
" transform="scale(0.015625)"/>
        <path id="DejaVuSans-20" transform="scale(0.015625)"/>
        <path id="DejaVuSans-6d" d="M 3328 2828 
Q 3544 3216 3844 3400 
Q 4144 3584 4550 3584 
Q 5097 3584 5394 3201 
Q 5691 2819 5691 2113 
L 5691 0 
L 5113 0 
L 5113 2094 
Q 5113 2597 4934 2840 
Q 4756 3084 4391 3084 
Q 3944 3084 3684 2787 
Q 3425 2491 3425 1978 
L 3425 0 
L 2847 0 
L 2847 2094 
Q 2847 2600 2669 2842 
Q 2491 3084 2119 3084 
Q 1678 3084 1418 2786 
Q 1159 2488 1159 1978 
L 1159 0 
L 581 0 
L 581 3500 
L 1159 3500 
L 1159 2956 
Q 1356 3278 1631 3431 
Q 1906 3584 2284 3584 
Q 2666 3584 2933 3390 
Q 3200 3197 3328 2828 
z
" transform="scale(0.015625)"/>
        <path id="DejaVuSans-75" d="M 544 1381 
L 544 3500 
L 1119 3500 
L 1119 1403 
Q 1119 906 1312 657 
Q 1506 409 1894 409 
Q 2359 409 2629 706 
Q 2900 1003 2900 1516 
L 2900 3500 
L 3475 3500 
L 3475 0 
L 2900 0 
L 2900 538 
Q 2691 219 2414 64 
Q 2138 -91 1772 -91 
Q 1169 -91 856 284 
Q 544 659 544 1381 
z
M 1991 3584 
L 1991 3584 
z
" transform="scale(0.015625)"/>
       </defs>
       <use xlink:href="#DejaVuSans-70"/>
       <use xlink:href="#DejaVuSans-72" x="63.476562"/>
       <use xlink:href="#DejaVuSans-6f" x="102.339844"/>
       <use xlink:href="#DejaVuSans-6c" x="163.521484"/>
       <use xlink:href="#DejaVuSans-69" x="191.304688"/>
       <use xlink:href="#DejaVuSans-66" x="219.087891"/>
       <use xlink:href="#DejaVuSans-65" x="254.292969"/>
       <use xlink:href="#DejaVuSans-72" x="315.816406"/>
       <use xlink:href="#DejaVuSans-61" x="356.929688"/>
       <use xlink:href="#DejaVuSans-74" x="418.208984"/>
       <use xlink:href="#DejaVuSans-69" x="457.417969"/>
       <use xlink:href="#DejaVuSans-6e" x="485.201172"/>
       <use xlink:href="#DejaVuSans-67" x="548.580078"/>
       <use xlink:href="#DejaVuSans-20" x="612.056641"/>
       <use xlink:href="#DejaVuSans-73" x="643.84375"/>
       <use xlink:href="#DejaVuSans-6d" x="695.943359"/>
       <use xlink:href="#DejaVuSans-6f" x="793.355469"/>
       <use xlink:href="#DejaVuSans-6f" x="854.537109"/>
       <use xlink:href="#DejaVuSans-74" x="915.71875"/>
       <use xlink:href="#DejaVuSans-68" x="954.927734"/>
       <use xlink:href="#DejaVuSans-20" x="1018.306641"/>
       <use xlink:href="#DejaVuSans-6d" x="1050.09375"/>
       <use xlink:href="#DejaVuSans-75" x="1147.505859"/>
       <use xlink:href="#DejaVuSans-73" x="1210.884766"/>
       <use xlink:href="#DejaVuSans-63" x="1262.984375"/>
       <use xlink:href="#DejaVuSans-6c" x="1317.964844"/>
       <use xlink:href="#DejaVuSans-65" x="1345.748047"/>
      </g>
     </g>
    </g>
    <g id="xtick_4">
     <g id="line2d_4">
      <g>
       <use xlink:href="#med7975de49" x="106.406473" y="360" style="stroke: #000000; stroke-width: 0.8"/>
      </g>
     </g>
     <g id="text_4">
      <!-- lymphatic endothelial -->
      <g transform="translate(110.269598 518.840937)rotate(-90)scale(0.14 -0.14)">
       <defs>
        <path id="DejaVuSans-64" d="M 2906 2969 
L 2906 4863 
L 3481 4863 
L 3481 0 
L 2906 0 
L 2906 525 
Q 2725 213 2448 61 
Q 2172 -91 1784 -91 
Q 1150 -91 751 415 
Q 353 922 353 1747 
Q 353 2572 751 3078 
Q 1150 3584 1784 3584 
Q 2172 3584 2448 3432 
Q 2725 3281 2906 2969 
z
M 947 1747 
Q 947 1113 1208 752 
Q 1469 391 1925 391 
Q 2381 391 2643 752 
Q 2906 1113 2906 1747 
Q 2906 2381 2643 2742 
Q 2381 3103 1925 3103 
Q 1469 3103 1208 2742 
Q 947 2381 947 1747 
z
" transform="scale(0.015625)"/>
       </defs>
       <use xlink:href="#DejaVuSans-6c"/>
       <use xlink:href="#DejaVuSans-79" x="27.783203"/>
       <use xlink:href="#DejaVuSans-6d" x="86.962891"/>
       <use xlink:href="#DejaVuSans-70" x="184.375"/>
       <use xlink:href="#DejaVuSans-68" x="247.851562"/>
       <use xlink:href="#DejaVuSans-61" x="311.230469"/>
       <use xlink:href="#DejaVuSans-74" x="372.509766"/>
       <use xlink:href="#DejaVuSans-69" x="411.71875"/>
       <use xlink:href="#DejaVuSans-63" x="439.501953"/>
       <use xlink:href="#DejaVuSans-20" x="494.482422"/>
       <use xlink:href="#DejaVuSans-65" x="526.269531"/>
       <use xlink:href="#DejaVuSans-6e" x="587.792969"/>
       <use xlink:href="#DejaVuSans-64" x="651.171875"/>
       <use xlink:href="#DejaVuSans-6f" x="714.648438"/>
       <use xlink:href="#DejaVuSans-74" x="775.830078"/>
       <use xlink:href="#DejaVuSans-68" x="815.039062"/>
       <use xlink:href="#DejaVuSans-65" x="878.417969"/>
       <use xlink:href="#DejaVuSans-6c" x="939.941406"/>
       <use xlink:href="#DejaVuSans-69" x="967.724609"/>
       <use xlink:href="#DejaVuSans-61" x="995.507812"/>
       <use xlink:href="#DejaVuSans-6c" x="1056.787109"/>
      </g>
     </g>
    </g>
    <g id="xtick_5">
     <g id="line2d_5">
      <g>
       <use xlink:href="#med7975de49" x="126.96811" y="360" style="stroke: #000000; stroke-width: 0.8"/>
      </g>
     </g>
     <g id="text_5">
      <!-- arterial -->
      <g transform="translate(130.831235 417.550938)rotate(-90)scale(0.14 -0.14)">
       <use xlink:href="#DejaVuSans-61"/>
       <use xlink:href="#DejaVuSans-72" x="61.279297"/>
       <use xlink:href="#DejaVuSans-74" x="102.392578"/>
       <use xlink:href="#DejaVuSans-65" x="141.601562"/>
       <use xlink:href="#DejaVuSans-72" x="203.125"/>
       <use xlink:href="#DejaVuSans-69" x="244.238281"/>
       <use xlink:href="#DejaVuSans-61" x="272.021484"/>
       <use xlink:href="#DejaVuSans-6c" x="333.300781"/>
      </g>
     </g>
    </g>
    <g id="xtick_6">
     <g id="line2d_6">
      <g>
       <use xlink:href="#med7975de49" x="147.529748" y="360" style="stroke: #000000; stroke-width: 0.8"/>
      </g>
     </g>
     <g id="text_6">
      <!-- mesenchymal -->
      <g transform="translate(151.392873 464.993438)rotate(-90)scale(0.14 -0.14)">
       <use xlink:href="#DejaVuSans-6d"/>
       <use xlink:href="#DejaVuSans-65" x="97.412109"/>
       <use xlink:href="#DejaVuSans-73" x="158.935547"/>
       <use xlink:href="#DejaVuSans-65" x="211.035156"/>
       <use xlink:href="#DejaVuSans-6e" x="272.558594"/>
       <use xlink:href="#DejaVuSans-63" x="335.9375"/>
       <use xlink:href="#DejaVuSans-68" x="390.917969"/>
       <use xlink:href="#DejaVuSans-79" x="454.296875"/>
       <use xlink:href="#DejaVuSans-6d" x="513.476562"/>
       <use xlink:href="#DejaVuSans-61" x="610.888672"/>
       <use xlink:href="#DejaVuSans-6c" x="672.167969"/>
      </g>
     </g>
    </g>
    <g id="xtick_7">
     <g id="line2d_7">
      <g>
       <use xlink:href="#med7975de49" x="168.091385" y="360" style="stroke: #000000; stroke-width: 0.8"/>
      </g>
     </g>
     <g id="text_7">
      <!-- ciliated epithelial -->
      <g transform="translate(171.95451 486.999687)rotate(-90)scale(0.14 -0.14)">
       <use xlink:href="#DejaVuSans-63"/>
       <use xlink:href="#DejaVuSans-69" x="54.980469"/>
       <use xlink:href="#DejaVuSans-6c" x="82.763672"/>
       <use xlink:href="#DejaVuSans-69" x="110.546875"/>
       <use xlink:href="#DejaVuSans-61" x="138.330078"/>
       <use xlink:href="#DejaVuSans-74" x="199.609375"/>
       <use xlink:href="#DejaVuSans-65" x="238.818359"/>
       <use xlink:href="#DejaVuSans-64" x="300.341797"/>
       <use xlink:href="#DejaVuSans-20" x="363.818359"/>
       <use xlink:href="#DejaVuSans-65" x="395.605469"/>
       <use xlink:href="#DejaVuSans-70" x="457.128906"/>
       <use xlink:href="#DejaVuSans-69" x="520.605469"/>
       <use xlink:href="#DejaVuSans-74" x="548.388672"/>
       <use xlink:href="#DejaVuSans-68" x="587.597656"/>
       <use xlink:href="#DejaVuSans-65" x="650.976562"/>
       <use xlink:href="#DejaVuSans-6c" x="712.5"/>
       <use xlink:href="#DejaVuSans-69" x="740.283203"/>
       <use xlink:href="#DejaVuSans-61" x="768.066406"/>
       <use xlink:href="#DejaVuSans-6c" x="829.345703"/>
      </g>
     </g>
    </g>
    <g id="xtick_8">
     <g id="line2d_8">
      <g>
       <use xlink:href="#med7975de49" x="188.653022" y="360" style="stroke: #000000; stroke-width: 0.8"/>
      </g>
     </g>
     <g id="text_8">
      <!-- neuronal -->
      <g transform="translate(192.516147 428.707188)rotate(-90)scale(0.14 -0.14)">
       <use xlink:href="#DejaVuSans-6e"/>
       <use xlink:href="#DejaVuSans-65" x="63.378906"/>
       <use xlink:href="#DejaVuSans-75" x="124.902344"/>
       <use xlink:href="#DejaVuSans-72" x="188.28125"/>
       <use xlink:href="#DejaVuSans-6f" x="227.144531"/>
       <use xlink:href="#DejaVuSans-6e" x="288.326172"/>
       <use xlink:href="#DejaVuSans-61" x="351.705078"/>
       <use xlink:href="#DejaVuSans-6c" x="412.984375"/>
      </g>
     </g>
    </g>
    <g id="xtick_9">
     <g id="line2d_9">
      <g>
       <use xlink:href="#med7975de49" x="209.21466" y="360" style="stroke: #000000; stroke-width: 0.8"/>
      </g>
     </g>
     <g id="text_9">
      <!-- pericyte -->
      <g transform="translate(213.077785 424.23375)rotate(-90)scale(0.14 -0.14)">
       <use xlink:href="#DejaVuSans-70"/>
       <use xlink:href="#DejaVuSans-65" x="63.476562"/>
       <use xlink:href="#DejaVuSans-72" x="125"/>
       <use xlink:href="#DejaVuSans-69" x="166.113281"/>
       <use xlink:href="#DejaVuSans-63" x="193.896484"/>
       <use xlink:href="#DejaVuSans-79" x="248.876953"/>
       <use xlink:href="#DejaVuSans-74" x="308.056641"/>
       <use xlink:href="#DejaVuSans-65" x="347.265625"/>
      </g>
     </g>
    </g>
    <g id="xtick_10">
     <g id="line2d_10">
      <g>
       <use xlink:href="#med7975de49" x="229.776297" y="360" style="stroke: #000000; stroke-width: 0.8"/>
      </g>
     </g>
     <g id="text_10">
      <!-- ASM -->
      <g transform="translate(233.639422 397.544062)rotate(-90)scale(0.14 -0.14)">
       <defs>
        <path id="DejaVuSans-41" d="M 2188 4044 
L 1331 1722 
L 3047 1722 
L 2188 4044 
z
M 1831 4666 
L 2547 4666 
L 4325 0 
L 3669 0 
L 3244 1197 
L 1141 1197 
L 716 0 
L 50 0 
L 1831 4666 
z
" transform="scale(0.015625)"/>
        <path id="DejaVuSans-53" d="M 3425 4513 
L 3425 3897 
Q 3066 4069 2747 4153 
Q 2428 4238 2131 4238 
Q 1616 4238 1336 4038 
Q 1056 3838 1056 3469 
Q 1056 3159 1242 3001 
Q 1428 2844 1947 2747 
L 2328 2669 
Q 3034 2534 3370 2195 
Q 3706 1856 3706 1288 
Q 3706 609 3251 259 
Q 2797 -91 1919 -91 
Q 1588 -91 1214 -16 
Q 841 59 441 206 
L 441 856 
Q 825 641 1194 531 
Q 1563 422 1919 422 
Q 2459 422 2753 634 
Q 3047 847 3047 1241 
Q 3047 1584 2836 1778 
Q 2625 1972 2144 2069 
L 1759 2144 
Q 1053 2284 737 2584 
Q 422 2884 422 3419 
Q 422 4038 858 4394 
Q 1294 4750 2059 4750 
Q 2388 4750 2728 4690 
Q 3069 4631 3425 4513 
z
" transform="scale(0.015625)"/>
        <path id="DejaVuSans-4d" d="M 628 4666 
L 1569 4666 
L 2759 1491 
L 3956 4666 
L 4897 4666 
L 4897 0 
L 4281 0 
L 4281 4097 
L 3078 897 
L 2444 897 
L 1241 4097 
L 1241 0 
L 628 0 
L 628 4666 
z
" transform="scale(0.015625)"/>
       </defs>
       <use xlink:href="#DejaVuSans-41"/>
       <use xlink:href="#DejaVuSans-53" x="68.408203"/>
       <use xlink:href="#DejaVuSans-4d" x="131.884766"/>
      </g>
     </g>
    </g>
    <g id="xtick_11">
     <g id="line2d_11">
      <g>
       <use xlink:href="#med7975de49" x="250.337934" y="360" style="stroke: #000000; stroke-width: 0.8"/>
      </g>
     </g>
     <g id="text_11">
      <!-- fibroblast -->
      <g transform="translate(254.201059 432.850312)rotate(-90)scale(0.14 -0.14)">
       <defs>
        <path id="DejaVuSans-62" d="M 3116 1747 
Q 3116 2381 2855 2742 
Q 2594 3103 2138 3103 
Q 1681 3103 1420 2742 
Q 1159 2381 1159 1747 
Q 1159 1113 1420 752 
Q 1681 391 2138 391 
Q 2594 391 2855 752 
Q 3116 1113 3116 1747 
z
M 1159 2969 
Q 1341 3281 1617 3432 
Q 1894 3584 2278 3584 
Q 2916 3584 3314 3078 
Q 3713 2572 3713 1747 
Q 3713 922 3314 415 
Q 2916 -91 2278 -91 
Q 1894 -91 1617 61 
Q 1341 213 1159 525 
L 1159 0 
L 581 0 
L 581 4863 
L 1159 4863 
L 1159 2969 
z
" transform="scale(0.015625)"/>
       </defs>
       <use xlink:href="#DejaVuSans-66"/>
       <use xlink:href="#DejaVuSans-69" x="35.205078"/>
       <use xlink:href="#DejaVuSans-62" x="62.988281"/>
       <use xlink:href="#DejaVuSans-72" x="126.464844"/>
       <use xlink:href="#DejaVuSans-6f" x="165.328125"/>
       <use xlink:href="#DejaVuSans-62" x="226.509766"/>
       <use xlink:href="#DejaVuSans-6c" x="289.986328"/>
       <use xlink:href="#DejaVuSans-61" x="317.769531"/>
       <use xlink:href="#DejaVuSans-73" x="379.048828"/>
       <use xlink:href="#DejaVuSans-74" x="431.148438"/>
      </g>
     </g>
    </g>
    <g id="xtick_12">
     <g id="line2d_12">
      <g>
       <use xlink:href="#med7975de49" x="270.899572" y="360" style="stroke: #000000; stroke-width: 0.8"/>
      </g>
     </g>
     <g id="text_12">
      <!-- megakaryocyte -->
      <g transform="translate(274.762697 475.854375)rotate(-90)scale(0.14 -0.14)">
       <defs>
        <path id="DejaVuSans-6b" d="M 581 4863 
L 1159 4863 
L 1159 1991 
L 2875 3500 
L 3609 3500 
L 1753 1863 
L 3688 0 
L 2938 0 
L 1159 1709 
L 1159 0 
L 581 0 
L 581 4863 
z
" transform="scale(0.015625)"/>
       </defs>
       <use xlink:href="#DejaVuSans-6d"/>
       <use xlink:href="#DejaVuSans-65" x="97.412109"/>
       <use xlink:href="#DejaVuSans-67" x="158.935547"/>
       <use xlink:href="#DejaVuSans-61" x="222.412109"/>
       <use xlink:href="#DejaVuSans-6b" x="283.691406"/>
       <use xlink:href="#DejaVuSans-61" x="339.851562"/>
       <use xlink:href="#DejaVuSans-72" x="401.130859"/>
       <use xlink:href="#DejaVuSans-79" x="442.244141"/>
       <use xlink:href="#DejaVuSans-6f" x="501.423828"/>
       <use xlink:href="#DejaVuSans-63" x="562.605469"/>
       <use xlink:href="#DejaVuSans-79" x="617.585938"/>
       <use xlink:href="#DejaVuSans-74" x="676.765625"/>
       <use xlink:href="#DejaVuSans-65" x="715.974609"/>
      </g>
     </g>
    </g>
    <g id="xtick_13">
     <g id="line2d_13">
      <g>
       <use xlink:href="#med7975de49" x="291.461209" y="360" style="stroke: #000000; stroke-width: 0.8"/>
      </g>
     </g>
     <g id="text_13">
      <!-- proximal progenitor -->
      <g transform="translate(295.324334 505.155938)rotate(-90)scale(0.14 -0.14)">
       <defs>
        <path id="DejaVuSans-78" d="M 3513 3500 
L 2247 1797 
L 3578 0 
L 2900 0 
L 1881 1375 
L 863 0 
L 184 0 
L 1544 1831 
L 300 3500 
L 978 3500 
L 1906 2253 
L 2834 3500 
L 3513 3500 
z
" transform="scale(0.015625)"/>
       </defs>
       <use xlink:href="#DejaVuSans-70"/>
       <use xlink:href="#DejaVuSans-72" x="63.476562"/>
       <use xlink:href="#DejaVuSans-6f" x="102.339844"/>
       <use xlink:href="#DejaVuSans-78" x="160.396484"/>
       <use xlink:href="#DejaVuSans-69" x="219.576172"/>
       <use xlink:href="#DejaVuSans-6d" x="247.359375"/>
       <use xlink:href="#DejaVuSans-61" x="344.771484"/>
       <use xlink:href="#DejaVuSans-6c" x="406.050781"/>
       <use xlink:href="#DejaVuSans-20" x="433.833984"/>
       <use xlink:href="#DejaVuSans-70" x="465.621094"/>
       <use xlink:href="#DejaVuSans-72" x="529.097656"/>
       <use xlink:href="#DejaVuSans-6f" x="567.960938"/>
       <use xlink:href="#DejaVuSans-67" x="629.142578"/>
       <use xlink:href="#DejaVuSans-65" x="692.619141"/>
       <use xlink:href="#DejaVuSans-6e" x="754.142578"/>
       <use xlink:href="#DejaVuSans-69" x="817.521484"/>
       <use xlink:href="#DejaVuSans-74" x="845.304688"/>
       <use xlink:href="#DejaVuSans-6f" x="884.513672"/>
       <use xlink:href="#DejaVuSans-72" x="945.695312"/>
      </g>
     </g>
    </g>
    <g id="xtick_14">
     <g id="line2d_14">
      <g>
       <use xlink:href="#med7975de49" x="312.022846" y="360" style="stroke: #000000; stroke-width: 0.8"/>
      </g>
     </g>
     <g id="text_14">
      <!-- endothelial -->
      <g transform="translate(315.885971 445.16375)rotate(-90)scale(0.14 -0.14)">
       <use xlink:href="#DejaVuSans-65"/>
       <use xlink:href="#DejaVuSans-6e" x="61.523438"/>
       <use xlink:href="#DejaVuSans-64" x="124.902344"/>
       <use xlink:href="#DejaVuSans-6f" x="188.378906"/>
       <use xlink:href="#DejaVuSans-74" x="249.560547"/>
       <use xlink:href="#DejaVuSans-68" x="288.769531"/>
       <use xlink:href="#DejaVuSans-65" x="352.148438"/>
       <use xlink:href="#DejaVuSans-6c" x="413.671875"/>
       <use xlink:href="#DejaVuSans-69" x="441.455078"/>
       <use xlink:href="#DejaVuSans-61" x="469.238281"/>
       <use xlink:href="#DejaVuSans-6c" x="530.517578"/>
      </g>
     </g>
    </g>
    <g id="xtick_15">
     <g id="line2d_15">
      <g>
       <use xlink:href="#med7975de49" x="332.584484" y="360" style="stroke: #000000; stroke-width: 0.8"/>
      </g>
     </g>
     <g id="text_15">
      <!-- neuroendocrine -->
      <g transform="translate(336.447609 477.13625)rotate(-90)scale(0.14 -0.14)">
       <use xlink:href="#DejaVuSans-6e"/>
       <use xlink:href="#DejaVuSans-65" x="63.378906"/>
       <use xlink:href="#DejaVuSans-75" x="124.902344"/>
       <use xlink:href="#DejaVuSans-72" x="188.28125"/>
       <use xlink:href="#DejaVuSans-6f" x="227.144531"/>
       <use xlink:href="#DejaVuSans-65" x="288.326172"/>
       <use xlink:href="#DejaVuSans-6e" x="349.849609"/>
       <use xlink:href="#DejaVuSans-64" x="413.228516"/>
       <use xlink:href="#DejaVuSans-6f" x="476.705078"/>
       <use xlink:href="#DejaVuSans-63" x="537.886719"/>
       <use xlink:href="#DejaVuSans-72" x="592.867188"/>
       <use xlink:href="#DejaVuSans-69" x="633.980469"/>
       <use xlink:href="#DejaVuSans-6e" x="661.763672"/>
       <use xlink:href="#DejaVuSans-65" x="725.142578"/>
      </g>
     </g>
    </g>
    <g id="xtick_16">
     <g id="line2d_16">
      <g>
       <use xlink:href="#med7975de49" x="353.146121" y="360" style="stroke: #000000; stroke-width: 0.8"/>
      </g>
     </g>
     <g id="text_16">
      <!-- chondroblast -->
      <g transform="translate(357.009246 458.041562)rotate(-90)scale(0.14 -0.14)">
       <use xlink:href="#DejaVuSans-63"/>
       <use xlink:href="#DejaVuSans-68" x="54.980469"/>
       <use xlink:href="#DejaVuSans-6f" x="118.359375"/>
       <use xlink:href="#DejaVuSans-6e" x="179.541016"/>
       <use xlink:href="#DejaVuSans-64" x="242.919922"/>
       <use xlink:href="#DejaVuSans-72" x="306.396484"/>
       <use xlink:href="#DejaVuSans-6f" x="345.259766"/>
       <use xlink:href="#DejaVuSans-62" x="406.441406"/>
       <use xlink:href="#DejaVuSans-6c" x="469.917969"/>
       <use xlink:href="#DejaVuSans-61" x="497.701172"/>
       <use xlink:href="#DejaVuSans-73" x="558.980469"/>
       <use xlink:href="#DejaVuSans-74" x="611.080078"/>
      </g>
     </g>
    </g>
    <g id="xtick_17">
     <g id="line2d_17">
      <g>
       <use xlink:href="#med7975de49" x="373.707758" y="360" style="stroke: #000000; stroke-width: 0.8"/>
      </g>
     </g>
     <g id="text_17">
      <!-- Dendritic -->
      <g transform="translate(377.570883 430.875)rotate(-90)scale(0.14 -0.14)">
       <defs>
        <path id="DejaVuSans-44" d="M 1259 4147 
L 1259 519 
L 2022 519 
Q 2988 519 3436 956 
Q 3884 1394 3884 2338 
Q 3884 3275 3436 3711 
Q 2988 4147 2022 4147 
L 1259 4147 
z
M 628 4666 
L 1925 4666 
Q 3281 4666 3915 4102 
Q 4550 3538 4550 2338 
Q 4550 1131 3912 565 
Q 3275 0 1925 0 
L 628 0 
L 628 4666 
z
" transform="scale(0.015625)"/>
       </defs>
       <use xlink:href="#DejaVuSans-44"/>
       <use xlink:href="#DejaVuSans-65" x="77.001953"/>
       <use xlink:href="#DejaVuSans-6e" x="138.525391"/>
       <use xlink:href="#DejaVuSans-64" x="201.904297"/>
       <use xlink:href="#DejaVuSans-72" x="265.380859"/>
       <use xlink:href="#DejaVuSans-69" x="306.494141"/>
       <use xlink:href="#DejaVuSans-74" x="334.277344"/>
       <use xlink:href="#DejaVuSans-69" x="373.486328"/>
       <use xlink:href="#DejaVuSans-63" x="401.269531"/>
      </g>
     </g>
    </g>
    <g id="xtick_18">
     <g id="line2d_18">
      <g>
       <use xlink:href="#med7975de49" x="394.269396" y="360" style="stroke: #000000; stroke-width: 0.8"/>
      </g>
     </g>
     <g id="text_18">
      <!-- macrophage -->
      <g transform="translate(398.132521 454.7625)rotate(-90)scale(0.14 -0.14)">
       <use xlink:href="#DejaVuSans-6d"/>
       <use xlink:href="#DejaVuSans-61" x="97.412109"/>
       <use xlink:href="#DejaVuSans-63" x="158.691406"/>
       <use xlink:href="#DejaVuSans-72" x="213.671875"/>
       <use xlink:href="#DejaVuSans-6f" x="252.535156"/>
       <use xlink:href="#DejaVuSans-70" x="313.716797"/>
       <use xlink:href="#DejaVuSans-68" x="377.193359"/>
       <use xlink:href="#DejaVuSans-61" x="440.572266"/>
       <use xlink:href="#DejaVuSans-67" x="501.851562"/>
       <use xlink:href="#DejaVuSans-65" x="565.328125"/>
      </g>
     </g>
    </g>
    <g id="xtick_19">
     <g id="line2d_19">
      <g>
       <use xlink:href="#med7975de49" x="414.831033" y="360" style="stroke: #000000; stroke-width: 0.8"/>
      </g>
     </g>
     <g id="text_19">
      <!-- myeloid -->
      <g transform="translate(418.694158 422.770312)rotate(-90)scale(0.14 -0.14)">
       <use xlink:href="#DejaVuSans-6d"/>
       <use xlink:href="#DejaVuSans-79" x="97.412109"/>
       <use xlink:href="#DejaVuSans-65" x="156.591797"/>
       <use xlink:href="#DejaVuSans-6c" x="218.115234"/>
       <use xlink:href="#DejaVuSans-6f" x="245.898438"/>
       <use xlink:href="#DejaVuSans-69" x="307.080078"/>
       <use xlink:href="#DejaVuSans-64" x="334.863281"/>
      </g>
     </g>
    </g>
    <g id="xtick_20">
     <g id="line2d_20">
      <g>
       <use xlink:href="#med7975de49" x="435.39267" y="360" style="stroke: #000000; stroke-width: 0.8"/>
      </g>
     </g>
     <g id="text_20">
      <!-- mesothelial -->
      <g transform="translate(439.255795 448.333438)rotate(-90)scale(0.14 -0.14)">
       <use xlink:href="#DejaVuSans-6d"/>
       <use xlink:href="#DejaVuSans-65" x="97.412109"/>
       <use xlink:href="#DejaVuSans-73" x="158.935547"/>
       <use xlink:href="#DejaVuSans-6f" x="211.035156"/>
       <use xlink:href="#DejaVuSans-74" x="272.216797"/>
       <use xlink:href="#DejaVuSans-68" x="311.425781"/>
       <use xlink:href="#DejaVuSans-65" x="374.804688"/>
       <use xlink:href="#DejaVuSans-6c" x="436.328125"/>
       <use xlink:href="#DejaVuSans-69" x="464.111328"/>
       <use xlink:href="#DejaVuSans-61" x="491.894531"/>
       <use xlink:href="#DejaVuSans-6c" x="553.173828"/>
      </g>
     </g>
    </g>
    <g id="xtick_21">
     <g id="line2d_21">
      <g>
       <use xlink:href="#med7975de49" x="455.954307" y="360" style="stroke: #000000; stroke-width: 0.8"/>
      </g>
     </g>
     <g id="text_21">
      <!-- monocyte -->
      <g transform="translate(459.817432 436.72875)rotate(-90)scale(0.14 -0.14)">
       <use xlink:href="#DejaVuSans-6d"/>
       <use xlink:href="#DejaVuSans-6f" x="97.412109"/>
       <use xlink:href="#DejaVuSans-6e" x="158.59375"/>
       <use xlink:href="#DejaVuSans-6f" x="221.972656"/>
       <use xlink:href="#DejaVuSans-63" x="283.154297"/>
       <use xlink:href="#DejaVuSans-79" x="338.134766"/>
       <use xlink:href="#DejaVuSans-74" x="397.314453"/>
       <use xlink:href="#DejaVuSans-65" x="436.523438"/>
      </g>
     </g>
    </g>
    <g id="xtick_22">
     <g id="line2d_22">
      <g>
       <use xlink:href="#med7975de49" x="476.515945" y="360" style="stroke: #000000; stroke-width: 0.8"/>
      </g>
     </g>
     <g id="text_22">
      <!-- capillary -->
      <g transform="translate(480.37907 426.454063)rotate(-90)scale(0.14 -0.14)">
       <use xlink:href="#DejaVuSans-63"/>
       <use xlink:href="#DejaVuSans-61" x="54.980469"/>
       <use xlink:href="#DejaVuSans-70" x="116.259766"/>
       <use xlink:href="#DejaVuSans-69" x="179.736328"/>
       <use xlink:href="#DejaVuSans-6c" x="207.519531"/>
       <use xlink:href="#DejaVuSans-6c" x="235.302734"/>
       <use xlink:href="#DejaVuSans-61" x="263.085938"/>
       <use xlink:href="#DejaVuSans-72" x="324.365234"/>
       <use xlink:href="#DejaVuSans-79" x="365.478516"/>
      </g>
     </g>
    </g>
    <g id="xtick_23">
     <g id="line2d_23">
      <g>
       <use xlink:href="#med7975de49" x="497.077582" y="360" style="stroke: #000000; stroke-width: 0.8"/>
      </g>
     </g>
     <g id="text_23">
      <!-- ILC3 -->
      <g transform="translate(500.940707 397.614062)rotate(-90)scale(0.14 -0.14)">
       <defs>
        <path id="DejaVuSans-49" d="M 628 4666 
L 1259 4666 
L 1259 0 
L 628 0 
L 628 4666 
z
" transform="scale(0.015625)"/>
        <path id="DejaVuSans-4c" d="M 628 4666 
L 1259 4666 
L 1259 531 
L 3531 531 
L 3531 0 
L 628 0 
L 628 4666 
z
" transform="scale(0.015625)"/>
        <path id="DejaVuSans-43" d="M 4122 4306 
L 4122 3641 
Q 3803 3938 3442 4084 
Q 3081 4231 2675 4231 
Q 1875 4231 1450 3742 
Q 1025 3253 1025 2328 
Q 1025 1406 1450 917 
Q 1875 428 2675 428 
Q 3081 428 3442 575 
Q 3803 722 4122 1019 
L 4122 359 
Q 3791 134 3420 21 
Q 3050 -91 2638 -91 
Q 1578 -91 968 557 
Q 359 1206 359 2328 
Q 359 3453 968 4101 
Q 1578 4750 2638 4750 
Q 3056 4750 3426 4639 
Q 3797 4528 4122 4306 
z
" transform="scale(0.015625)"/>
        <path id="DejaVuSans-33" d="M 2597 2516 
Q 3050 2419 3304 2112 
Q 3559 1806 3559 1356 
Q 3559 666 3084 287 
Q 2609 -91 1734 -91 
Q 1441 -91 1130 -33 
Q 819 25 488 141 
L 488 750 
Q 750 597 1062 519 
Q 1375 441 1716 441 
Q 2309 441 2620 675 
Q 2931 909 2931 1356 
Q 2931 1769 2642 2001 
Q 2353 2234 1838 2234 
L 1294 2234 
L 1294 2753 
L 1863 2753 
Q 2328 2753 2575 2939 
Q 2822 3125 2822 3475 
Q 2822 3834 2567 4026 
Q 2313 4219 1838 4219 
Q 1578 4219 1281 4162 
Q 984 4106 628 3988 
L 628 4550 
Q 988 4650 1302 4700 
Q 1616 4750 1894 4750 
Q 2613 4750 3031 4423 
Q 3450 4097 3450 3541 
Q 3450 3153 3228 2886 
Q 3006 2619 2597 2516 
z
" transform="scale(0.015625)"/>
       </defs>
       <use xlink:href="#DejaVuSans-49"/>
       <use xlink:href="#DejaVuSans-4c" x="29.492188"/>
       <use xlink:href="#DejaVuSans-43" x="85.205078"/>
       <use xlink:href="#DejaVuSans-33" x="155.029297"/>
      </g>
     </g>
    </g>
    <g id="xtick_24">
     <g id="line2d_24">
      <g>
       <use xlink:href="#med7975de49" x="517.639219" y="360" style="stroke: #000000; stroke-width: 0.8"/>
      </g>
     </g>
     <g id="text_24">
      <!-- B-cell -->
      <g transform="translate(521.502344 405.747187)rotate(-90)scale(0.14 -0.14)">
       <defs>
        <path id="DejaVuSans-42" d="M 1259 2228 
L 1259 519 
L 2272 519 
Q 2781 519 3026 730 
Q 3272 941 3272 1375 
Q 3272 1813 3026 2020 
Q 2781 2228 2272 2228 
L 1259 2228 
z
M 1259 4147 
L 1259 2741 
L 2194 2741 
Q 2656 2741 2882 2914 
Q 3109 3088 3109 3444 
Q 3109 3797 2882 3972 
Q 2656 4147 2194 4147 
L 1259 4147 
z
M 628 4666 
L 2241 4666 
Q 2963 4666 3353 4366 
Q 3744 4066 3744 3513 
Q 3744 3084 3544 2831 
Q 3344 2578 2956 2516 
Q 3422 2416 3680 2098 
Q 3938 1781 3938 1306 
Q 3938 681 3513 340 
Q 3088 0 2303 0 
L 628 0 
L 628 4666 
z
" transform="scale(0.015625)"/>
        <path id="DejaVuSans-2d" d="M 313 2009 
L 1997 2009 
L 1997 1497 
L 313 1497 
L 313 2009 
z
" transform="scale(0.015625)"/>
       </defs>
       <use xlink:href="#DejaVuSans-42"/>
       <use xlink:href="#DejaVuSans-2d" x="68.603516"/>
       <use xlink:href="#DejaVuSans-63" x="104.6875"/>
       <use xlink:href="#DejaVuSans-65" x="159.667969"/>
       <use xlink:href="#DejaVuSans-6c" x="221.191406"/>
       <use xlink:href="#DejaVuSans-6c" x="248.974609"/>
      </g>
     </g>
    </g>
    <g id="xtick_25">
     <g id="line2d_25">
      <g>
       <use xlink:href="#med7975de49" x="538.200857" y="360" style="stroke: #000000; stroke-width: 0.8"/>
      </g>
     </g>
     <g id="text_25">
      <!-- erythrocyte -->
      <g transform="translate(542.063982 448.110313)rotate(-90)scale(0.14 -0.14)">
       <use xlink:href="#DejaVuSans-65"/>
       <use xlink:href="#DejaVuSans-72" x="61.523438"/>
       <use xlink:href="#DejaVuSans-79" x="102.636719"/>
       <use xlink:href="#DejaVuSans-74" x="161.816406"/>
       <use xlink:href="#DejaVuSans-68" x="201.025391"/>
       <use xlink:href="#DejaVuSans-72" x="264.404297"/>
       <use xlink:href="#DejaVuSans-6f" x="303.267578"/>
       <use xlink:href="#DejaVuSans-63" x="364.449219"/>
       <use xlink:href="#DejaVuSans-79" x="419.429688"/>
       <use xlink:href="#DejaVuSans-74" x="478.609375"/>
       <use xlink:href="#DejaVuSans-65" x="517.818359"/>
      </g>
     </g>
    </g>
    <g id="xtick_26">
     <g id="line2d_26">
      <g>
       <use xlink:href="#med7975de49" x="558.762494" y="360" style="stroke: #000000; stroke-width: 0.8"/>
      </g>
     </g>
     <g id="text_26">
      <!-- myeloid progenitor -->
      <g transform="translate(562.625619 500.188125)rotate(-90)scale(0.14 -0.14)">
       <use xlink:href="#DejaVuSans-6d"/>
       <use xlink:href="#DejaVuSans-79" x="97.412109"/>
       <use xlink:href="#DejaVuSans-65" x="156.591797"/>
       <use xlink:href="#DejaVuSans-6c" x="218.115234"/>
       <use xlink:href="#DejaVuSans-6f" x="245.898438"/>
       <use xlink:href="#DejaVuSans-69" x="307.080078"/>
       <use xlink:href="#DejaVuSans-64" x="334.863281"/>
       <use xlink:href="#DejaVuSans-20" x="398.339844"/>
       <use xlink:href="#DejaVuSans-70" x="430.126953"/>
       <use xlink:href="#DejaVuSans-72" x="493.603516"/>
       <use xlink:href="#DejaVuSans-6f" x="532.466797"/>
       <use xlink:href="#DejaVuSans-67" x="593.648438"/>
       <use xlink:href="#DejaVuSans-65" x="657.125"/>
       <use xlink:href="#DejaVuSans-6e" x="718.648438"/>
       <use xlink:href="#DejaVuSans-69" x="782.027344"/>
       <use xlink:href="#DejaVuSans-74" x="809.810547"/>
       <use xlink:href="#DejaVuSans-6f" x="849.019531"/>
       <use xlink:href="#DejaVuSans-72" x="910.201172"/>
      </g>
     </g>
    </g>
    <g id="xtick_27">
     <g id="line2d_27">
      <g>
       <use xlink:href="#med7975de49" x="579.324131" y="360" style="stroke: #000000; stroke-width: 0.8"/>
      </g>
     </g>
     <g id="text_27">
      <!-- mast/basophil -->
      <g transform="translate(583.187256 465.579687)rotate(-90)scale(0.14 -0.14)">
       <defs>
        <path id="DejaVuSans-2f" d="M 1625 4666 
L 2156 4666 
L 531 -594 
L 0 -594 
L 1625 4666 
z
" transform="scale(0.015625)"/>
       </defs>
       <use xlink:href="#DejaVuSans-6d"/>
       <use xlink:href="#DejaVuSans-61" x="97.412109"/>
       <use xlink:href="#DejaVuSans-73" x="158.691406"/>
       <use xlink:href="#DejaVuSans-74" x="210.791016"/>
       <use xlink:href="#DejaVuSans-2f" x="250"/>
       <use xlink:href="#DejaVuSans-62" x="283.691406"/>
       <use xlink:href="#DejaVuSans-61" x="347.167969"/>
       <use xlink:href="#DejaVuSans-73" x="408.447266"/>
       <use xlink:href="#DejaVuSans-6f" x="460.546875"/>
       <use xlink:href="#DejaVuSans-70" x="521.728516"/>
       <use xlink:href="#DejaVuSans-68" x="585.205078"/>
       <use xlink:href="#DejaVuSans-69" x="648.583984"/>
       <use xlink:href="#DejaVuSans-6c" x="676.367188"/>
      </g>
     </g>
    </g>
    <g id="xtick_28">
     <g id="line2d_28">
      <g>
       <use xlink:href="#med7975de49" x="599.885769" y="360" style="stroke: #000000; stroke-width: 0.8"/>
      </g>
     </g>
     <g id="text_28">
      <!-- venous -->
      <g transform="translate(603.748894 417.505)rotate(-90)scale(0.14 -0.14)">
       <defs>
        <path id="DejaVuSans-76" d="M 191 3500 
L 800 3500 
L 1894 563 
L 2988 3500 
L 3597 3500 
L 2284 0 
L 1503 0 
L 191 3500 
z
" transform="scale(0.015625)"/>
       </defs>
       <use xlink:href="#DejaVuSans-76"/>
       <use xlink:href="#DejaVuSans-65" x="59.179688"/>
       <use xlink:href="#DejaVuSans-6e" x="120.703125"/>
       <use xlink:href="#DejaVuSans-6f" x="184.082031"/>
       <use xlink:href="#DejaVuSans-75" x="245.263672"/>
       <use xlink:href="#DejaVuSans-73" x="308.642578"/>
      </g>
     </g>
    </g>
    <g id="xtick_29">
     <g id="line2d_29">
      <g>
       <use xlink:href="#med7975de49" x="620.447406" y="360" style="stroke: #000000; stroke-width: 0.8"/>
      </g>
     </g>
     <g id="text_29">
      <!-- neutrophil -->
      <g transform="translate(624.310531 438.393438)rotate(-90)scale(0.14 -0.14)">
       <use xlink:href="#DejaVuSans-6e"/>
       <use xlink:href="#DejaVuSans-65" x="63.378906"/>
       <use xlink:href="#DejaVuSans-75" x="124.902344"/>
       <use xlink:href="#DejaVuSans-74" x="188.28125"/>
       <use xlink:href="#DejaVuSans-72" x="227.490234"/>
       <use xlink:href="#DejaVuSans-6f" x="266.353516"/>
       <use xlink:href="#DejaVuSans-70" x="327.535156"/>
       <use xlink:href="#DejaVuSans-68" x="391.011719"/>
       <use xlink:href="#DejaVuSans-69" x="454.390625"/>
       <use xlink:href="#DejaVuSans-6c" x="482.173828"/>
      </g>
     </g>
    </g>
    <g id="xtick_30">
     <g id="line2d_30">
      <g>
       <use xlink:href="#med7975de49" x="641.009043" y="360" style="stroke: #000000; stroke-width: 0.8"/>
      </g>
     </g>
     <g id="text_30">
      <!-- ILC2 -->
      <g transform="translate(644.872168 397.614062)rotate(-90)scale(0.14 -0.14)">
       <defs>
        <path id="DejaVuSans-32" d="M 1228 531 
L 3431 531 
L 3431 0 
L 469 0 
L 469 531 
Q 828 903 1448 1529 
Q 2069 2156 2228 2338 
Q 2531 2678 2651 2914 
Q 2772 3150 2772 3378 
Q 2772 3750 2511 3984 
Q 2250 4219 1831 4219 
Q 1534 4219 1204 4116 
Q 875 4013 500 3803 
L 500 4441 
Q 881 4594 1212 4672 
Q 1544 4750 1819 4750 
Q 2544 4750 2975 4387 
Q 3406 4025 3406 3419 
Q 3406 3131 3298 2873 
Q 3191 2616 2906 2266 
Q 2828 2175 2409 1742 
Q 1991 1309 1228 531 
z
" transform="scale(0.015625)"/>
       </defs>
       <use xlink:href="#DejaVuSans-49"/>
       <use xlink:href="#DejaVuSans-4c" x="29.492188"/>
       <use xlink:href="#DejaVuSans-43" x="85.205078"/>
       <use xlink:href="#DejaVuSans-32" x="155.029297"/>
      </g>
     </g>
    </g>
    <g id="xtick_31">
     <g id="line2d_31">
      <g>
       <use xlink:href="#med7975de49" x="661.570681" y="360" style="stroke: #000000; stroke-width: 0.8"/>
      </g>
     </g>
     <g id="text_31">
      <!-- lymphoid progenitor -->
      <g transform="translate(665.433806 509.334063)rotate(-90)scale(0.14 -0.14)">
       <use xlink:href="#DejaVuSans-6c"/>
       <use xlink:href="#DejaVuSans-79" x="27.783203"/>
       <use xlink:href="#DejaVuSans-6d" x="86.962891"/>
       <use xlink:href="#DejaVuSans-70" x="184.375"/>
       <use xlink:href="#DejaVuSans-68" x="247.851562"/>
       <use xlink:href="#DejaVuSans-6f" x="311.230469"/>
       <use xlink:href="#DejaVuSans-69" x="372.412109"/>
       <use xlink:href="#DejaVuSans-64" x="400.195312"/>
       <use xlink:href="#DejaVuSans-20" x="463.671875"/>
       <use xlink:href="#DejaVuSans-70" x="495.458984"/>
       <use xlink:href="#DejaVuSans-72" x="558.935547"/>
       <use xlink:href="#DejaVuSans-6f" x="597.798828"/>
       <use xlink:href="#DejaVuSans-67" x="658.980469"/>
       <use xlink:href="#DejaVuSans-65" x="722.457031"/>
       <use xlink:href="#DejaVuSans-6e" x="783.980469"/>
       <use xlink:href="#DejaVuSans-69" x="847.359375"/>
       <use xlink:href="#DejaVuSans-74" x="875.142578"/>
       <use xlink:href="#DejaVuSans-6f" x="914.351562"/>
       <use xlink:href="#DejaVuSans-72" x="975.533203"/>
      </g>
     </g>
    </g>
    <g id="xtick_32">
     <g id="line2d_32">
      <g>
       <use xlink:href="#med7975de49" x="682.132318" y="360" style="stroke: #000000; stroke-width: 0.8"/>
      </g>
     </g>
     <g id="text_32">
      <!-- natural killer -->
      <g transform="translate(685.995443 455.630938)rotate(-90)scale(0.14 -0.14)">
       <use xlink:href="#DejaVuSans-6e"/>
       <use xlink:href="#DejaVuSans-61" x="63.378906"/>
       <use xlink:href="#DejaVuSans-74" x="124.658203"/>
       <use xlink:href="#DejaVuSans-75" x="163.867188"/>
       <use xlink:href="#DejaVuSans-72" x="227.246094"/>
       <use xlink:href="#DejaVuSans-61" x="268.359375"/>
       <use xlink:href="#DejaVuSans-6c" x="329.638672"/>
       <use xlink:href="#DejaVuSans-20" x="357.421875"/>
       <use xlink:href="#DejaVuSans-6b" x="389.208984"/>
       <use xlink:href="#DejaVuSans-69" x="447.119141"/>
       <use xlink:href="#DejaVuSans-6c" x="474.902344"/>
       <use xlink:href="#DejaVuSans-6c" x="502.685547"/>
       <use xlink:href="#DejaVuSans-65" x="530.46875"/>
       <use xlink:href="#DejaVuSans-72" x="591.992188"/>
      </g>
     </g>
    </g>
    <g id="text_33">
     <!-- cell type -->
     <g transform="translate(330.091406 578.652812)scale(0.14 -0.14)">
      <use xlink:href="#DejaVuSans-63"/>
      <use xlink:href="#DejaVuSans-65" x="54.980469"/>
      <use xlink:href="#DejaVuSans-6c" x="116.503906"/>
      <use xlink:href="#DejaVuSans-6c" x="144.287109"/>
      <use xlink:href="#DejaVuSans-20" x="172.070312"/>
      <use xlink:href="#DejaVuSans-74" x="203.857422"/>
      <use xlink:href="#DejaVuSans-79" x="243.066406"/>
      <use xlink:href="#DejaVuSans-70" x="302.246094"/>
      <use xlink:href="#DejaVuSans-65" x="365.722656"/>
     </g>
    </g>
   </g>
   <g id="matplotlib.axis_2">
    <g id="ytick_1">
     <g id="line2d_33">
      <defs>
       <path id="ma2fcd3d7fd" d="M 0 0 
L -3.5 0 
" style="stroke: #000000; stroke-width: 0.8"/>
      </defs>
      <g>
       <use xlink:href="#ma2fcd3d7fd" x="0" y="333.033652" style="stroke: #000000; stroke-width: 0.8"/>
      </g>
     </g>
     <g id="text_34">
      <!-- 0.000000 -->
      <g transform="translate(-73.801875 338.352558)scale(0.14 -0.14)">
       <defs>
        <path id="DejaVuSans-30" d="M 2034 4250 
Q 1547 4250 1301 3770 
Q 1056 3291 1056 2328 
Q 1056 1369 1301 889 
Q 1547 409 2034 409 
Q 2525 409 2770 889 
Q 3016 1369 3016 2328 
Q 3016 3291 2770 3770 
Q 2525 4250 2034 4250 
z
M 2034 4750 
Q 2819 4750 3233 4129 
Q 3647 3509 3647 2328 
Q 3647 1150 3233 529 
Q 2819 -91 2034 -91 
Q 1250 -91 836 529 
Q 422 1150 422 2328 
Q 422 3509 836 4129 
Q 1250 4750 2034 4750 
z
" transform="scale(0.015625)"/>
        <path id="DejaVuSans-2e" d="M 684 794 
L 1344 794 
L 1344 0 
L 684 0 
L 684 794 
z
" transform="scale(0.015625)"/>
       </defs>
       <use xlink:href="#DejaVuSans-30"/>
       <use xlink:href="#DejaVuSans-2e" x="63.623047"/>
       <use xlink:href="#DejaVuSans-30" x="95.410156"/>
       <use xlink:href="#DejaVuSans-30" x="159.033203"/>
       <use xlink:href="#DejaVuSans-30" x="222.65625"/>
       <use xlink:href="#DejaVuSans-30" x="286.279297"/>
       <use xlink:href="#DejaVuSans-30" x="349.902344"/>
       <use xlink:href="#DejaVuSans-30" x="413.525391"/>
      </g>
     </g>
    </g>
    <g id="ytick_2">
     <g id="line2d_34">
      <g>
       <use xlink:href="#ma2fcd3d7fd" x="0" y="289.622443" style="stroke: #000000; stroke-width: 0.8"/>
      </g>
     </g>
     <g id="text_35">
      <!-- 0.000025 -->
      <g transform="translate(-73.801875 294.941349)scale(0.14 -0.14)">
       <defs>
        <path id="DejaVuSans-35" d="M 691 4666 
L 3169 4666 
L 3169 4134 
L 1269 4134 
L 1269 2991 
Q 1406 3038 1543 3061 
Q 1681 3084 1819 3084 
Q 2600 3084 3056 2656 
Q 3513 2228 3513 1497 
Q 3513 744 3044 326 
Q 2575 -91 1722 -91 
Q 1428 -91 1123 -41 
Q 819 9 494 109 
L 494 744 
Q 775 591 1075 516 
Q 1375 441 1709 441 
Q 2250 441 2565 725 
Q 2881 1009 2881 1497 
Q 2881 1984 2565 2268 
Q 2250 2553 1709 2553 
Q 1456 2553 1204 2497 
Q 953 2441 691 2322 
L 691 4666 
z
" transform="scale(0.015625)"/>
       </defs>
       <use xlink:href="#DejaVuSans-30"/>
       <use xlink:href="#DejaVuSans-2e" x="63.623047"/>
       <use xlink:href="#DejaVuSans-30" x="95.410156"/>
       <use xlink:href="#DejaVuSans-30" x="159.033203"/>
       <use xlink:href="#DejaVuSans-30" x="222.65625"/>
       <use xlink:href="#DejaVuSans-30" x="286.279297"/>
       <use xlink:href="#DejaVuSans-32" x="349.902344"/>
       <use xlink:href="#DejaVuSans-35" x="413.525391"/>
      </g>
     </g>
    </g>
    <g id="ytick_3">
     <g id="line2d_35">
      <g>
       <use xlink:href="#ma2fcd3d7fd" x="0" y="246.211234" style="stroke: #000000; stroke-width: 0.8"/>
      </g>
     </g>
     <g id="text_36">
      <!-- 0.000050 -->
      <g transform="translate(-73.801875 251.530141)scale(0.14 -0.14)">
       <use xlink:href="#DejaVuSans-30"/>
       <use xlink:href="#DejaVuSans-2e" x="63.623047"/>
       <use xlink:href="#DejaVuSans-30" x="95.410156"/>
       <use xlink:href="#DejaVuSans-30" x="159.033203"/>
       <use xlink:href="#DejaVuSans-30" x="222.65625"/>
       <use xlink:href="#DejaVuSans-30" x="286.279297"/>
       <use xlink:href="#DejaVuSans-35" x="349.902344"/>
       <use xlink:href="#DejaVuSans-30" x="413.525391"/>
      </g>
     </g>
    </g>
    <g id="ytick_4">
     <g id="line2d_36">
      <g>
       <use xlink:href="#ma2fcd3d7fd" x="0" y="202.800026" style="stroke: #000000; stroke-width: 0.8"/>
      </g>
     </g>
     <g id="text_37">
      <!-- 0.000075 -->
      <g transform="translate(-73.801875 208.118932)scale(0.14 -0.14)">
       <defs>
        <path id="DejaVuSans-37" d="M 525 4666 
L 3525 4666 
L 3525 4397 
L 1831 0 
L 1172 0 
L 2766 4134 
L 525 4134 
L 525 4666 
z
" transform="scale(0.015625)"/>
       </defs>
       <use xlink:href="#DejaVuSans-30"/>
       <use xlink:href="#DejaVuSans-2e" x="63.623047"/>
       <use xlink:href="#DejaVuSans-30" x="95.410156"/>
       <use xlink:href="#DejaVuSans-30" x="159.033203"/>
       <use xlink:href="#DejaVuSans-30" x="222.65625"/>
       <use xlink:href="#DejaVuSans-30" x="286.279297"/>
       <use xlink:href="#DejaVuSans-37" x="349.902344"/>
       <use xlink:href="#DejaVuSans-35" x="413.525391"/>
      </g>
     </g>
    </g>
    <g id="ytick_5">
     <g id="line2d_37">
      <g>
       <use xlink:href="#ma2fcd3d7fd" x="0" y="159.388817" style="stroke: #000000; stroke-width: 0.8"/>
      </g>
     </g>
     <g id="text_38">
      <!-- 0.000100 -->
      <g transform="translate(-73.801875 164.707723)scale(0.14 -0.14)">
       <defs>
        <path id="DejaVuSans-31" d="M 794 531 
L 1825 531 
L 1825 4091 
L 703 3866 
L 703 4441 
L 1819 4666 
L 2450 4666 
L 2450 531 
L 3481 531 
L 3481 0 
L 794 0 
L 794 531 
z
" transform="scale(0.015625)"/>
       </defs>
       <use xlink:href="#DejaVuSans-30"/>
       <use xlink:href="#DejaVuSans-2e" x="63.623047"/>
       <use xlink:href="#DejaVuSans-30" x="95.410156"/>
       <use xlink:href="#DejaVuSans-30" x="159.033203"/>
       <use xlink:href="#DejaVuSans-30" x="222.65625"/>
       <use xlink:href="#DejaVuSans-31" x="286.279297"/>
       <use xlink:href="#DejaVuSans-30" x="349.902344"/>
       <use xlink:href="#DejaVuSans-30" x="413.525391"/>
      </g>
     </g>
    </g>
    <g id="ytick_6">
     <g id="line2d_38">
      <g>
       <use xlink:href="#ma2fcd3d7fd" x="0" y="115.977608" style="stroke: #000000; stroke-width: 0.8"/>
      </g>
     </g>
     <g id="text_39">
      <!-- 0.000125 -->
      <g transform="translate(-73.801875 121.296514)scale(0.14 -0.14)">
       <use xlink:href="#DejaVuSans-30"/>
       <use xlink:href="#DejaVuSans-2e" x="63.623047"/>
       <use xlink:href="#DejaVuSans-30" x="95.410156"/>
       <use xlink:href="#DejaVuSans-30" x="159.033203"/>
       <use xlink:href="#DejaVuSans-30" x="222.65625"/>
       <use xlink:href="#DejaVuSans-31" x="286.279297"/>
       <use xlink:href="#DejaVuSans-32" x="349.902344"/>
       <use xlink:href="#DejaVuSans-35" x="413.525391"/>
      </g>
     </g>
    </g>
    <g id="ytick_7">
     <g id="line2d_39">
      <g>
       <use xlink:href="#ma2fcd3d7fd" x="0" y="72.566399" style="stroke: #000000; stroke-width: 0.8"/>
      </g>
     </g>
     <g id="text_40">
      <!-- 0.000150 -->
      <g transform="translate(-73.801875 77.885306)scale(0.14 -0.14)">
       <use xlink:href="#DejaVuSans-30"/>
       <use xlink:href="#DejaVuSans-2e" x="63.623047"/>
       <use xlink:href="#DejaVuSans-30" x="95.410156"/>
       <use xlink:href="#DejaVuSans-30" x="159.033203"/>
       <use xlink:href="#DejaVuSans-30" x="222.65625"/>
       <use xlink:href="#DejaVuSans-31" x="286.279297"/>
       <use xlink:href="#DejaVuSans-35" x="349.902344"/>
       <use xlink:href="#DejaVuSans-30" x="413.525391"/>
      </g>
     </g>
    </g>
    <g id="ytick_8">
     <g id="line2d_40">
      <g>
       <use xlink:href="#ma2fcd3d7fd" x="0" y="29.155191" style="stroke: #000000; stroke-width: 0.8"/>
      </g>
     </g>
     <g id="text_41">
      <!-- 0.000175 -->
      <g transform="translate(-73.801875 34.474097)scale(0.14 -0.14)">
       <use xlink:href="#DejaVuSans-30"/>
       <use xlink:href="#DejaVuSans-2e" x="63.623047"/>
       <use xlink:href="#DejaVuSans-30" x="95.410156"/>
       <use xlink:href="#DejaVuSans-30" x="159.033203"/>
       <use xlink:href="#DejaVuSans-30" x="222.65625"/>
       <use xlink:href="#DejaVuSans-31" x="286.279297"/>
       <use xlink:href="#DejaVuSans-37" x="349.902344"/>
       <use xlink:href="#DejaVuSans-35" x="413.525391"/>
      </g>
     </g>
    </g>
    <g id="text_42">
     <!-- density [#cells per density area] -->
     <g transform="translate(-80.713438 294.486094)rotate(-90)scale(0.14 -0.14)">
      <defs>
       <path id="DejaVuSans-5b" d="M 550 4863 
L 1875 4863 
L 1875 4416 
L 1125 4416 
L 1125 -397 
L 1875 -397 
L 1875 -844 
L 550 -844 
L 550 4863 
z
" transform="scale(0.015625)"/>
       <path id="DejaVuSans-23" d="M 3272 2816 
L 2363 2816 
L 2100 1772 
L 3016 1772 
L 3272 2816 
z
M 2803 4594 
L 2478 3297 
L 3391 3297 
L 3719 4594 
L 4219 4594 
L 3897 3297 
L 4872 3297 
L 4872 2816 
L 3775 2816 
L 3519 1772 
L 4513 1772 
L 4513 1294 
L 3397 1294 
L 3072 0 
L 2572 0 
L 2894 1294 
L 1978 1294 
L 1656 0 
L 1153 0 
L 1478 1294 
L 494 1294 
L 494 1772 
L 1594 1772 
L 1856 2816 
L 850 2816 
L 850 3297 
L 1978 3297 
L 2297 4594 
L 2803 4594 
z
" transform="scale(0.015625)"/>
       <path id="DejaVuSans-5d" d="M 1947 4863 
L 1947 -844 
L 622 -844 
L 622 -397 
L 1369 -397 
L 1369 4416 
L 622 4416 
L 622 4863 
L 1947 4863 
z
" transform="scale(0.015625)"/>
      </defs>
      <use xlink:href="#DejaVuSans-64"/>
      <use xlink:href="#DejaVuSans-65" x="63.476562"/>
      <use xlink:href="#DejaVuSans-6e" x="125"/>
      <use xlink:href="#DejaVuSans-73" x="188.378906"/>
      <use xlink:href="#DejaVuSans-69" x="240.478516"/>
      <use xlink:href="#DejaVuSans-74" x="268.261719"/>
      <use xlink:href="#DejaVuSans-79" x="307.470703"/>
      <use xlink:href="#DejaVuSans-20" x="366.650391"/>
      <use xlink:href="#DejaVuSans-5b" x="398.4375"/>
      <use xlink:href="#DejaVuSans-23" x="437.451172"/>
      <use xlink:href="#DejaVuSans-63" x="521.240234"/>
      <use xlink:href="#DejaVuSans-65" x="576.220703"/>
      <use xlink:href="#DejaVuSans-6c" x="637.744141"/>
      <use xlink:href="#DejaVuSans-6c" x="665.527344"/>
      <use xlink:href="#DejaVuSans-73" x="693.310547"/>
      <use xlink:href="#DejaVuSans-20" x="745.410156"/>
      <use xlink:href="#DejaVuSans-70" x="777.197266"/>
      <use xlink:href="#DejaVuSans-65" x="840.673828"/>
      <use xlink:href="#DejaVuSans-72" x="902.197266"/>
      <use xlink:href="#DejaVuSans-20" x="943.310547"/>
      <use xlink:href="#DejaVuSans-64" x="975.097656"/>
      <use xlink:href="#DejaVuSans-65" x="1038.574219"/>
      <use xlink:href="#DejaVuSans-6e" x="1100.097656"/>
      <use xlink:href="#DejaVuSans-73" x="1163.476562"/>
      <use xlink:href="#DejaVuSans-69" x="1215.576172"/>
      <use xlink:href="#DejaVuSans-74" x="1243.359375"/>
      <use xlink:href="#DejaVuSans-79" x="1282.568359"/>
      <use xlink:href="#DejaVuSans-20" x="1341.748047"/>
      <use xlink:href="#DejaVuSans-61" x="1373.535156"/>
      <use xlink:href="#DejaVuSans-72" x="1434.814453"/>
      <use xlink:href="#DejaVuSans-65" x="1473.677734"/>
      <use xlink:href="#DejaVuSans-61" x="1535.201172"/>
      <use xlink:href="#DejaVuSans-5d" x="1596.480469"/>
     </g>
    </g>
   </g>
   <g id="patch_163">
    <path d="M 0 360 
L 0 0 
" style="fill: none; stroke: #000000; stroke-width: 0.8; stroke-linejoin: miter; stroke-linecap: square"/>
   </g>
   <g id="patch_164">
    <path d="M 720 360 
L 720 0 
" style="fill: none; stroke: #000000; stroke-width: 0.8; stroke-linejoin: miter; stroke-linecap: square"/>
   </g>
   <g id="patch_165">
    <path d="M 0 360 
L 720 360 
" style="fill: none; stroke: #000000; stroke-width: 0.8; stroke-linejoin: miter; stroke-linecap: square"/>
   </g>
   <g id="patch_166">
    <path d="M 0 0 
L 720 0 
" style="fill: none; stroke: #000000; stroke-width: 0.8; stroke-linejoin: miter; stroke-linecap: square"/>
   </g>
   <g id="legend_1">
    <g id="patch_167">
     <path d="M 620.455625 113.946875 
L 710.2 113.946875 
Q 713 113.946875 713 111.146875 
L 713 9.8 
Q 713 7 710.2 7 
L 620.455625 7 
Q 617.655625 7 617.655625 9.8 
L 617.655625 111.146875 
Q 617.655625 113.946875 620.455625 113.946875 
z
" style="fill: #ffffff; opacity: 0.8; stroke: #cccccc; stroke-linejoin: miter"/>
    </g>
    <g id="patch_168">
     <path d="M 623.255625 23.237813 
L 651.255625 23.237813 
L 651.255625 13.437813 
L 623.255625 13.437813 
z
" style="fill: #ff00df"/>
    </g>
    <g id="text_43">
     <!-- Arch 1 -->
     <g transform="translate(662.455625 23.237813)scale(0.14 -0.14)">
      <use xlink:href="#DejaVuSans-41"/>
      <use xlink:href="#DejaVuSans-72" x="68.408203"/>
      <use xlink:href="#DejaVuSans-63" x="107.271484"/>
      <use xlink:href="#DejaVuSans-68" x="162.251953"/>
      <use xlink:href="#DejaVuSans-20" x="225.630859"/>
      <use xlink:href="#DejaVuSans-31" x="257.417969"/>
     </g>
    </g>
    <g id="patch_169">
     <path d="M 623.255625 43.787188 
L 651.255625 43.787188 
L 651.255625 33.987188 
L 623.255625 33.987188 
z
" style="fill: #0000ff"/>
    </g>
    <g id="text_44">
     <!-- Arch 2 -->
     <g transform="translate(662.455625 43.787188)scale(0.14 -0.14)">
      <use xlink:href="#DejaVuSans-41"/>
      <use xlink:href="#DejaVuSans-72" x="68.408203"/>
      <use xlink:href="#DejaVuSans-63" x="107.271484"/>
      <use xlink:href="#DejaVuSans-68" x="162.251953"/>
      <use xlink:href="#DejaVuSans-20" x="225.630859"/>
      <use xlink:href="#DejaVuSans-32" x="257.417969"/>
     </g>
    </g>
    <g id="patch_170">
     <path d="M 623.255625 64.336563 
L 651.255625 64.336563 
L 651.255625 54.536563 
L 623.255625 54.536563 
z
" style="fill: #46cbec"/>
    </g>
    <g id="text_45">
     <!-- Arch 3 -->
     <g transform="translate(662.455625 64.336563)scale(0.14 -0.14)">
      <use xlink:href="#DejaVuSans-41"/>
      <use xlink:href="#DejaVuSans-72" x="68.408203"/>
      <use xlink:href="#DejaVuSans-63" x="107.271484"/>
      <use xlink:href="#DejaVuSans-68" x="162.251953"/>
      <use xlink:href="#DejaVuSans-20" x="225.630859"/>
      <use xlink:href="#DejaVuSans-33" x="257.417969"/>
     </g>
    </g>
    <g id="patch_171">
     <path d="M 623.255625 84.885938 
L 651.255625 84.885938 
L 651.255625 75.085938 
L 623.255625 75.085938 
z
" style="fill: #ff0000"/>
    </g>
    <g id="text_46">
     <!-- Arch 4 -->
     <g transform="translate(662.455625 84.885938)scale(0.14 -0.14)">
      <defs>
       <path id="DejaVuSans-34" d="M 2419 4116 
L 825 1625 
L 2419 1625 
L 2419 4116 
z
M 2253 4666 
L 3047 4666 
L 3047 1625 
L 3713 1625 
L 3713 1100 
L 3047 1100 
L 3047 0 
L 2419 0 
L 2419 1100 
L 313 1100 
L 313 1709 
L 2253 4666 
z
" transform="scale(0.015625)"/>
      </defs>
      <use xlink:href="#DejaVuSans-41"/>
      <use xlink:href="#DejaVuSans-72" x="68.408203"/>
      <use xlink:href="#DejaVuSans-63" x="107.271484"/>
      <use xlink:href="#DejaVuSans-68" x="162.251953"/>
      <use xlink:href="#DejaVuSans-20" x="225.630859"/>
      <use xlink:href="#DejaVuSans-34" x="257.417969"/>
     </g>
    </g>
    <g id="patch_172">
     <path d="M 623.255625 105.435313 
L 651.255625 105.435313 
L 651.255625 95.635313 
L 623.255625 95.635313 
z
"/>
    </g>
    <g id="text_47">
     <!-- Arch 5 -->
     <g transform="translate(662.455625 105.435313)scale(0.14 -0.14)">
      <use xlink:href="#DejaVuSans-41"/>
      <use xlink:href="#DejaVuSans-72" x="68.408203"/>
      <use xlink:href="#DejaVuSans-63" x="107.271484"/>
      <use xlink:href="#DejaVuSans-68" x="162.251953"/>
      <use xlink:href="#DejaVuSans-20" x="225.630859"/>
      <use xlink:href="#DejaVuSans-35" x="257.417969"/>
     </g>
    </g>
   </g>
  </g>
 </g>
 <defs>
  <clipPath id="pe18669f413">
   <rect x="0" y="0" width="720" height="360"/>
  </clipPath>
 </defs>
</svg>
